<?xml version="1.0" standalone="no"?>
<!DOCTYPE svg PUBLIC "-//W3C//DTD SVG 1.1//EN" "http://www.w3.org/Graphics/SVG/1.1/DTD/svg11.dtd" >
<svg>
<metadata>
Created by FontForge 20090622 at Wed Aug  1 05:20:46 2018
 By deploy user
Copyright (c) 2011, Modular Infotech, Pune, INDIA. - Licenced to Microsoft
</metadata>
<defs>
<font id="Aparajita-Bold" horiz-adv-x="824" >
  <font-face 
    font-family="Aparajita"
    font-weight="700"
    font-stretch="normal"
    units-per-em="2048"
    panose-1="2 11 8 4 2 2 2 2 2 4"
    ascent="1638"
    descent="-410"
    x-height="753"
    cap-height="1092"
    bbox="-1148 -832 2580 1821"
    underline-thickness="122"
    underline-position="-333"
    unicode-range="U+0020-U+25CC"
  />
<missing-glyph horiz-adv-x="800" 
d="M100 700h600v-700h-600v700zM650 50v600h-500v-600h500z" />
    <glyph glyph-name=".notdef" horiz-adv-x="800" 
d="M100 700h600v-700h-600v700zM650 50v600h-500v-600h500z" />
    <glyph glyph-name="glyph1" horiz-adv-x="0" 
 />
    <glyph glyph-name="glyph2" horiz-adv-x="0" 
 />
    <glyph glyph-name="space" unicode=" " horiz-adv-x="412" 
 />
    <glyph glyph-name="exclam" unicode="!" horiz-adv-x="549" 
d="M293 355h-35q-6 92 -37 222l-42 176q-38 157 -38 226q0 62 37 100t97 38q57 0 95.5 -38.5t38.5 -97.5q0 -61 -40 -228l-43 -176q-23 -93 -33 -222zM276 240q54 0 92.5 -38.5t38.5 -92.5t-38.5 -92.5t-92.5 -38.5t-92 38.5t-38 92.5t37.5 92.5t92.5 38.5z" />
    <glyph glyph-name="quotedbl" unicode="&#x22;" horiz-adv-x="915" 
d="M281 580h-39l-84 310q-16 61 -16 107q0 50 35 85t84 35q56 0 87.5 -37t31.5 -79q0 -37 -19 -112zM670 580h-40l-82 310q-19 70 -19 109q0 47 36 82.5t85 35.5q58 0 88 -38t30 -78q0 -28 -21 -111z" />
    <glyph glyph-name="numbersign" unicode="#" 
d="M72 -23l70 342h-110v107h131l47 235h-178v105h199l70 348h106l-71 -348h238l69 348h106l-70 -348h112v-105h-133l-48 -235h181v-107h-201l-69 -342h-107l69 342h-234l-73 -342h-104zM270 426h236l47 235h-237z" />
    <glyph glyph-name="dollar" unicode="$" 
d="M456 672q192 -121 245 -183q71 -84 71 -198q0 -124 -83.5 -209.5t-232.5 -98.5v-94h-70v88q-86 2 -152 14.5t-151 45.5v260h34q16 -89 50.5 -143.5t87.5 -82.5t131 -34v398q-194 121 -258 194t-64 170q0 104 80.5 184t241.5 101v37h70v-37q136 -10 275 -85v-233h-31
q-24 79 -56.5 130t-84.5 87q-39 26 -103 44v-355zM386 1030q-59 -5 -95 -33q-56 -42 -56 -103q0 -37 26 -74.5t125 -103.5v314zM456 37q69 16 101 55t32 98q0 51 -28.5 95t-104.5 101v-349z" />
    <glyph glyph-name="percent" unicode="%" horiz-adv-x="1649" 
d="M1266 1117l-775 -1163h-108l775 1163h108zM385 1117q114 0 192.5 -81t78.5 -209q0 -131 -79 -213t-195 -82t-192 79t-76 208q0 133 78 215.5t193 82.5zM385 1074q-18 0 -29 -11q-20 -18 -30 -63.5t-10 -188.5q0 -113 13 -175q8 -35 28 -53q12 -11 28 -11q18 0 28 10
q18 17 27 55q14 61 14 171q0 135 -13 196q-9 42 -29 61q-9 9 -27 9zM1261 540q116 0 194.5 -80t79.5 -210q-1 -131 -80.5 -213t-192.5 -82q-112 0 -190.5 82t-78.5 211q0 130 76.5 211t191.5 81zM1263 498q-16 0 -27 -9q-20 -18 -30.5 -62t-10.5 -168q0 -132 13 -190
q8 -41 29 -59q11 -10 28 -10q15 0 25 9q20 18 29 60q14 59 14 178q0 126 -13 184q-9 42 -29 58q-9 9 -28 9z" />
    <glyph glyph-name="ampersand" unicode="&#x26;" horiz-adv-x="1373" 
d="M939 653h335v-32q-57 -8 -89 -33t-83.5 -117.5t-145.5 -207.5q82 -74 134 -103q36 -20 71 -20q59 0 108 78l33 -18q-66 -129 -141 -184q-57 -41 -131 -41q-62 0 -119 27t-138 101q-101 -68 -189.5 -98t-184.5 -30q-153 0 -243 83t-90 195q0 121 86 210t251 154
q-21 53 -31.5 103t-10.5 96q0 129 90.5 215t231.5 86q113 0 179.5 -57t66.5 -133q0 -91 -68 -155.5t-215 -118.5q91 -160 266 -345q118 132 118 227q0 34 -23 58t-68 28v32zM618 701q85 32 114 67.5t29 86.5q0 90 -48 152q-31 41 -77 41q-38 0 -65 -29.5t-27 -80.5
q0 -40 13 -85t61 -152zM425 566q-64 -27 -91 -58q-38 -45 -38 -101q0 -75 44 -150t106 -116t124 -41q31 0 69 13t83 40q-194 199 -297 413z" />
    <glyph glyph-name="quotesingle" unicode="'" horiz-adv-x="458" 
d="M252 581h-39l-84 308q-16 57 -16 105q0 53 34 88t84 35q57 0 88 -37.5t31 -80.5q0 -36 -18 -109z" />
    <glyph glyph-name="parenleft" unicode="(" horiz-adv-x="549" 
d="M530 1117v-37q-84 -55 -123 -108q-55 -72 -86 -186q-38 -140 -38 -393q0 -238 35 -370t95 -214q42 -56 117 -99v-40q-194 65 -329 266t-135 462q0 257 134.5 455.5t329.5 263.5z" />
    <glyph glyph-name="parenright" unicode=")" horiz-adv-x="549" 
d="M20 -330v37q84 56 123 108q54 72 86 185q38 142 38 394q0 239 -35 370.5t-95 212.5q-42 57 -117 99v41q194 -66 329 -266.5t135 -461.5q0 -257 -135 -455.5t-329 -263.5z" />
    <glyph glyph-name="asterisk" unicode="*" 
d="M397 799q-3 46 -9.5 70.5t-33 75t-26.5 78.5q0 37 26.5 65.5t57.5 28.5q35 0 60 -26.5t25 -68.5q0 -33 -24.5 -79.5t-31.5 -71t-11 -72.5q45 18 64.5 31.5t56.5 54.5q51 54 98 54q35 0 59.5 -23.5t24.5 -55.5q0 -35 -30 -61.5t-78 -26.5q-16 0 -57 2q-19 1 -42 1
q-29 0 -90 -3q35 -39 54.5 -54t67 -39.5t67.5 -51.5q16 -20 16 -51q0 -35 -23.5 -59t-56.5 -24q-35 0 -62.5 29t-38.5 102q-6 47 -13.5 69t-32.5 64q-27 -43 -36 -66.5t-15 -66.5q-10 -73 -37 -100.5t-62 -27.5q-33 0 -56.5 22.5t-23.5 53.5q0 33 18 58t66.5 52t67 41
t54.5 49l-87 3q-22 0 -42 -1q-48 -3 -65 -3q-46 0 -75 26t-29 61q0 33 23.5 57t59.5 24q51 0 98 -48.5t60 -58.5q20 -14 64 -33z" />
    <glyph glyph-name="plus" unicode="+" horiz-adv-x="939" 
d="M32 599h387v386h106v-386h387v-106h-387v-384h-106v384h-387v106z" />
    <glyph glyph-name="comma" unicode="," horiz-adv-x="412" 
d="M82 -289v35q93 41 135.5 105t42.5 130q0 14 -6 21q-5 7 -11 7q-5 0 -14 -6q-24 -13 -58 -13q-48 0 -83 37t-35 87q0 53 40.5 93t97.5 40q69 0 118 -53.5t49 -146.5q0 -115 -69.5 -204.5t-206.5 -131.5z" />
    <glyph glyph-name="hyphen" unicode="-" horiz-adv-x="549" 
d="M510 295h-470v167h470v-167z" />
    <glyph glyph-name="period" unicode="." horiz-adv-x="412" 
d="M206 248q56 0 95.5 -39.5t39.5 -94.5q0 -56 -39.5 -95t-95.5 -39q-55 0 -94.5 39t-39.5 95q0 55 39.5 94.5t94.5 39.5z" />
    <glyph glyph-name="slash" unicode="/" horiz-adv-x="458" 
d="M463 1117l-358 -1142h-103l359 1142h102z" />
    <glyph glyph-name="zero" unicode="0" 
d="M764 546q0 -164 -46 -305q-27 -87 -73.5 -142.5t-105 -88.5t-128.5 -33q-79 0 -142.5 40.5t-112.5 115.5q-35 55 -62 146q-34 123 -34 254q0 178 49 327q42 123 125.5 188.5t176.5 65.5q95 0 177.5 -64.5t121.5 -174.5q54 -150 54 -329zM516 547q0 287 -3 334
q-8 112 -39 152q-20 26 -65 26q-35 0 -55 -20q-30 -28 -40.5 -99t-10.5 -497q0 -232 17 -311q12 -57 34.5 -76.5t59.5 -19.5q40 0 60 26q34 45 39 139z" />
    <glyph glyph-name="one" unicode="1" 
d="M537 1114v-893q0 -100 9 -128t37 -45.5t90 -17.5h25v-30h-575v30h29q70 0 100 16t40.5 44t10.5 131v566q0 76 -7.5 95t-27 32t-45.5 13q-41 0 -100 -25l-14 29l401 183h27z" />
    <glyph glyph-name="two" unicode="2" 
d="M683 0h-643v18q296 351 359 473t63 238q0 84 -52.5 140t-127.5 56q-124 0 -193 -124l-29 10q43 155 131.5 229t204.5 74q83 0 151.5 -38.5t107 -106t38.5 -125.5q0 -107 -59 -218q-82 -149 -355 -415h235q87 0 113.5 7t43 24.5t44.5 73.5h29z" />
    <glyph glyph-name="three" unicode="3" 
d="M244 547v29q92 26 127.5 49t61 70t25.5 96q0 66 -48.5 114t-121.5 48q-113 0 -191 -119l-30 10q58 135 148.5 202.5t201.5 67.5q113 0 187 -69t74 -162q0 -60 -34.5 -116t-107.5 -99q94 -46 143.5 -113t49.5 -169q0 -170 -123.5 -289.5t-330.5 -119.5q-139 0 -203 46
q-45 32 -45 82q0 37 26.5 63.5t60.5 26.5q27 0 50 -11q13 -7 91.5 -71t147.5 -64q59 0 101.5 47t42.5 120q0 110 -77 203t-226 128z" />
    <glyph glyph-name="four" unicode="4" 
d="M41 411l518 703h99v-703h100v-166h-100v-245h-222v245h-395v166zM119 411h317v431z" />
    <glyph glyph-name="five" unicode="5" 
d="M251 1092h511l-81 -208h-430l-41 -109q278 -10 428 -138q123 -106 123 -263q0 -100 -57.5 -196.5t-161 -148.5t-227.5 -52q-134 0 -206 50q-49 36 -49 81q0 34 26 61t61 27q31 0 63 -13t110 -68q49 -34 85 -47q25 -9 56 -9q66 0 112.5 48t46.5 116q0 142 -142 230.5
t-357 88.5q-22 0 -65 -1z" />
    <glyph glyph-name="six" unicode="6" 
d="M774 1114v-22q-145 -37 -233.5 -95.5t-139.5 -142t-79 -206.5q35 24 59 31q52 17 105 17q123 0 204.5 -89t81.5 -243q0 -108 -44.5 -198t-125.5 -139.5t-174 -49.5q-100 0 -185.5 55.5t-133.5 161.5t-48 231q0 184 88 342t250.5 252t374.5 95zM312 583q-7 -111 -7 -163
q0 -111 21.5 -215t58.5 -145q26 -30 63 -30t66 43t29 175q0 222 -54 307q-35 54 -94 54q-32 0 -83 -26z" />
    <glyph glyph-name="seven" unicode="7" 
d="M292 -23l297 901h-226q-133 0 -200 -34q-46 -25 -77 -91h-30l78 339h651l-366 -1115h-127z" />
    <glyph glyph-name="eight" unicode="8" 
d="M562 617q115 -85 159.5 -158t44.5 -167q0 -132 -99 -223.5t-270 -91.5q-162 0 -250.5 80t-88.5 195q0 88 51 154t170 120q-129 99 -166 162t-37 146q0 109 93 192.5t255 83.5q156 0 240.5 -73.5t84.5 -176.5q0 -78 -45.5 -137t-141.5 -106zM501 658q29 40 43.5 90
t14.5 109q0 105 -45 161q-33 42 -93 42q-54 0 -92 -39t-38 -97q0 -59 42.5 -122t167.5 -144zM340 488q-25 -23 -36 -41q-16 -28 -29 -82t-13 -113q0 -76 19.5 -127t55.5 -73.5t74 -22.5q58 0 98.5 43t40.5 118q0 156 -210 298z" />
    <glyph glyph-name="nine" unicode="9" 
d="M51 -23v23q133 31 226 90.5t147.5 147t76.5 202.5q-50 -26 -85 -36t-74 -10q-124 0 -206.5 89t-82.5 245q0 108 44.5 197.5t127.5 139t173 49.5q95 0 180.5 -54.5t136.5 -158.5t51 -237q0 -172 -82.5 -330t-246 -253t-386.5 -104zM513 507q8 90 8 159q0 146 -34 273
q-19 70 -57 103q-20 17 -52 17q-41 0 -63 -34q-32 -48 -32 -181q0 -223 53 -308q35 -55 94 -55q31 0 83 26z" />
    <glyph glyph-name="colon" unicode=":" horiz-adv-x="549" 
d="M275 774q56 0 95 -39t39 -94q0 -56 -39 -95t-95 -39q-55 0 -94 39t-39 95q0 55 39 94t94 39zM275 248q56 0 95 -39.5t39 -94.5q0 -56 -39.5 -95t-94.5 -39q-56 0 -95 39t-39 95q0 55 39 94.5t95 39.5z" />
    <glyph glyph-name="semicolon" unicode=";" horiz-adv-x="549" 
d="M275 774q55 0 93.5 -38.5t38.5 -93.5q0 -56 -39 -95t-93 -39q-56 0 -95 39t-39 95q0 55 38.5 93.5t95.5 38.5zM151 -289v35q94 41 136 105t42 130q0 14 -5 21q-6 7 -12 7q-4 0 -14 -6q-23 -13 -58 -13q-48 0 -83 37t-35 87q0 53 40.5 93t97.5 40q69 0 118 -53.5
t49 -146.5q0 -115 -69.5 -204.5t-206.5 -131.5z" />
    <glyph glyph-name="less" unicode="&#x3c;" horiz-adv-x="939" 
d="M912 149l-879 359v65l879 363v-111l-680 -284l680 -279v-113z" />
    <glyph glyph-name="equal" unicode="=" horiz-adv-x="939" 
d="M32 728h881v-105h-881v105zM32 464h881v-104h-881v104z" />
    <glyph glyph-name="greater" unicode="&#x3e;" horiz-adv-x="939" 
d="M33 936l879 -358v-66l-879 -363v112l680 283l-680 280v112z" />
    <glyph glyph-name="question" unicode="?" 
d="M391 356h-33q-1 89 9 133.5t52 122t55.5 124.5t13.5 116q0 108 -42 158.5t-99 50.5q-44 0 -73 -23q-23 -18 -23 -37q0 -13 15 -41q35 -62 35 -105q0 -40 -27 -66.5t-67 -26.5q-45 0 -75.5 32t-30.5 84q0 95 82 167t229 72q156 0 238 -74.5t82 -180.5q0 -76 -42 -141
t-162 -144q-80 -53 -105.5 -94.5t-31.5 -126.5zM382 238q54 0 92 -37.5t38 -91.5t-38 -92.5t-92 -38.5t-91.5 38.5t-37.5 92.5t37.5 91.5t91.5 37.5z" />
    <glyph glyph-name="at" unicode="@" horiz-adv-x="1534" 
d="M949 745l197 8l-148 -506q-25 -84 -25 -125q0 -26 19 -45t46 -19q56 0 144 64t145.5 182.5t57.5 253.5q0 222 -142.5 365t-372.5 143q-198 0 -359.5 -93t-256.5 -270t-95 -380q0 -279 177.5 -456.5t451.5 -177.5q226 0 405.5 121.5t254.5 322.5h49q-96 -237 -281 -363
t-430 -126q-309 0 -510.5 200t-201.5 507q0 211 100 391t280 277.5t399 97.5q178 0 311.5 -71.5t200 -200.5t66.5 -272q0 -166 -72 -304t-179.5 -203.5t-231.5 -65.5q-79 0 -121 39.5t-42 101.5q0 43 19 113q-67 -111 -104 -153q-50 -58 -100 -84q-32 -17 -74 -17
q-57 0 -96 45.5t-39 133.5q0 90 26.5 176.5t71.5 162.5t104 136.5t133 99.5q38 21 81 21q45 0 74.5 -28t40.5 -98zM828 717q-31 0 -61 -34q-40 -45 -86 -153q-82 -192 -82 -309q0 -35 15 -54.5t32 -19.5q16 0 45 23q41 31 87.5 106t76.5 166.5t30 168.5q0 56 -21 85
q-16 21 -36 21z" />
    <glyph glyph-name="bracketleft" unicode="[" horiz-adv-x="549" 
d="M172 -301v1393h324v-34h-36q-53 0 -71.5 -11t-27.5 -32.5t-9 -102.5v-1039q0 -77 3 -89q7 -29 27 -42.5t78 -13.5h36v-29h-324z" />
    <glyph glyph-name="backslash" unicode="\" horiz-adv-x="458" 
d="M2 1117h101l360 -1142h-104z" />
    <glyph glyph-name="bracketright" unicode="]" horiz-adv-x="549" 
d="M378 1092v-1393h-324v31h36q53 0 71.5 10t27.5 32t9 102v1040q0 78 -3 89q-7 28 -27 42t-78 14h-36v33h324z" />
    <glyph glyph-name="asciicircum" unicode="^" horiz-adv-x="958" 
d="M118 536l331 578h66l325 -578h-128l-237 412l-233 -412h-124z" />
    <glyph glyph-name="underscore" unicode="_" 
d="M-15 -250h855v-106h-855v106z" />
    <glyph glyph-name="grave" unicode="`" horiz-adv-x="549" 
d="M31 1129h242l93 -280h-68z" />
    <glyph glyph-name="braceleft" unicode="{" horiz-adv-x="650" 
d="M580 1117v-37q-81 -15 -119 -56.5t-38 -94.5q0 -54 19 -134t19 -140q0 -54 -32.5 -111t-93.5 -97q-43 -28 -136 -53q100 -32 145 -62q59 -41 89 -96.5t30 -105.5q0 -49 -20 -129.5t-20 -139.5q0 -57 37 -98.5t120 -57.5v-38h-29q-82 0 -155.5 38t-111 99t-37.5 118
q0 55 25 152q19 72 19 128q0 64 -40.5 108.5t-117.5 57.5v49q77 13 117.5 59.5t40.5 113.5q0 55 -18 123q-25 96 -25 146q0 52 31.5 106t79 88t103.5 49q44 12 118 15z" />
    <glyph glyph-name="bar" unicode="|" horiz-adv-x="363" 
d="M128 -356v1473h105v-1473h-105z" />
    <glyph glyph-name="braceright" unicode="}" horiz-adv-x="650" 
d="M73 -333v37q80 15 118.5 56.5t38.5 94.5t-19 133t-19 140q0 56 32 112.5t94 96.5q43 28 136 53q-100 32 -145 62q-60 41 -90 97t-30 105t20 129.5t20 139.5q0 57 -36.5 98.5t-119.5 58.5v37h28q82 0 156 -38t111.5 -99t37.5 -119q0 -54 -25 -151q-19 -72 -19 -128
q0 -64 40 -109t118 -57v-49q-78 -13 -118 -59.5t-40 -113.5q0 -55 18 -123q24 -96 24 -146q0 -53 -31 -106.5t-78.5 -87.5t-103.5 -49q-44 -12 -118 -15z" />
    <glyph glyph-name="asciitilde" unicode="~" horiz-adv-x="857" 
d="M840 571h46q-5 -128 -66.5 -194t-149.5 -66q-43 0 -91 13.5t-211 82.5q-118 49 -170 49q-55 0 -91.5 -33.5t-50.5 -110.5h-46q6 132 65 196t144 64q43 0 84 -12q81 -23 224 -84q78 -34 119 -45q24 -7 52 -7q57 0 96 38t46 109z" />
    <glyph glyph-name="cent" unicode="&#xa2;" 
d="M708 196l26 -19q-108 -200 -308 -200q-70 0 -135 35l-124 -315h-55l132 346q-70 58 -105.5 142t-35.5 182q0 166 96 285.5t246 119.5q32 0 76 -3l121 316h58l-128 -332q72 -28 105.5 -72.5t33.5 -95.5q0 -45 -27.5 -72.5t-70.5 -27.5q-41 0 -68 19t-43 65l-128 -336
q37 -66 78 -96.5t95 -30.5q89 0 161 90zM485 675q-26 45 -58 45q-38 0 -66 -42q-42 -61 -42 -176q0 -83 26 -194z" />
    <glyph glyph-name="multiply" unicode="&#xd7;" horiz-adv-x="939" 
d="M199 895l274 -274l273 273l74 -74l-273 -273l274 -274l-75 -75l-273 274l-273 -272l-74 75l272 271l-274 274z" />
    <glyph glyph-name="divide" unicode="&#xf7;" horiz-adv-x="905" 
d="M454 898q35 0 59 -24t24 -58t-24 -58t-59 -25q-34 1 -58 25t-25 58q1 34 25 58t58 24zM13 599h880v-106h-880v106zM453 365q35 0 59 -24.5t24 -57.5q0 -35 -24 -59t-59 -24q-34 0 -58.5 24t-24.5 59q0 33 24.5 57.5t58.5 24.5z" />
    <glyph glyph-name="uni0901" unicode="&#x901;" horiz-adv-x="0" 
d="M-266 1252q-44 0 -77 33t-33 77q0 47 32 78.5t78 31.5q48 0 79 -31t31 -79q0 -46 -31.5 -78t-78.5 -32zM192 1440q0 -141 -134.5 -240.5t-325.5 -99.5q-189 0 -324.5 100t-135.5 240h260q0 -115 59.5 -197.5t140.5 -82.5q82 0 141 81t59 199h260z" />
    <glyph glyph-name="uni0902" unicode="&#x902;" horiz-adv-x="0" 
d="M-268 1240q-45 0 -77.5 33.5t-32.5 78.5q0 47 32 78.5t78 31.5q48 0 79 -31t31 -79q0 -47 -32 -79.5t-78 -32.5z" />
    <glyph glyph-name="uni0903" unicode="&#x903;" horiz-adv-x="520" 
d="M390 660h-260v240h260v-240zM390 100h-260v240h260v-240z" />
    <glyph glyph-name="uni0905" unicode="&#x905;" horiz-adv-x="1312" 
d="M1382 940h-208v-790q0 -39 29 -64.5t71 -25.5v-60h-460v60q100 0 100 90v370h-180v80h180v340h-80v100h548v-100zM34 440h80q0 -120 67.5 -210t172.5 -90q82 0 131 51t49 139q0 182 -200 182h-40v74h40q160 0 160 154q0 74 -38.5 117t-101.5 43q-48 0 -91.5 -29
t-68.5 -75l-60 44q118 200 328 200q129 0 209.5 -75t80.5 -187q0 -84 -49.5 -146t-128.5 -76v-4q101 -16 160.5 -84.5t59.5 -169.5q0 -124 -102.5 -211t-267.5 -87q-166 0 -278 131t-112 309z" />
    <glyph glyph-name="uni0906" unicode="&#x906;" horiz-adv-x="1862" 
d="M1932 940h-208v-790q0 -39 29 -64.5t71 -25.5v-60h-460v60q100 0 100 90v790h-290v-790q0 -39 29 -64.5t71 -25.5v-60h-460v60q100 0 100 90v370h-180v80h180v340h-80v100h1098v-100zM34 440h80q0 -120 67.5 -210t172.5 -90q82 0 131 51t49 139q0 182 -200 182h-40v74h40
q160 0 160 154q0 74 -38.5 117t-101.5 43q-48 0 -91.5 -29t-68.5 -75l-60 44q118 200 328 200q129 0 209.5 -75t80.5 -187q0 -84 -49.5 -146t-128.5 -76v-4q101 -16 160.5 -84.5t59.5 -169.5q0 -124 -102.5 -211t-267.5 -87q-166 0 -278 131t-112 309z" />
    <glyph glyph-name="uni0907" unicode="&#x907;" horiz-adv-x="942" 
d="M1012 940h-264v-208h-260q-69 0 -114.5 -28.5t-45.5 -79.5q0 -43 36 -68.5t88 -25.5q31 0 90 5q60 5 86 5q216 0 216 -160q0 -119 -86.5 -188.5t-237.5 -69.5h-88q36 -42 100.5 -80t107.5 -38q44 0 96 28l30 -40q-119 -108 -240 -108q-134 0 -256 126
q-107 112 -149.5 153t-82.5 47v60h286q20 -37 58 -88q84 0 145 40.5t61 107.5q0 60 -45 95t-115 35h-160q-78 0 -139 52.5t-61 127.5q0 76 59 125t141 49h220v126h-494v100h1018v-100z" />
    <glyph glyph-name="uni0908" unicode="&#x908;" horiz-adv-x="942" 
d="M1012 940h-264v-208h-260q-69 0 -114.5 -28.5t-45.5 -79.5q0 -43 36 -68.5t88 -25.5q31 0 90 5q60 5 86 5q216 0 216 -160q0 -119 -86.5 -188.5t-237.5 -69.5h-88q36 -42 100.5 -80t107.5 -38q44 0 96 28l30 -40q-119 -108 -240 -108q-134 0 -256 126
q-107 112 -149.5 153t-82.5 47v60h286q20 -37 58 -88q84 0 145 40.5t61 107.5q0 60 -45 95t-115 35h-160q-78 0 -139 52.5t-61 127.5q0 76 59 125t141 49h220v126h-494v100h1018v-100zM886 1410h-136q-54 0 -89 -32.5t-35 -85.5q0 -131 122 -232h-260q-122 101 -122 232
q0 89 77 143.5t213 54.5h230v-80z" />
    <glyph glyph-name="uni0909" unicode="&#x909;" horiz-adv-x="968" 
d="M1038 940h-400q107 -19 173.5 -75.5t66.5 -124.5q0 -77 -58.5 -134.5t-141.5 -65.5v-10q96 -8 158 -76t62 -164q0 -120 -115 -205t-275 -85q-203 0 -336.5 168t-133.5 392h60q16 -176 118 -298t232 -122q77 0 133.5 53.5t56.5 126.5q0 76 -52 128t-128 52h-60v60h50
q77 0 133.5 59.5t56.5 140.5q0 66 -49.5 115.5t-130.5 64.5h-464v100h1044v-100z" />
    <glyph glyph-name="uni090A" unicode="&#x90a;" horiz-adv-x="1436" 
d="M1506 940h-868q102 -18 171 -78.5t69 -141.5q0 -71 -59 -121.5t-141 -58.5v-10q95 -8 157.5 -73.5t62.5 -156.5q0 -125 -122.5 -212.5t-297.5 -87.5q-181 0 -310.5 164.5t-129.5 395.5h60q16 -177 114.5 -298.5t225.5 -121.5q83 0 141.5 49.5t58.5 120.5
q0 79 -52.5 134.5t-127.5 55.5h-60v60h60q73 0 126.5 58.5t53.5 141.5q0 68 -44 117.5t-116 62.5h-484v100h1512v-100zM858 60l40 60q39 -20 80 -20q58 0 99 68.5t41 171.5q0 111 -35 185.5t-85 74.5q-36 0 -60 -20l-50 60q60 60 190 60q125 0 212.5 -104.5t87.5 -255.5
q0 -137 -86 -238.5t-214 -101.5q-148 0 -220 60z" />
    <glyph glyph-name="uni090B" unicode="&#x90b;" horiz-adv-x="1856" 
d="M1926 940h-724v-340l220 80q-20 40 -20 100q0 50 58 85t142 35q45 0 77.5 -25.5t32.5 -64.5q0 -90 -110 -130q200 -166 200 -380q0 -109 -110.5 -184.5t-269.5 -75.5v60q50 0 85 58t35 142q0 130 -100 300l-240 -100v-360q0 -32 30 -56t70 -24v-60h-460v60q40 0 70 22.5
t30 57.5v260l-840 -340l-40 90l560 230q-255 360 -380 360q-86 0 -190 -60l-30 50q164 140 340 140q125 0 258 -106t242 -294l80 30v440h-948v100h1932v-100z" />
    <glyph glyph-name="uni090C" unicode="&#x90c;" horiz-adv-x="1470" 
d="M1540 940h-386v-130q116 -30 188 -127.5t72 -222.5q0 -141 -84.5 -240.5t-205.5 -99.5q-73 0 -126.5 -50.5t-53.5 -119.5q0 -64 60 -112t140 -48h200v-80h-260q-164 0 -282 73.5t-118 176.5q0 83 67.5 143.5t160.5 60.5q99 0 170.5 80.5t71.5 195.5q0 110 -52.5 185
t-127.5 75q-83 0 -136.5 -72.5t-53.5 -167.5h-70q0 101 -58.5 170.5t-141.5 69.5q-82 0 -141 -77t-59 -183q0 -95 53.5 -167.5t136.5 -72.5q69 0 100 50l50 -50q-68 -120 -270 -120q-135 0 -231.5 111.5t-96.5 266.5q0 149 105.5 255.5t252.5 106.5q123 0 214 -58.5
t116 -151.5h10q66 173 200 200v130h-960v100h1546v-100z" />
    <glyph glyph-name="uni090D" unicode="&#x90d;" horiz-adv-x="1038" 
d="M1108 940h-250q112 -132 112 -306q0 -147 -83 -240.5t-217 -93.5q-130 0 -230 120l50 50q50 -50 100 -50q58 0 94 61t36 159q0 156 -122 300h-268v-500q0 -116 75 -192t205 -88q360 -32 360 -160q0 -49 -51.5 -84.5t-128.5 -35.5h-160v60q80 0 80 60q0 64 -200 100
q-191 34 -305.5 145.5t-114.5 234.5v460h-96v100h1114v-100zM950 1460q0 -141 -134.5 -240.5t-325.5 -99.5q-189 0 -324.5 100t-135.5 240h260q0 -115 59.5 -197.5t140.5 -82.5q82 0 141 81t59 199h260z" />
    <glyph glyph-name="uni090E" unicode="&#x90e;" horiz-adv-x="1038" 
d="M1108 940h-250q112 -132 112 -306q0 -147 -83 -240.5t-217 -93.5q-130 0 -230 120l50 50q50 -50 100 -50q58 0 94 61t36 159q0 156 -122 300h-268v-500q0 -116 75 -192t205 -88q360 -32 360 -160q0 -49 -51.5 -84.5t-128.5 -35.5h-160v60q80 0 80 60q0 64 -200 100
q-191 34 -305.5 145.5t-114.5 234.5v460h-96v100h1114v-100zM884 1060h-240q0 71 -100 120.5t-270 49.5q-133 0 -236.5 79t-103.5 191h260q0 -100 83.5 -163t196.5 -63q161 0 285.5 -61.5t124.5 -152.5z" />
    <glyph glyph-name="uni090F" unicode="&#x90f;" horiz-adv-x="1038" 
d="M1108 940h-250q112 -132 112 -306q0 -147 -83 -240.5t-217 -93.5q-130 0 -230 120l50 50q50 -50 100 -50q58 0 94 61t36 159q0 156 -122 300h-268v-500q0 -116 75 -192t205 -88q360 -32 360 -160q0 -49 -51.5 -84.5t-128.5 -35.5h-160v60q80 0 80 60q0 64 -200 100
q-191 34 -305.5 145.5t-114.5 234.5v460h-96v100h1114v-100z" />
    <glyph glyph-name="uni0910" unicode="&#x910;" horiz-adv-x="1038" 
d="M1108 940h-250q112 -132 112 -306q0 -147 -83 -240.5t-217 -93.5q-130 0 -230 120l50 50q50 -50 100 -50q58 0 94 61t36 159q0 156 -122 300h-268v-500q0 -116 75 -192t205 -88q360 -32 360 -160q0 -49 -51.5 -84.5t-128.5 -35.5h-160v60q80 0 80 60q0 64 -200 100
q-191 34 -305.5 145.5t-114.5 234.5v460h-96v100h1114v-100zM869 1060h-240q-56 0 -120 60l-280 260q-43 40 -140 40h-80v80h280q73 0 140 -60l290 -260q67 -60 110 -60h40v-60z" />
    <glyph glyph-name="uni0911" unicode="&#x911;" horiz-adv-x="1862" 
d="M1932 940h-208v-790q0 -39 29 -64.5t71 -25.5v-60h-460v60q100 0 100 90v790h-290v-790q0 -39 29 -64.5t71 -25.5v-60h-460v60q100 0 100 90v370h-180v80h180v340h-80v100h1098v-100zM34 440h80q0 -120 67.5 -210t172.5 -90q82 0 131 51t49 139q0 182 -200 182h-40v74h40
q160 0 160 154q0 74 -38.5 117t-101.5 43q-48 0 -91.5 -29t-68.5 -75l-60 44q118 200 328 200q129 0 209.5 -75t80.5 -187q0 -84 -49.5 -146t-128.5 -76v-4q101 -16 160.5 -84.5t59.5 -169.5q0 -124 -102.5 -211t-267.5 -87q-166 0 -278 131t-112 309zM1785 1460
q0 -141 -134.5 -240.5t-325.5 -99.5q-189 0 -324.5 100t-135.5 240h260q0 -115 59.5 -197.5t140.5 -82.5q82 0 141 81t59 199h260z" />
    <glyph glyph-name="uni0912" unicode="&#x912;" horiz-adv-x="1862" 
d="M1932 940h-208v-790q0 -39 29 -64.5t71 -25.5v-60h-460v60q100 0 100 90v790h-290v-790q0 -39 29 -64.5t71 -25.5v-60h-460v60q100 0 100 90v370h-180v80h180v340h-80v100h1098v-100zM34 440h80q0 -120 67.5 -210t172.5 -90q82 0 131 51t49 139q0 182 -200 182h-40v74h40
q160 0 160 154q0 74 -38.5 117t-101.5 43q-48 0 -91.5 -29t-68.5 -75l-60 44q118 200 328 200q129 0 209.5 -75t80.5 -187q0 -84 -49.5 -146t-128.5 -76v-4q101 -16 160.5 -84.5t59.5 -169.5q0 -124 -102.5 -211t-267.5 -87q-166 0 -278 131t-112 309zM1714 1060h-240
q0 71 -100 120.5t-270 49.5q-133 0 -236.5 79t-103.5 191h260q0 -100 83.5 -163t196.5 -63q161 0 285.5 -61.5t124.5 -152.5z" />
    <glyph glyph-name="uni0913" unicode="&#x913;" horiz-adv-x="1862" 
d="M1932 940h-208v-790q0 -39 29 -64.5t71 -25.5v-60h-460v60q100 0 100 90v790h-290v-790q0 -39 29 -64.5t71 -25.5v-60h-460v60q100 0 100 90v370h-180v80h180v340h-80v100h1098v-100zM34 440h80q0 -120 67.5 -210t172.5 -90q82 0 131 51t49 139q0 182 -200 182h-40v74h40
q160 0 160 154q0 74 -38.5 117t-101.5 43q-48 0 -91.5 -29t-68.5 -75l-60 44q118 200 328 200q129 0 209.5 -75t80.5 -187q0 -84 -49.5 -146t-128.5 -76v-4q101 -16 160.5 -84.5t59.5 -169.5q0 -124 -102.5 -211t-267.5 -87q-166 0 -278 131t-112 309zM1729 1060h-240
q-56 0 -120 60l-280 260q-43 40 -140 40h-80v80h280q73 0 140 -60l290 -260q67 -60 110 -60h40v-60z" />
    <glyph glyph-name="uni0914" unicode="&#x914;" horiz-adv-x="1862" 
d="M1932 940h-208v-790q0 -39 29 -64.5t71 -25.5v-60h-460v60q100 0 100 90v790h-290v-790q0 -39 29 -64.5t71 -25.5v-60h-460v60q100 0 100 90v370h-180v80h180v340h-80v100h1098v-100zM34 440h80q0 -120 67.5 -210t172.5 -90q82 0 131 51t49 139q0 182 -200 182h-40v74h40
q160 0 160 154q0 74 -38.5 117t-101.5 43q-48 0 -91.5 -29t-68.5 -75l-60 44q118 200 328 200q129 0 209.5 -75t80.5 -187q0 -84 -49.5 -146t-128.5 -76v-4q101 -16 160.5 -84.5t59.5 -169.5q0 -124 -102.5 -211t-267.5 -87q-166 0 -278 131t-112 309zM1776 1138h-202
q-56 0 -102 50l-188 204q-46 50 -106 50h-102v58h266q66 0 112 -52l192 -216q34 -38 90 -38h40v-56zM1496 1060h-228q-39 0 -110 52l-270 198q-52 38 -102 38h-70v56h244q75 0 132 -44l264 -204q49 -38 100 -38h40v-58z" />
    <glyph glyph-name="uni0915" unicode="&#x915;" horiz-adv-x="1688" 
d="M1758 940h-784v-140q103 60 260 60q167 0 283.5 -107.5t116.5 -262.5t-116.5 -262.5t-283.5 -107.5q-101 0 -200 70l20 70q39 -20 60 -20q109 0 184.5 76t75.5 184q0 109 -75.5 184.5t-184.5 75.5q-72 0 -140 -40v-580q0 -32 30 -56t70 -24v-60h-460v60q40 0 70 22.5
t30 57.5v80q-122 -100 -260 -100q-165 0 -282.5 108.5t-117.5 261.5t117.5 261.5t282.5 108.5q157 0 260 -60v140h-720v100h1764v-100zM714 280v440q-68 40 -140 40q-108 0 -184 -75.5t-76 -184.5q0 -108 76 -184t184 -76q72 0 140 40z" />
    <glyph glyph-name="uni0916" unicode="&#x916;" horiz-adv-x="1794" 
d="M1864 940h-208v-800q0 -32 30 -56t70 -24v-60h-460v60q40 0 70 22.5t30 57.5v80q-83 -100 -260 -100q-72 0 -110 10q-159 -130 -390 -130q-248 0 -383 144q-94 99 -139.5 133.5t-97.5 42.5v80q42 -7 82 -7q130 0 234 75t104 192q0 103 -52 184t-138 96h-252v100h1870
v-100zM1396 760v180h-960q116 -36 188 -123.5t72 -196.5q0 -125 -90.5 -212.5t-219.5 -87.5q90 -101 190 -160.5t180 -59.5q121 0 190 60q-87 49 -138.5 136.5t-51.5 183.5q0 143 110.5 246.5t269.5 103.5q161 0 260 -70zM1396 280v400q-56 50 -140 50q-101 0 -170.5 -72.5
t-69.5 -177.5q0 -103 70.5 -176.5t169.5 -73.5q81 0 140 50z" />
    <glyph glyph-name="uni0917" unicode="&#x917;" horiz-adv-x="1406" 
d="M1476 940h-208v-800q0 -32 30 -56t70 -24v-60h-460v60q40 0 70 22.5t30 57.5v800h-570q157 -29 268.5 -122.5t111.5 -217.5q0 -167 -129.5 -283.5t-310.5 -116.5q-131 0 -235.5 66.5t-104.5 173.5t104.5 173.5t235.5 66.5q125 0 180 -80q0 139 -93 239.5t-227 100.5h-244
v100h1482v-100zM418 600q-51 0 -85.5 -48t-34.5 -112t35.5 -112t84.5 -48t84.5 46t35.5 114q0 69 -34 114.5t-86 45.5z" />
    <glyph glyph-name="uni0918" unicode="&#x918;" horiz-adv-x="1192" 
d="M1262 940h-208v-800q0 -32 30 -56t70 -24v-60h-460v60q40 0 70 22.5t30 57.5v140q-71 -85 -183 -132.5t-237 -47.5q-127 0 -223.5 73.5t-96.5 186.5q0 91 67.5 161.5t172.5 88.5q-76 14 -128 66t-52 114q0 104 120 150h-240v100h1268v-100zM794 380v560h-300
q-51 0 -85.5 -41.5t-34.5 -98.5q0 -61 41.5 -105.5t98.5 -44.5h80v-80h-80q-81 0 -140.5 -52.5t-59.5 -123.5t56.5 -122.5t133.5 -51.5q80 0 156.5 41.5t133.5 118.5z" />
    <glyph glyph-name="uni0919" unicode="&#x919;" horiz-adv-x="1298" 
d="M1368 940h-444v-220h-300q-60 0 -100 -29.5t-40 -70.5q0 -33 42.5 -56.5t97.5 -23.5h160q99 0 169.5 -63t70.5 -157q0 -133 -128.5 -226.5t-311.5 -93.5q-190 0 -347.5 135t-212.5 345l70 20q45 -166 162.5 -273t257.5 -107q102 0 176 53t74 127q0 68 -57.5 114
t-142.5 46h-120q-91 0 -155.5 47.5t-64.5 112.5q0 74 69 127t171 53h200v140h-670v100h1374v-100zM1164 474q-44 0 -77 33t-33 77q0 47 32 79.5t78 32.5q48 0 80 -32t32 -80q0 -46 -32.5 -78t-79.5 -32z" />
    <glyph glyph-name="uni091A" unicode="&#x91a;" horiz-adv-x="1260" 
d="M1330 940h-208v-800q0 -32 30 -56t70 -24v-60h-460v60q40 0 70 22.5t30 57.5v140q-71 -85 -174.5 -132.5t-215.5 -47.5q-153 0 -261.5 91.5t-108.5 218.5q0 100 80 180t200 104v6h-360v80h700v-80h-88q-120 0 -196 -76t-76 -184q0 -94 70.5 -157t169.5 -63q70 0 138.5 41
t121.5 119v560h-868v100h1336v-100z" />
    <glyph glyph-name="uni091B" unicode="&#x91b;" horiz-adv-x="1360" 
d="M1430 940h-308v-100q84 -39 132 -120t48 -180q0 -236 -201.5 -388t-468.5 -152q-240 0 -405 77t-165 223q0 81 69.5 141.5t170.5 78.5q-93 8 -156.5 60.5t-63.5 119.5q0 74 81 127t199 53q116 0 230 -66l-20 -64q-54 30 -100 30q-56 0 -93 -29t-37 -71q0 -56 42 -98
t98 -42h60v-80h-60q-67 0 -113.5 -53.5t-46.5 -126.5q0 -88 86 -144t224 -56q123 0 224.5 59t149.5 161q-137 12 -230.5 98.5t-93.5 201.5q0 75 55.5 141.5t144.5 98.5v100h-888v100h1436v-100zM1042 580q0 220 -50 220t-50 -220q0 -75 22 -130.5t58 -69.5q20 74 20 200z
" />
    <glyph glyph-name="uni091C" unicode="&#x91c;" horiz-adv-x="1380" 
d="M1450 940h-208v-800q0 -32 30 -56t70 -24v-60h-460v60q40 0 70 22.5t30 57.5v500h-300v-6q200 -80 200 -284q0 -121 -103.5 -205.5t-246.5 -84.5q-201 0 -345.5 187.5t-144.5 452.5h60q18 -199 118.5 -334.5t231.5 -135.5q73 0 121.5 58t48.5 142q0 86 -60.5 148
t-145.5 62h-54v80h620v220h-988v100h1456v-100z" />
    <glyph glyph-name="uni091D" unicode="&#x91d;" horiz-adv-x="1386" 
d="M1456 940h-208v-800q0 -32 30 -56t70 -24v-60h-460v60q40 0 70 22.5t30 57.5v240h-144q0 -119 -86.5 -188.5t-237.5 -69.5h-88q36 -42 100.5 -80t107.5 -38q44 0 96 28l30 -40q-119 -108 -240 -108q-134 0 -256 126q-107 112 -149.5 153t-82.5 47v60h286q20 -37 58 -88
q84 0 145 40.5t61 107.5q0 60 -45 95t-115 35h-160q-78 0 -139 52.5t-61 127.5q0 76 59 125t141 49h220v126h-494v100h1462v-100zM988 460v480h-240v-208h-260q-69 0 -114.5 -28.5t-45.5 -79.5q0 -43 36 -68.5t88 -25.5q31 0 90 5q60 5 86 5q154 0 200 -80h160z" />
    <glyph glyph-name="uni091E" unicode="&#x91e;" horiz-adv-x="1204" 
d="M1274 940h-208v-800q0 -32 30 -56t70 -24v-60h-460v60q40 0 70 22.5t30 57.5v320h-180q-22 -121 -118.5 -200.5t-221.5 -79.5q-74 0 -144 32t-116 88l30 40q68 -40 110 -40q81 0 140.5 58.5t59.5 141.5q0 84 -58 142t-142 58q-62 0 -110 -40l-30 40q100 120 260 120
q127 0 222.5 -78.5t117.5 -201.5h180v400h-812v100h1280v-100z" />
    <glyph glyph-name="uni091F" unicode="&#x91f;" horiz-adv-x="946" 
d="M1016 940h-182v-220h-220q-125 0 -212.5 -87.5t-87.5 -212.5t87.5 -212.5t212.5 -87.5q150 0 280 60l30 -50q-161 -130 -370 -130q-207 0 -353.5 117.5t-146.5 282.5t128.5 282.5t311.5 117.5h80v140h-580v100h1022v-100z" />
    <glyph glyph-name="uni0920" unicode="&#x920;" horiz-adv-x="1104" 
d="M1174 940h-262v-180h-160q131 -36 215.5 -135t84.5 -225q0 -165 -146.5 -282.5t-353.5 -117.5t-353.5 117.5t-146.5 282.5q0 167 145.5 283.5t354.5 116.5h100v140h-658v100h1180v-100zM552 720q-106 0 -173 -97t-67 -223t67 -223t173 -97t173 97t67 223t-67 223t-173 97
z" />
    <glyph glyph-name="uni0921" unicode="&#x921;" horiz-adv-x="1072" 
d="M1142 940h-218v-220h-320q-51 0 -85.5 -29.5t-34.5 -70.5q0 -33 42.5 -56.5t97.5 -23.5h160q99 0 169.5 -63t70.5 -157q0 -142 -138 -231t-312 -89q-186 0 -340 132t-210 338l70 30q45 -166 164.5 -273t265.5 -107q98 0 169 53t71 127q0 68 -57.5 114t-142.5 46h-120
q-91 0 -155.5 53.5t-64.5 126.5q0 67 80.5 113.5t199.5 46.5h160v140h-670v100h1148v-100z" />
    <glyph glyph-name="uni0922" unicode="&#x922;" horiz-adv-x="1216" 
d="M1286 940h-274v-220h-280q-189 0 -304.5 -90.5t-115.5 -239.5q0 -156 124 -243t316 -87q-81 38 -130.5 107t-49.5 143q0 113 87.5 191.5t212.5 78.5q123 0 211.5 -81t88.5 -199q0 -125 -110.5 -212.5t-301.5 -87.5h-108q-271 0 -435.5 109.5t-164.5 290.5
q0 182 154.5 291t415.5 109h130v140h-758v100h1292v-100zM872 494q-26 0 -45 -59t-19 -135q0 -75 19.5 -134.5t44.5 -59.5t44.5 59.5t19.5 134.5t-19 134.5t-45 59.5z" />
    <glyph glyph-name="uni0923" unicode="&#x923;" horiz-adv-x="1462" 
d="M1532 940h-208v-800q0 -32 30 -56t70 -24v-60h-460v60q40 0 70 22.5t30 57.5v800h-240v-440q0 -144 -109.5 -242t-260.5 -98t-260.5 98t-109.5 242v440h-90v100h1538v-100zM564 400v540h-220v-540q0 -65 32 -112.5t78 -47.5t78 47.5t32 112.5z" />
    <glyph glyph-name="uni0924" unicode="&#x924;" horiz-adv-x="1236" 
d="M1306 940h-208v-800q0 -32 30 -56t70 -24v-60h-460v60q40 0 70 22.5t30 57.5v500q-97 80 -240 80q-113 0 -191.5 -79.5t-78.5 -190.5q0 -88 46 -176t124 -154l-240 -120q-200 167 -200 390q0 173 140.5 296.5t339.5 123.5q188 0 300 -80v210h-844v100h1312v-100z" />
    <glyph glyph-name="uni0925" unicode="&#x925;" horiz-adv-x="1318" 
d="M1388 940h-208v-800q0 -32 30 -56t70 -24v-60h-460v60q40 0 70 22.5t30 57.5v160q-150 -210 -440 -210q-180 0 -310 136t-130 324q59 -30 170 -30q180 0 250 60q-133 0 -236.5 73t-103.5 187q0 107 104.5 173.5t235.5 66.5t235.5 -66.5t104.5 -173.5q0 -158 -147 -269
t-353 -111q0 -92 91.5 -156t218.5 -64q110 0 197.5 54t112.5 146v500h-80v100h548v-100zM540 840q0 69 -22.5 114.5t-57.5 45.5q-34 0 -57 -48.5t-23 -111.5q0 -71 23.5 -125.5t56.5 -54.5h40q40 68 40 180z" />
    <glyph glyph-name="uni0926" unicode="&#x926;" horiz-adv-x="1004" 
d="M1074 940h-184v-220h-280q-125 0 -212.5 -80.5t-87.5 -195.5q0 -116 88.5 -195t211.5 -79q63 0 100 20q6 34 6 66q0 63 -26 134h260q0 -184 -82.5 -327.5t-217.5 -192.5l-42 60q67 51 102 180q-108 -40 -220 -40q-180 0 -310 108t-130 256q0 151 128.5 258.5t311.5 107.5
h140v140h-636v100h1080v-100z" />
    <glyph glyph-name="uni0927" unicode="&#x927;" horiz-adv-x="1320" 
d="M1390 940h-208v-800q0 -32 30 -56t70 -24v-60h-460v60q40 0 70 22.5t30 57.5v220q-76 -130 -200 -205t-260 -75q-180 0 -290 79.5t-110 210.5q0 89 71.5 159.5t178.5 90.5q-91 16 -150.5 84.5t-59.5 155.5q0 115 97.5 197.5t232.5 82.5q129 0 219.5 -69.5t90.5 -170.5
q0 -59 -41.5 -99.5t-98.5 -40.5t-98.5 38.5t-41.5 91.5q0 48 34.5 84t85.5 46q-22 20 -80 20q-67 0 -113.5 -53.5t-46.5 -126.5q0 -80 48 -140t112 -60h60v-80h-60q-75 0 -127.5 -59.5t-52.5 -140.5q0 -72 60 -126t140 -54q132 0 241 82.5t159 217.5v440h-60v100h528v-100z
" />
    <glyph glyph-name="uni0928" unicode="&#x928;" horiz-adv-x="1370" 
d="M1440 940h-208v-800q0 -32 30 -56t70 -24v-60h-460v60q40 0 70 22.5t30 57.5v380q-86 70 -310 110q72 -41 111 -107.5t39 -142.5q0 -141 -110.5 -240.5t-269.5 -99.5q-157 0 -268.5 100.5t-111.5 239.5q0 149 110.5 254.5t269.5 105.5q316 0 540 -130v330h-978v100h1446
v-100zM432 660q-65 0 -112.5 -77t-47.5 -183q0 -115 47.5 -197.5t112.5 -82.5q67 0 113.5 80.5t46.5 199.5q0 110 -46.5 185t-113.5 75z" />
    <glyph glyph-name="uni0929" unicode="&#x929;" horiz-adv-x="1370" 
d="M1440 940h-208v-800q0 -32 30 -56t70 -24v-60h-460v60q40 0 70 22.5t30 57.5v380q-89 77 -280 110q120 -68 120 -210q0 -125 -110.5 -212.5t-269.5 -87.5q-157 0 -268.5 88.5t-111.5 211.5q0 131 111.5 225.5t268.5 94.5q292 0 540 -140v340h-978v100h1446v-100zM432 660
q-66 0 -113 -65t-47 -155q0 -99 47.5 -169.5t112.5 -70.5q66 0 113 69t47 171q0 94 -46.5 157t-113.5 63zM430 -188q-48 0 -84 36t-36 84q0 49 34.5 84.5t85.5 35.5q52 0 86 -34t34 -86q0 -51 -35.5 -85.5t-84.5 -34.5z" />
    <glyph glyph-name="uni092A" unicode="&#x92a;" horiz-adv-x="1204" 
d="M1274 940h-208v-800q0 -32 30 -56t70 -24v-60h-460v60q40 0 70 22.5t30 57.5v180q-49 -85 -145.5 -132.5t-214.5 -47.5q-148 0 -254 106t-106 254v440h-92v100h1280v-100zM806 500v440h-460v-440q0 -91 67.5 -155.5t162.5 -64.5q97 0 163.5 63.5t66.5 156.5z" />
    <glyph glyph-name="uni092B" unicode="&#x92b;" horiz-adv-x="1482" 
d="M1552 940h-722v-200q92 80 240 80q151 0 255.5 -99.5t104.5 -240.5q0 -151 -105.5 -255.5t-254.5 -104.5q-110 0 -180 60v80q36 -20 70 -20q97 0 163.5 63.5t66.5 156.5q0 101 -66.5 170.5t-163.5 69.5q-83 0 -130 -40v-520q0 -32 30 -56t70 -24v-60h-460v60
q40 0 70 22.5t30 57.5v90q-69 -60 -190 -60q-119 0 -204.5 82.5t-85.5 197.5v490h-96v100h1558v-100zM570 382v558h-220v-558q0 -58 32 -90t78 -32t78 32t32 90z" />
    <glyph glyph-name="uni092C" unicode="&#x92c;" horiz-adv-x="1150" 
d="M1220 940h-208v-800q0 -32 30 -56t70 -24v-60h-460v60q40 0 70 22.5t30 57.5v100q-48 -58 -128.5 -89t-171.5 -31q-164 0 -282 106t-118 254q0 149 116.5 254.5t283.5 105.5q178 0 300 -100v200h-758v100h1226v-100zM752 380v260q-79 80 -180 80q-111 0 -160 -40z
M712 300l-360 320q-40 -54 -40 -140q0 -103 76.5 -171.5t183.5 -68.5q80 0 140 60z" />
    <glyph glyph-name="uni092D" unicode="&#x92d;" horiz-adv-x="1290" 
d="M1360 940h-208v-800q0 -32 30 -56t70 -24v-60h-460v60q40 0 70 22.5t30 57.5v260h-240v-140q0 -103 -76.5 -171.5t-183.5 -68.5q-133 0 -211.5 68t-78.5 172q0 106 67 173t171 67h52v60h-40q-132 0 -216 69t-84 173q0 99 86 168.5t214 69.5q120 0 210 -67.5t90 -172.5
v-300h240v440h-100v100h568v-100zM392 620v180q0 71 -14.5 115.5t-35.5 44.5q-20 0 -35 -49.5t-15 -110.5q0 -73 18 -126.5t50 -53.5h32zM392 260v140h-42q-37 0 -62.5 -41.5t-25.5 -98.5q0 -140 72 -140q27 0 42.5 45.5t15.5 94.5z" />
    <glyph glyph-name="uni092E" unicode="&#x92e;" horiz-adv-x="1280" 
d="M1350 940h-208v-800q0 -32 30 -56t70 -24v-60h-460v60q40 0 70 22.5t30 57.5v300h-200v-180q0 -113 -96.5 -186.5t-223.5 -73.5q-132 0 -226 76t-94 196q0 114 90.5 191t229.5 77h60v400h-428v100h1356v-100zM882 540v400h-200v-400h200zM422 260v180h-38q-82 0 -82 -180
t60 -180t60 180z" />
    <glyph glyph-name="uni092F" unicode="&#x92f;" horiz-adv-x="1234" 
d="M1304 940h-208v-800q0 -32 30 -56t70 -24v-60h-460v60q40 0 70 22.5t30 57.5v170q-71 -85 -166.5 -132.5t-193.5 -47.5q-180 0 -310 150t-130 360q54 -20 170 -20q84 0 147 47t63 113q0 67 -61 113.5t-149 46.5h-212v100h1310v-100zM836 430v510h-320q160 -58 160 -160
q0 -93 -110.5 -156.5t-269.5 -63.5q0 -127 73.5 -223.5t186.5 -96.5q94 0 170.5 51t109.5 139z" />
    <glyph glyph-name="uni0930" unicode="&#x930;" horiz-adv-x="834" 
d="M903 940h-511v-10q154 -14 257 -102.5t103 -207.5q0 -112 -97 -203t-243 -117q150 -150 210 -150q73 0 130 70l40 -50q-55 -79 -130.5 -124.5t-149.5 -45.5q-100 0 -240 140q-200 200 -260 200l20 60q61 -20 180 -20q115 0 197.5 75t82.5 185q0 128 -101.5 214t-238.5 86
h-158v100h909v-100z" />
    <glyph glyph-name="uni0931" unicode="&#x931;" horiz-adv-x="834" 
d="M903 940h-511v-10q154 -14 257 -102.5t103 -207.5q0 -112 -97 -203t-243 -117q150 -150 210 -150q73 0 130 70l40 -50q-55 -79 -130.5 -124.5t-149.5 -45.5q-100 0 -240 140q-200 200 -260 200l20 60q61 -20 180 -20q115 0 197.5 75t82.5 185q0 128 -101.5 214t-238.5 86
h-158v100h909v-100zM201 -195q-45 0 -77.5 33.5t-32.5 78.5q0 46 32 78t78 32q49 0 80.5 -31t31.5 -79q0 -46 -32.5 -79t-79.5 -33z" />
    <glyph glyph-name="uni0932" unicode="&#x932;" horiz-adv-x="1378" 
d="M1448 940h-208v-800q0 -32 30 -56t70 -24v-60h-460v60q40 0 70 22.5t30 57.5v560q-86 0 -143 -73t-57 -167h-60q0 101 -58.5 170.5t-141.5 69.5q-86 0 -143 -78.5t-57 -201.5q0 -122 64.5 -209t165.5 -87q76 0 150 66l40 -50q-57 -66 -136.5 -103t-163.5 -37
q-156 0 -268 124t-112 296q0 165 110.5 282.5t269.5 117.5q102 0 183.5 -45.5t126.5 -144.5l10 2q67 148 220 148v160h-986v100h1454v-100z" />
    <glyph glyph-name="uni0933" unicode="&#x933;" horiz-adv-x="1360" 
d="M1430 940h-370v-170q111 -41 175.5 -142t64.5 -228q0 -165 -108.5 -282.5t-261.5 -117.5q-140 0 -256 96q-116 -96 -244 -96q-153 0 -261.5 117.5t-108.5 282.5q0 167 107.5 283.5t262.5 116.5q141 0 244 -102q68 60 126 72v170h-806v100h1436v-100zM722 152
q62 -42 122 -42q84 0 136 82t52 212q0 288 -110 288q-54 0 -86 -75t-32 -201q0 -165 -82 -264zM620 644q-54 44 -102 44q-90 0 -145 -85.5t-55 -210.5q0 -290 114 -290q48 0 76 73.5t28 194.5q0 155 84 274z" />
    <glyph glyph-name="uni0934" unicode="&#x934;" horiz-adv-x="1360" 
d="M1430 940h-370v-170q111 -41 175.5 -142t64.5 -228q0 -165 -108.5 -282.5t-261.5 -117.5q-140 0 -256 96q-116 -96 -244 -96q-153 0 -261.5 117.5t-108.5 282.5q0 167 107.5 283.5t262.5 116.5q141 0 244 -102q68 60 126 72v170h-806v100h1436v-100zM722 152
q62 -42 122 -42q84 0 136 82t52 212q0 288 -110 288q-54 0 -86 -75t-32 -201q0 -165 -82 -264zM620 644q-54 44 -102 44q-90 0 -145 -85.5t-55 -210.5q0 -290 114 -290q48 0 76 73.5t28 194.5q0 155 84 274zM677 -256q-45 0 -77.5 33.5t-32.5 78.5q0 46 32 78t78 32
q49 0 80.5 -31t31.5 -79q0 -46 -32.5 -79t-79.5 -33z" />
    <glyph glyph-name="uni0935" unicode="&#x935;" horiz-adv-x="1150" 
d="M1220 940h-208v-800q0 -32 30 -56t70 -24v-60h-460v60q40 0 70 22.5t30 57.5v100q-48 -58 -128.5 -89t-171.5 -31q-164 0 -282 106t-118 254q0 149 116.5 254.5t283.5 105.5q201 0 300 -120v220h-758v100h1226v-100zM752 320v320q-79 80 -180 80q-107 0 -183.5 -68.5
t-76.5 -171.5t76.5 -171.5t183.5 -68.5q98 0 180 80z" />
    <glyph glyph-name="uni0936" unicode="&#x936;" horiz-adv-x="1490" 
d="M372 220h-10q91 -113 156.5 -164.5t137.5 -51.5q59 0 118 34l26 -56q-160 -88 -288 -88q-150 0 -254 140q-139 188 -206 206v60h300q48 -40 114 -40q73 0 119.5 59.5t46.5 140.5q-63 -40 -146 -40q-183 0 -298.5 84.5t-115.5 235.5q0 145 116 232.5t314 87.5t314 -130
t116 -350q0 -175 -117.5 -297.5t-282.5 -122.5q-92 0 -160 60zM502 1000q-76 0 -123 -80.5t-47 -179.5q0 -93 47 -166.5t123 -73.5t123 73.5t47 166.5q0 99 -47 179.5t-123 80.5zM1560 940h-208v-800q0 -32 30 -56t70 -24v-60h-460v60q40 0 70 22.5t30 57.5v800h-120v100
h588v-100z" />
    <glyph glyph-name="uni0937" unicode="&#x937;" horiz-adv-x="1204" 
d="M1274 940h-208v-800q0 -32 30 -56t70 -24v-60h-460v60q40 0 70 22.5t30 57.5v170q-119 -170 -330 -170q-161 0 -275.5 105.5t-114.5 254.5v440h-92v100h1280v-100zM806 540v400h-460zM806 420l-460 400v-360q0 -89 63 -144.5t157 -55.5q67 0 132.5 43t107.5 117z" />
    <glyph glyph-name="uni0938" unicode="&#x938;" horiz-adv-x="1450" 
d="M1520 940h-208v-800q0 -32 30 -56t70 -24v-60h-460v60q40 0 70 22.5t30 57.5v270q-56 -32 -120 -32q-84 0 -160 42l20 100q60 -34 140 -34q61 0 120 34v420h-618q149 -38 233.5 -121.5t84.5 -198.5q0 -120 -96 -202t-258 -106q55 -66 115.5 -114t98.5 -48q79 0 120 50
l60 -40q-136 -160 -280 -160q-134 0 -270 160q-119 141 -230 180l22 68q77 -26 168 -26q129 0 209.5 72.5t80.5 191.5q0 128 -96 211t-232 83h-170v100h1526v-100z" />
    <glyph glyph-name="uni0939" unicode="&#x939;" horiz-adv-x="1008" 
d="M1078 940h-228v-180h-300q-41 0 -70.5 -18t-29.5 -42q0 -32 30 -56t70 -24h70q139 0 234.5 -72t95.5 -178q0 -103 -88.5 -176.5t-211.5 -73.5q-107 0 -180 50l32 54q30 -18 60 -18q53 0 90.5 48t37.5 118q0 72 -46 120t-114 48q-94 0 -157 -70.5t-63 -169.5
q0 -134 100.5 -227t239.5 -93q189 0 320 60l-60 -140h-380q-216 0 -348 100t-132 264q0 109 79 195.5t201 120.5q-59 10 -99.5 47.5t-40.5 82.5q0 54 59.5 92t140.5 38h200v100h-596v100h1084v-100z" />
    <glyph glyph-name="uni093C" unicode="&#x93c;" horiz-adv-x="0" 
d="M-924 -136q-45 0 -77.5 33.5t-32.5 78.5q0 46 32 78t78 32q49 0 80.5 -31t31.5 -79q0 -46 -32.5 -79t-79.5 -33z" />
    <glyph glyph-name="uni093D" unicode="&#x93d;" horiz-adv-x="878" 
d="M32 314h260q0 -107 41 -186.5t99 -79.5t99 76.5t41 189.5q0 139 -230 286t-230 284q0 61 46.5 106.5t113.5 45.5h460v-76h-280q-33 0 -56.5 -22.5t-23.5 -53.5q0 -137 230 -284t230 -286q0 -141 -116.5 -240.5t-283.5 -99.5q-165 0 -282.5 100.5t-117.5 239.5z" />
    <glyph glyph-name="uni093E" unicode="&#x93e;" horiz-adv-x="536" 
d="M606 940h-208v-778q0 -102 100 -102v-60h-460v60q100 0 100 102v778h-144v100h612v-100z" />
    <glyph glyph-name="uni093F" unicode="&#x93f;" horiz-adv-x="536" 
d="M606 940h-208v-778q0 -102 100 -102v-60h-460v60q100 0 100 102v778h-144v100h612v-100zM1346 1060h-260q-59 164 -190 262t-290 98q-111 0 -190.5 -64.5t-79.5 -155.5q0 -70 60 -140h-260q-60 70 -60 140q0 138 170 219t370 81q258 0 457.5 -120t272.5 -320z" />
    <glyph glyph-name="uni0940" unicode="&#x940;" horiz-adv-x="536" 
d="M606 940h-208v-778q0 -102 100 -102v-60h-460v60q100 0 100 102v778h-144v100h612v-100zM398 1060h-260q0 131 -75.5 235.5t-184.5 104.5q-67 0 -113.5 -41.5t-46.5 -98.5q0 -130 80 -200h-260q-80 99 -80 180q0 108 105.5 184t254.5 76q242 0 411 -134.5t169 -305.5z
" />
    <glyph glyph-name="uni0941" unicode="&#x941;" horiz-adv-x="0" 
d="M-1008 -220h260q0 -81 94.5 -140.5t225.5 -59.5q107 0 193.5 52.5t86.5 137.5q0 52 -34 86t-86 34q-33 0 -56.5 -18.5t-23.5 -41.5h-260q0 58 98 99t242 41q161 0 270.5 -58.5t109.5 -141.5q0 -112 -136 -191t-324 -79q-261 0 -449.5 79.5t-210.5 200.5z" />
    <glyph glyph-name="uni0942" unicode="&#x942;" horiz-adv-x="0" 
d="M412 -450h-260q0 141 -122.5 240.5t-297.5 99.5q-102 0 -171 -53t-69 -127q0 -53 35.5 -91.5t84.5 -38.5q35 0 57.5 17.5t22.5 42.5h260q-23 -68 -120.5 -104t-219.5 -36q-157 0 -268.5 62.5t-111.5 147.5q0 120 157.5 190t342.5 70q265 0 456 -118t224 -302z" />
    <glyph glyph-name="uni0943" unicode="&#x943;" horiz-adv-x="0" 
d="M-138 -500h-260q-165 0 -282.5 70t-117.5 170t117.5 170t282.5 70h260v-80h-200q-84 0 -142 -47.5t-58 -112.5q0 -64 60 -112t140 -48h200v-80z" />
    <glyph glyph-name="uni0944" unicode="&#x944;" horiz-adv-x="0" 
d="M-98 -500h-280q-127 0 -218.5 44.5t-91.5 105.5q0 82 140 130q-57 9 -98.5 38.5t-41.5 61.5q0 70 103.5 120t246.5 50h180v-90h-140q-69 0 -114.5 -21t-45.5 -49q0 -33 26.5 -56.5t63.5 -23.5h140v-60h-100q-56 0 -93 -29t-37 -71q0 -24 35.5 -42t84.5 -18h240v-90z" />
    <glyph glyph-name="uni0945" unicode="&#x945;" horiz-adv-x="0" 
d="M192 1460q0 -141 -134.5 -240.5t-325.5 -99.5q-189 0 -324.5 100t-135.5 240h260q0 -115 59.5 -197.5t140.5 -82.5q82 0 141 81t59 199h260z" />
    <glyph glyph-name="uni0946" unicode="&#x946;" horiz-adv-x="0" 
d="M-148 1060h-240q0 71 -100 120.5t-270 49.5q-133 0 -236.5 79t-103.5 191h260q0 -100 83.5 -163t196.5 -63q161 0 285.5 -61.5t124.5 -152.5z" />
    <glyph glyph-name="uni0947" unicode="&#x947;" horiz-adv-x="0" 
d="M-158 1060h-240q-56 0 -120 60l-280 260q-43 40 -140 40h-80v80h280q73 0 140 -60l290 -260q67 -60 110 -60h40v-60z" />
    <glyph glyph-name="uni0948" unicode="&#x948;" horiz-adv-x="0" 
d="M-88 1138h-202q-56 0 -102 50l-188 204q-46 50 -106 50h-102v58h266q66 0 112 -52l192 -216q34 -38 90 -38h40v-56zM-368 1060h-228q-39 0 -110 52l-270 198q-52 38 -102 38h-70v56h244q75 0 132 -44l264 -204q49 -38 100 -38h40v-58z" />
    <glyph glyph-name="uni0949" unicode="&#x949;" horiz-adv-x="536" 
d="M606 940h-208v-778q0 -102 100 -102v-60h-460v60q100 0 100 102v778h-144v100h612v-100zM438 1460q0 -141 -134.5 -240.5t-325.5 -99.5q-189 0 -324.5 100t-135.5 240h260q0 -115 59.5 -197.5t140.5 -82.5q82 0 141 81t59 199h260z" />
    <glyph glyph-name="uni094A" unicode="&#x94a;" horiz-adv-x="536" 
d="M606 940h-208v-778q0 -102 100 -102v-60h-460v60q100 0 100 102v778h-144v100h612v-100zM382 1060h-240q0 71 -100 120.5t-270 49.5q-133 0 -236.5 79t-103.5 191h260q0 -100 83.5 -163t196.5 -63q161 0 285.5 -61.5t124.5 -152.5z" />
    <glyph glyph-name="uni094B" unicode="&#x94b;" horiz-adv-x="536" 
d="M606 940h-208v-778q0 -102 100 -102v-60h-460v60q100 0 100 102v778h-144v100h612v-100zM408 1060h-240q-56 0 -120 60l-280 260q-43 40 -140 40h-80v80h280q73 0 140 -60l290 -260q67 -60 110 -60h40v-60z" />
    <glyph glyph-name="uni094C" unicode="&#x94c;" horiz-adv-x="536" 
d="M606 940h-208v-778q0 -102 100 -102v-60h-460v60q100 0 100 102v778h-144v100h612v-100zM568 1138h-202q-56 0 -102 50l-188 204q-46 50 -106 50h-102v58h266q66 0 112 -52l192 -216q34 -38 90 -38h40v-56zM288 1060h-228q-39 0 -110 52l-270 198q-52 38 -102 38h-70v56
h244q75 0 132 -44l264 -204q49 -38 100 -38h40v-58z" />
    <glyph glyph-name="uni094D" unicode="&#x94d;" horiz-adv-x="0" 
d="M262 -430h-260l-310 310l-50 -70h-160l120 160h260z" />
    <glyph glyph-name="uni0950" unicode="&#x950;" horiz-adv-x="1680" 
d="M926 1260q-45 0 -77.5 35.5t-32.5 84.5q0 51 31.5 85.5t78.5 34.5t78.5 -34.5t31.5 -85.5q0 -49 -32.5 -84.5t-77.5 -35.5zM1346 1320q0 -125 -122.5 -212.5t-297.5 -87.5q-173 0 -296.5 88t-123.5 212h260q0 -91 47.5 -155.5t112.5 -64.5q66 0 113 63t47 157h260z
M26 400l60 20q22 -125 115 -207.5t215 -82.5q69 0 119.5 59.5t50.5 140.5q0 84 -52 142t-128 58h-80v60h80q57 0 98.5 46.5t41.5 113.5q0 68 -46 114t-114 46q-102 0 -160 -70l-40 40q83 140 300 140q126 0 223 -67t97 -173q0 -81 -52.5 -142.5t-127.5 -67.5v-10
q99 -8 164.5 -82.5t65.5 -177.5q0 -125 -116.5 -212.5t-283.5 -87.5q-155 0 -277.5 113.5t-152.5 286.5zM1026 180l20 50q40 -40 140 -40q73 0 126.5 62.5t53.5 151.5q0 92 -52 154t-128 62q-119 0 -202 -62q-66 -50 -133 -50q-13 0 -25 2v80q116 0 210 106q92 104 260 104
q138 0 234 -102t96 -248q0 -145 -97.5 -247.5t-232.5 -102.5q-169 0 -270 80z" />
    <glyph glyph-name="uni0951" unicode="&#x951;" horiz-adv-x="0" 
d="M-188 1170h-160v320h160v-320z" />
    <glyph glyph-name="uni0952" unicode="&#x952;" horiz-adv-x="0" 
d="M-158 -140h-838v120h838v-120z" />
    <glyph glyph-name="uni0953" unicode="&#x953;" horiz-adv-x="0" 
d="M-38 1024h-58l-230 422h194z" />
    <glyph glyph-name="uni0954" unicode="&#x954;" horiz-adv-x="0" 
d="M-38 1446l-230 -422h-58l94 422h194z" />
    <glyph glyph-name="uni0958" unicode="&#x958;" horiz-adv-x="1688" 
d="M1758 940h-784v-140q103 60 260 60q167 0 283.5 -107.5t116.5 -262.5t-116.5 -262.5t-283.5 -107.5q-101 0 -200 70l20 70q39 -20 60 -20q109 0 184.5 76t75.5 184q0 109 -75.5 184.5t-184.5 75.5q-72 0 -140 -40v-580q0 -32 30 -56t70 -24v-60h-460v60q40 0 70 22.5
t30 57.5v80q-122 -100 -260 -100q-165 0 -282.5 108.5t-117.5 261.5t117.5 261.5t282.5 108.5q157 0 260 -60v140h-720v100h1764v-100zM714 280v440q-68 40 -140 40q-108 0 -184 -75.5t-76 -184.5q0 -108 76 -184t184 -76q72 0 140 40zM452 -310q-45 0 -77.5 33.5
t-32.5 78.5q0 47 32 78.5t78 31.5q48 0 79 -31t31 -79q0 -47 -32 -79.5t-78 -32.5z" />
    <glyph glyph-name="uni0959" unicode="&#x959;" horiz-adv-x="1794" 
d="M1864 940h-208v-800q0 -32 30 -56t70 -24v-60h-460v60q40 0 70 22.5t30 57.5v80q-83 -100 -260 -100q-72 0 -110 10q-159 -130 -390 -130q-248 0 -383 144q-94 99 -139.5 133.5t-97.5 42.5v80q42 -7 82 -7q130 0 234 75t104 192q0 103 -52 184t-138 96h-252v100h1870
v-100zM1396 760v180h-960q116 -36 188 -123.5t72 -196.5q0 -125 -90.5 -212.5t-219.5 -87.5q90 -101 190 -160.5t180 -59.5q121 0 190 60q-87 49 -138.5 136.5t-51.5 183.5q0 143 110.5 246.5t269.5 103.5q161 0 260 -70zM1396 280v400q-56 50 -140 50q-101 0 -170.5 -72.5
t-69.5 -177.5q0 -103 70.5 -176.5t169.5 -73.5q81 0 140 50zM151 -171q-45 0 -77.5 33.5t-32.5 78.5q0 46 32 78t78 32q49 0 80.5 -31t31.5 -79q0 -46 -32.5 -79t-79.5 -33z" />
    <glyph glyph-name="uni095A" unicode="&#x95a;" horiz-adv-x="1406" 
d="M1476 940h-208v-800q0 -32 30 -56t70 -24v-60h-460v60q40 0 70 22.5t30 57.5v800h-570q157 -29 268.5 -122.5t111.5 -217.5q0 -167 -129.5 -283.5t-310.5 -116.5q-131 0 -235.5 66.5t-104.5 173.5t104.5 173.5t235.5 66.5q125 0 180 -80q0 139 -93 239.5t-227 100.5h-244
v100h1482v-100zM418 600q-51 0 -85.5 -48t-34.5 -112t35.5 -112t84.5 -48t84.5 46t35.5 114q0 69 -34 114.5t-86 45.5zM532 -240q-45 0 -77.5 33.5t-32.5 78.5q0 47 32 78.5t78 31.5q48 0 79 -31t31 -79q0 -47 -32 -79.5t-78 -32.5z" />
    <glyph glyph-name="uni095B" unicode="&#x95b;" horiz-adv-x="1380" 
d="M1450 940h-208v-800q0 -32 30 -56t70 -24v-60h-460v60q40 0 70 22.5t30 57.5v500h-300v-6q200 -80 200 -284q0 -121 -103.5 -205.5t-246.5 -84.5q-201 0 -345.5 187.5t-144.5 452.5h60q18 -199 118.5 -334.5t231.5 -135.5q73 0 121.5 58t48.5 142q0 86 -60.5 148
t-145.5 62h-54v80h620v220h-988v100h1456v-100zM503 -283q-45 0 -77.5 33.5t-32.5 78.5q0 47 32 78.5t78 31.5q48 0 79 -31t31 -79q0 -47 -32 -79.5t-78 -32.5z" />
    <glyph glyph-name="uni095C" unicode="&#x95c;" horiz-adv-x="1072" 
d="M1142 940h-218v-220h-320q-51 0 -85.5 -29.5t-34.5 -70.5q0 -33 42.5 -56.5t97.5 -23.5h160q99 0 169.5 -63t70.5 -157q0 -142 -138 -231t-312 -89q-186 0 -340 132t-210 338l70 30q45 -166 164.5 -273t265.5 -107q98 0 169 53t71 127q0 68 -57.5 114t-142.5 46h-120
q-91 0 -155.5 53.5t-64.5 126.5q0 67 80.5 113.5t199.5 46.5h160v140h-670v100h1148v-100zM566 -311q-45 0 -77.5 33.5t-32.5 78.5q0 47 32 78.5t78 31.5q48 0 79 -31t31 -79q0 -47 -32 -79.5t-78 -32.5z" />
    <glyph glyph-name="uni095D" unicode="&#x95d;" horiz-adv-x="1216" 
d="M1286 940h-274v-220h-280q-189 0 -304.5 -90.5t-115.5 -239.5q0 -156 124 -243t316 -87q-81 38 -130.5 107t-49.5 143q0 113 87.5 191.5t212.5 78.5q123 0 211.5 -81t88.5 -199q0 -125 -110.5 -212.5t-301.5 -87.5h-108q-271 0 -435.5 109.5t-164.5 290.5
q0 182 154.5 291t415.5 109h130v140h-758v100h1292v-100zM872 494q-26 0 -45 -59t-19 -135q0 -75 19.5 -134.5t44.5 -59.5t44.5 59.5t19.5 134.5t-19 134.5t-45 59.5zM701 -304q-45 0 -77.5 33.5t-32.5 78.5q0 47 32 78.5t78 31.5q48 0 79 -31t31 -79q0 -47 -32 -79.5
t-78 -32.5z" />
    <glyph glyph-name="uni095E" unicode="&#x95e;" horiz-adv-x="1482" 
d="M1552 940h-722v-200q92 80 240 80q151 0 255.5 -99.5t104.5 -240.5q0 -151 -105.5 -255.5t-254.5 -104.5q-110 0 -180 60v80q36 -20 70 -20q97 0 163.5 63.5t66.5 156.5q0 101 -66.5 170.5t-163.5 69.5q-83 0 -130 -40v-520q0 -32 30 -56t70 -24v-60h-460v60
q40 0 70 22.5t30 57.5v90q-69 -60 -190 -60q-119 0 -204.5 82.5t-85.5 197.5v490h-96v100h1558v-100zM570 382v558h-220v-558q0 -58 32 -90t78 -32t78 32t32 90zM382 -310q-45 0 -77.5 33.5t-32.5 78.5q0 47 32 78.5t78 31.5q48 0 79 -31t31 -79q0 -47 -32 -79.5t-78 -32.5z
" />
    <glyph glyph-name="uni095F" unicode="&#x95f;" horiz-adv-x="1234" 
d="M1304 940h-208v-800q0 -32 30 -56t70 -24v-60h-460v60q40 0 70 22.5t30 57.5v170q-71 -85 -166.5 -132.5t-193.5 -47.5q-180 0 -310 150t-130 360q54 -20 170 -20q84 0 147 47t63 113q0 67 -61 113.5t-149 46.5h-212v100h1310v-100zM836 430v510h-320q160 -58 160 -160
q0 -93 -110.5 -156.5t-269.5 -63.5q0 -127 73.5 -223.5t186.5 -96.5q94 0 170.5 51t109.5 139zM333 -178q-45 0 -77.5 33.5t-32.5 78.5q0 47 32 78.5t78 31.5q48 0 79 -31t31 -79q0 -47 -32 -79.5t-78 -32.5z" />
    <glyph glyph-name="uni0960" unicode="&#x960;" horiz-adv-x="1542" 
d="M1612 940h-720v-430l260 140q0 63 44 106.5t106 43.5q48 0 79 -20.5t31 -49.5q0 -68 -90 -120q0 -53 29.5 -91.5t70.5 -38.5l10 -60q-63 0 -106.5 -52.5t-43.5 -127.5q0 -80 44 -138t104 -58t92 16l10 -80q-82 -26 -142 -26q-135 0 -231.5 75.5t-96.5 180.5
q0 79 60.5 146.5t159.5 93.5q-78 34 -100 110l-290 -140v-280q0 -40 30 -70t70 -30v-40h-420v40q41 0 70.5 28.5t29.5 71.5v200l-580 -290l-40 80l410 210l-70 200q-18 50 -72.5 120t-117.5 70q-81 0 -140 -50l-40 50q105 90 240 90q141 0 253 -108t157 -272v500h-678v100
h1618v-100z" />
    <glyph glyph-name="uni0961" unicode="&#x961;" horiz-adv-x="1468" 
d="M1538 940h-384v-130q116 -30 188 -127.5t72 -222.5q0 -141 -99.5 -240.5t-240.5 -99.5q-65 0 -112.5 -26.5t-47.5 -63.5q0 -33 26.5 -56.5t63.5 -23.5h140v-70h-100q-51 0 -90.5 -24.5t-39.5 -65.5q0 -24 35.5 -42t84.5 -18h240v-90h-280q-127 0 -218.5 44.5t-91.5 105.5
q0 82 140 130q-59 10 -99.5 47.5t-40.5 82.5q0 60 69 103t169 43q95 0 163.5 71.5t68.5 172.5q0 110 -52.5 185t-127.5 75q-83 0 -136.5 -72.5t-53.5 -167.5h-70q0 101 -58.5 170.5t-141.5 69.5q-82 0 -141 -77t-59 -183q0 -95 53.5 -167.5t136.5 -72.5q69 0 100 50l50 -50
q-68 -120 -270 -120q-135 0 -231.5 111.5t-96.5 266.5q0 149 105.5 255.5t252.5 106.5q123 0 214 -58.5t116 -151.5h10q66 173 200 200v130h-960v100h1544v-100z" />
    <glyph glyph-name="uni0962" unicode="&#x962;" horiz-adv-x="0" 
d="M160 -734v-58h-192q-110 0 -201 50.5t-91 133.5q0 61 48.5 104.5t119.5 43.5t122.5 58.5t51.5 141.5q0 74 -36 133t-94 59q-61 0 -99.5 -53.5t-38.5 -124.5h-52q0 75 -42.5 126.5t-103.5 51.5q-60 0 -103 -57t-43 -135q0 -70 42 -122t98 -52q53 0 74 38l36 -38
q-53 -88 -196 -88q-99 0 -169.5 81.5t-70.5 194.5q0 111 75.5 187.5t184.5 76.5q91 0 157.5 -41.5t84.5 -110.5h6q25 69 85 110.5t133 41.5q112 0 188 -76t76 -188q0 -98 -60 -172t-150 -74q-55 0 -93.5 -37.5t-38.5 -88.5q0 -47 43.5 -81.5t102.5 -34.5h146z" />
    <glyph glyph-name="uni0963" unicode="&#x963;" horiz-adv-x="0" 
d="M24 -608v-50h-74q-42 0 -69 -19t-27 -47q0 -17 27.5 -30.5t60.5 -13.5h176v-64h-206q-82 0 -154 29t-72 79q0 25 30 52t74 44q-44 8 -74 36t-30 60q0 48 55 76t121 28q69 0 117.5 51.5t48.5 126.5q0 74 -36 133t-94 59q-61 0 -99.5 -53.5t-38.5 -124.5h-52
q0 75 -42.5 126.5t-103.5 51.5q-60 0 -103 -57t-43 -135q0 -70 42 -122t98 -52q53 0 74 38l36 -38q-53 -88 -196 -88q-99 0 -169.5 81.5t-70.5 194.5q0 111 75.5 187.5t184.5 76.5q91 0 157.5 -41.5t84.5 -110.5h6q23 66 86.5 109t139.5 43q108 0 182 -76t74 -188
q0 -103 -72.5 -174.5t-175.5 -71.5q-50 0 -84 -19t-34 -45q0 -25 19.5 -43.5t46.5 -18.5h104z" />
    <glyph glyph-name="uni0964" unicode="&#x964;" horiz-adv-x="520" 
d="M390 -100h-260v1200h260v-1200z" />
    <glyph glyph-name="uni0965" unicode="&#x965;" horiz-adv-x="1030" 
d="M900 -100h-260v1200h260v-1200zM390 -100h-260v1200h260v-1200z" />
    <glyph glyph-name="uni0966" unicode="&#x966;" horiz-adv-x="1120" 
d="M560 60q-180 0 -310 130t-130 310q0 181 128.5 310.5t311.5 129.5q184 0 312 -128t128 -312q0 -183 -129.5 -311.5t-310.5 -128.5zM560 860q-74 0 -127 -106.5t-53 -253.5t54 -253.5t126 -106.5q74 0 127 103.5t53 256.5t-52.5 256.5t-127.5 103.5z" />
    <glyph glyph-name="uni0967" unicode="&#x967;" horiz-adv-x="1120" 
d="M580 520l240 -340q23 -32 23 -80q0 -66 -43 -140h-180q18 30 18 64q0 32 -18 56l-280 380l200 120q-137 24 -228.5 98.5t-91.5 161.5q0 114 103.5 187t236.5 73t236.5 -73t103.5 -187q0 -79 -87.5 -166t-232.5 -154zM580 640q60 67 60 200q0 78 -22.5 129t-57.5 51
q-34 0 -57 -54.5t-23 -125.5q0 -116 100 -200z" />
    <glyph glyph-name="uni0968" unicode="&#x968;" horiz-adv-x="1120" 
d="M570 420l120 -220q44 -80 100 -80q49 0 80 40l40 -60q-120 -100 -226 -100q-74 0 -139 56t-135 204q-84 179 -200 220l20 60q65 -24 176 -24q117 0 190.5 71t73.5 173q0 101 -68.5 170.5t-153.5 69.5q-35 0 -74.5 -15t-123.5 -85l-60 80q146 120 340 120
q167 0 283.5 -99.5t116.5 -240.5t-104.5 -240.5t-255.5 -99.5z" />
    <glyph glyph-name="uni0969" unicode="&#x969;" horiz-adv-x="1120" 
d="M960 -40q-39 -65 -107.5 -102.5t-152.5 -37.5q-78 0 -157.5 42.5t-142.5 117.5q-157 186 -240 200v60q54 0 160 -30t160 -30q73 0 126.5 52.5t53.5 127.5q0 83 -69.5 141.5t-170.5 58.5h-100v80h100q73 0 126.5 58.5t53.5 141.5q0 68 -52 114t-128 46q-90 0 -160 -40
l-20 80q95 60 280 60q131 0 235.5 -66.5t104.5 -173.5q0 -95 -75.5 -167.5t-184.5 -92.5q126 0 223 -67t97 -173q0 -109 -116.5 -184.5t-283.5 -75.5q68 -80 145 -115.5t139 -35.5q73 0 116 51z" />
    <glyph glyph-name="uni096A" unicode="&#x96a;" horiz-adv-x="1120" 
d="M1030 1080q0 -148 -95 -287.5t-255 -232.5q94 -34 152 -113.5t58 -176.5q0 -112 -101 -191t-239 -79q-131 0 -225.5 79.5t-94.5 190.5q0 170 210 290q-158 73 -254 216t-96 304h260q0 -185 44 -314.5t116 -155.5q124 87 192 209.5t68 260.5h260zM570 420
q-80 -99 -80 -200q0 -55 21.5 -97.5t48.5 -42.5q28 0 49 39.5t21 100.5q0 133 -60 200z" />
    <glyph glyph-name="uni096B" unicode="&#x96b;" horiz-adv-x="1120" 
d="M330 0v60h200q87 0 143.5 70t56.5 170q0 34 -10 70q-118 -70 -190 -70q-164 0 -282 118t-118 282v400h260v-400q0 -111 61.5 -195.5t158.5 -84.5q44 0 80 20q-140 247 -140 420q0 100 62.5 170t157.5 70q101 0 160.5 -66.5t59.5 -173.5q0 -86 -21 -178.5t-49 -141.5
q70 -152 70 -270q0 -112 -118 -191t-282 -79h-260zM870 660q40 72 40 200q0 80 -60 80q-40 0 -40 -80q0 -94 60 -200z" />
    <glyph glyph-name="uni096C" unicode="&#x96c;" horiz-adv-x="1120" 
d="M960 240q0 -122 -87.5 -239t-232.5 -201l-50 40q50 60 86 200h-116q-165 0 -282.5 88.5t-117.5 211.5q0 95 75.5 167.5t184.5 92.5q-85 16 -142.5 72.5t-57.5 127.5q0 107 104.5 173.5t235.5 66.5q157 0 260 -60l-40 -80q-68 40 -120 40q-76 0 -128 -41.5t-52 -98.5
q0 -64 48 -112t112 -48h120v-100h-120q-93 0 -156.5 -58.5t-63.5 -141.5q0 -92 64 -156t156 -64h48q12 67 12 120h260z" />
    <glyph glyph-name="uni096D" unicode="&#x96d;" horiz-adv-x="1120" 
d="M1070 440q0 -183 -135.5 -311.5t-324.5 -128.5q-188 0 -324 130t-136 310v500q0 44 -28 72t-72 28v60q151 0 255.5 -81.5t104.5 -198.5v-520q0 -91 59.5 -155.5t140.5 -64.5q83 0 141.5 63.5t58.5 156.5v140q-95 16 -157.5 73.5t-62.5 126.5v260q0 83 69.5 141.5
t170.5 58.5t170.5 -58.5t69.5 -141.5v-460zM810 540v360q0 35 -17.5 57.5t-42.5 22.5t-42.5 -22.5t-17.5 -57.5v-260q0 -77 120 -100z" />
    <glyph glyph-name="uni096E" unicode="&#x96e;" horiz-adv-x="1120" 
d="M1060 380q0 -158 -153 -269t-367 -111q-197 0 -338.5 88t-141.5 212q0 60 54 133.5t233 221t253.5 249.5t99.5 196h260q-38 -213 -338 -428q-302 -216 -302 -372q0 -92 64 -156t156 -64q112 0 186 89.5t74 210.5h260z" />
    <glyph glyph-name="uni096F" unicode="&#x96f;" horiz-adv-x="1120" 
d="M580 480q149 -55 249.5 -141.5t100.5 -178.5q0 -87 -78.5 -150.5t-189.5 -63.5q-268 0 -462 194l40 80q122 -100 260 -100q72 0 126 29t54 71q0 56 -66.5 120.5t-183.5 119.5q-123 58 -196.5 150.5t-73.5 189.5q0 123 117.5 211.5t282.5 88.5q167 0 283.5 -87.5
t116.5 -212.5q0 -133 -110.5 -226.5t-269.5 -93.5zM560 1020q-58 0 -99 -65t-41 -155q0 -91 41.5 -155.5t98.5 -64.5q58 0 99 63t41 157t-40.5 157t-99.5 63z" />
    <glyph glyph-name="uni0970" unicode="&#x970;" horiz-adv-x="918" 
d="M458 0q-135 0 -231.5 85.5t-96.5 204.5q0 124 97.5 206t230.5 82q137 0 233.5 -83.5t96.5 -204.5t-97.5 -205.5t-232.5 -84.5zM458 524q-48 0 -83 -70.5t-35 -163.5q0 -95 35 -166.5t83 -71.5t83 68.5t35 169.5q0 99 -34.5 166.5t-83.5 67.5z" />
    <glyph glyph-name="afii61664" unicode="&#x200c;" horiz-adv-x="0" 
d="M70 -490h-70v1990h70v-1990z" />
    <glyph glyph-name="afii301" unicode="&#x200d;" horiz-adv-x="0" 
d="M350 1420h-280v-1910h-70v1990h350v-80z" />
    <glyph glyph-name="endash" unicode="&#x2013;" 
d="M837 332h-851v98h851v-98z" />
    <glyph glyph-name="emdash" unicode="&#x2014;" horiz-adv-x="1649" 
d="M1664 332h-1680v98h1680v-98z" />
    <glyph glyph-name="quoteleft" unicode="&#x2018;" horiz-adv-x="549" 
d="M398 1117v-36q-93 -40 -135 -104t-42 -131q0 -14 5 -20q6 -7 11 -7t15 5q23 14 58 14q47 0 82 -37t35 -87q0 -53 -40 -93.5t-97 -40.5q-69 0 -118.5 53.5t-49.5 147.5q0 115 70 204.5t206 131.5z" />
    <glyph glyph-name="quoteright" unicode="&#x2019;" horiz-adv-x="549" 
d="M151 580v36q94 40 136 104t42 132q0 13 -5 20q-6 6 -12 6q-4 0 -14 -5q-23 -14 -58 -14q-48 0 -83 37t-35 87q0 53 40.5 93.5t97.5 40.5q69 0 118 -54t49 -147q0 -115 -69.5 -204.5t-206.5 -131.5z" />
    <glyph glyph-name="quotedblleft" unicode="&#x201c;" 
d="M730 1117v-40q-84 -30 -131.5 -96t-47.5 -137q0 -15 5 -22q3 -5 8 -5q4 0 12 6q25 18 65 18q46 0 81.5 -37.5t35.5 -88.5q0 -54 -41 -95t-99 -41q-67 0 -116.5 55.5t-49.5 148.5q0 109 67 195t211 139zM343 1117v-40q-84 -30 -131.5 -96t-47.5 -137q0 -15 5 -22
q3 -5 7 -5t12 6q26 18 66 18q45 0 80.5 -37.5t35.5 -88.5q0 -54 -40.5 -95t-98.5 -41q-68 0 -117 55.5t-49 148.5q0 109 67 195t211 139z" />
    <glyph glyph-name="quotedblright" unicode="&#x201d;" 
d="M94 579v40q83 31 130.5 96.5t47.5 136.5q0 15 -5 22q-2 5 -6 5t-13 -6q-26 -19 -64 -19q-47 0 -82 37.5t-35 88.5q0 55 40 96t99 41q67 0 116.5 -55.5t49.5 -148.5q0 -109 -67 -195t-211 -139zM481 579v40q83 31 130.5 96.5t47.5 136.5q0 15 -5 22q-2 5 -6 5t-13 -6
q-26 -19 -64 -19q-47 0 -82 37.5t-35 88.5q0 55 40.5 96t98.5 41q67 0 116.5 -55.5t49.5 -148.5q0 -109 -67 -195t-211 -139z" />
    <glyph glyph-name="ellipsis" unicode="&#x2026;" horiz-adv-x="1649" 
d="M275 248q56 0 95 -39.5t39 -94.5q0 -56 -39.5 -95t-94.5 -39q-56 0 -95 39t-39 95q0 55 39 94.5t95 39.5zM824 247q56 0 95 -39t39 -94q0 -56 -39 -95t-95 -39q-55 0 -94 39t-39 95q0 55 39 94t94 39zM1374 246q56 0 95 -39.5t39 -94.5q0 -56 -39 -95t-95 -39
q-55 0 -94 39t-39 95q0 55 39 94.5t94 39.5z" />
    <glyph glyph-name="minus" unicode="&#x2212;" horiz-adv-x="939" 
d="M32 599h880v-106h-880v106z" />
    <glyph glyph-name="uni25CC" unicode="&#x25cc;" horiz-adv-x="1340" 
d="M670 916q-28 0 -50 22t-22 50q0 29 20.5 50.5t51.5 21.5q32 0 52 -20t20 -52q0 -31 -21.5 -51.5t-50.5 -20.5zM904 854q-28 0 -50 22t-22 50q0 29 20.5 50.5t51.5 21.5q32 0 52 -20t20 -52q0 -31 -21.5 -51.5t-50.5 -20.5zM436 854q-28 0 -50 22t-22 50q0 29 20.5 50.5
t51.5 21.5q32 0 52 -20t20 -52q0 -31 -21.5 -51.5t-50.5 -20.5zM1076 682q-28 0 -50 22t-22 50q0 29 20.5 50.5t51.5 21.5q32 0 52 -20t20 -52q0 -31 -21.5 -51.5t-50.5 -20.5zM266 682q-28 0 -50 22t-22 50q0 29 20.5 50.5t51.5 21.5q32 0 52 -20t20 -52q0 -31 -21.5 -51.5
t-50.5 -20.5zM1138 448q-28 0 -50 22t-22 50q0 29 20.5 50.5t51.5 21.5q32 0 52 -20t20 -52q0 -31 -21.5 -51.5t-50.5 -20.5zM202 448q-28 0 -50 22t-22 50q0 29 20.5 50.5t51.5 21.5q32 0 52 -20t20 -52q0 -31 -21.5 -51.5t-50.5 -20.5zM1076 214q-28 0 -50 22t-22 50
q0 29 20.5 50.5t51.5 21.5q32 0 52 -20t20 -52q0 -31 -21.5 -51.5t-50.5 -20.5zM266 214q-28 0 -50 22t-22 50q0 29 20.5 50.5t51.5 21.5q32 0 52 -20t20 -52q0 -31 -21.5 -51.5t-50.5 -20.5zM904 42q-29 0 -50.5 22.5t-21.5 51.5t20.5 50.5t51.5 21.5q32 0 52 -20t20 -52
q0 -31 -20.5 -52.5t-51.5 -21.5zM436 42q-29 0 -50.5 22.5t-21.5 51.5t20.5 50.5t51.5 21.5q32 0 52 -20t20 -52q0 -31 -20.5 -52.5t-51.5 -21.5zM670 -20q-28 0 -50 22t-22 50q0 29 20.5 50.5t51.5 21.5q32 0 52 -20t20 -52q0 -31 -21.5 -51.5t-50.5 -20.5z" />
    <glyph glyph-name="uni0947_uni0902.abvs" horiz-adv-x="0" 
d="M-158 1060h-240q-56 0 -120 60l-280 260q-43 40 -120 40h-100v80h280q73 0 140 -60l290 -260q67 -60 110 -60h40v-60zM-222 1248q-45 0 -77.5 33.5t-32.5 78.5q0 47 32 78.5t78 31.5q48 0 79 -31t31 -79q0 -47 -32 -79.5t-78 -32.5z" />
    <glyph glyph-name="uni0947_uni0930_uni094D.rphf.abvs" horiz-adv-x="0" 
d="M-58 1410h-50q-71 0 -114.5 -41.5t-43.5 -108.5q0 -52 32 -93t82 -47v-60h-246q-56 0 -120 60l-280 260q-43 40 -140 40h-80v80h280q73 0 140 -60l118 -106q24 69 103.5 112.5t188.5 43.5h130v-80z" />
    <glyph glyph-name="uni0947_uni0930_uni094D.rphf.abvs_uni0902.abvs" horiz-adv-x="0" 
d="M-58 1410h-62q-67 0 -112.5 -42t-45.5 -108q0 -55 37 -97.5t89 -42.5v-60h-246q-56 0 -120 60l-280 260q-43 40 -140 40h-80v80h280q73 0 140 -60l118 -106q24 69 103.5 112.5t188.5 43.5h130v-80zM-88 1160q-40 0 -70 30t-30 70q0 41 28.5 70.5t71.5 29.5q44 0 72 -28
t28 -72q0 -43 -29.5 -71.5t-70.5 -28.5z" />
    <glyph glyph-name="uni0948_uni0902.abvs" horiz-adv-x="0" 
d="M-88 1138h-202q-56 0 -102 50l-188 204q-46 50 -106 50h-102v58h266q66 0 112 -52l192 -216q34 -38 90 -38h40v-56zM-368 1060h-228q-39 0 -110 52l-270 198q-52 38 -102 38h-70v56h244q75 0 132 -44l264 -204q49 -38 100 -38h40v-58zM-74 1264q-44 0 -77 33t-33 77
q0 47 32 79.5t78 32.5q48 0 80 -32t32 -80q0 -46 -32.5 -78t-79.5 -32z" />
    <glyph glyph-name="uni0948_uni0930_uni094D.rphf.abvs" horiz-adv-x="0" 
d="M92 1414h-100q-60 0 -103 -43.5t-43 -108.5q0 -60 35 -102t91 -44v-56h-180q-70 0 -120 56l-240 270q-50 56 -120 56h-100v58h272q57 0 108 -58l76 -86q28 59 94.5 96.5t149.5 37.5h180v-76zM-368 1060h-220q-42 0 -120 56l-270 194q-53 38 -108 38h-62v56h246
q72 0 134 -48l260 -202q49 -38 102 -38h38v-56z" />
    <glyph glyph-name="uni0948_uni0930_uni094D.rphf.abvs_uni0902.abvs" horiz-adv-x="0" 
d="M92 1414h-100q-60 0 -103 -43.5t-43 -108.5q0 -60 35 -102t91 -44v-56h-180q-70 0 -120 56l-240 270q-50 56 -120 56h-100v58h272q57 0 108 -58l76 -86q28 59 94.5 96.5t149.5 37.5h180v-76zM-368 1060h-220q-42 0 -120 56l-270 194q-53 38 -108 38h-62v56h246
q72 0 134 -48l260 -202q49 -38 102 -38h38v-56zM36 1158q-40 0 -70 30t-30 70q0 41 28.5 70.5t71.5 29.5q44 0 72 -28t28 -72q0 -43 -29.5 -71.5t-70.5 -28.5z" />
    <glyph glyph-name="uni0930_uni094D.rphf" horiz-adv-x="0" 
d="M42 1410h-136q-54 0 -89 -32.5t-35 -85.5q0 -131 122 -232h-260q-122 101 -122 232q0 89 77 143.5t213 54.5h230v-80z" />
    <glyph glyph-name="uni0930_uni094D.rphf_uni0902.abvs" horiz-adv-x="0" 
d="M42 1410h-136q-54 0 -89 -32.5t-35 -85.5q0 -131 122 -232h-260q-122 101 -122 232q0 89 77 143.5t213 54.5h230v-80zM-30 1132q-45 0 -77.5 33.5t-32.5 78.5q0 47 32 78.5t78 31.5q48 0 79 -31t31 -79q0 -47 -32 -79.5t-78 -32.5z" />
    <glyph glyph-name="glyph172" horiz-adv-x="0" 
d="M-268 260q-439 -306 -830 -340v140q504 45 830 270v-70z" />
    <glyph glyph-name="uni0930_uni094D.blwf" horiz-adv-x="0" 
d="M170 -400h-200l-230 270l-230 -270h-200l300 400h260z" />
    <glyph glyph-name="uni0936_uni094D_uni0930.rkrf" horiz-adv-x="1260" 
d="M1330 940h-208v-800q0 -32 30 -56t70 -24v-60h-460v60q40 0 70 22.5t30 57.5v270l-676 -382l-48 90l460 254q-114 44 -218 102q-185 -96 -318 -96v92q108 0 212 54q-216 117 -216 298q0 120 91 199t229 79q137 0 228.5 -75.5t91.5 -202.5q0 -193 -218 -298
q112 -59 218 -90l164 90v416h-80v100h548v-100zM444 814q0 206 -64 206q-68 0 -68 -206q0 -158 66 -228q66 68 66 228z" />
    <glyph glyph-name="uni095E_uni094D_uni0930.rkrf" horiz-adv-x="1522" 
d="M1592 940h-722v-200q69 80 240 80q151 0 255.5 -99.5t104.5 -240.5q0 -151 -105.5 -255.5t-254.5 -104.5q-110 0 -180 60v80q38 -20 70 -20q97 0 163.5 63.5t66.5 156.5q0 101 -66.5 170.5t-163.5 69.5q-98 0 -130 -40v-520q0 -32 30 -56t70 -24v-60h-460v60
q40 0 70 22.5t30 57.5v158q-342 -277 -570 -298v140q318 31 446 154q-38 -4 -66 -4q-52 0 -127 36.5t-119 110.5t-44 163v340h-136v100h1598v-100zM610 430v510h-220v-440q0 -48 36 -84t84 -36q71 0 100 50zM402 -320q-45 0 -77.5 33.5t-32.5 78.5q0 47 32 78.5t78 31.5
q48 0 79 -31t31 -79q0 -47 -32 -79.5t-78 -32.5z" />
    <glyph glyph-name="uni0924_uni094D.half_uni0924.pres" horiz-adv-x="1250" 
d="M1320 940h-208v-800q0 -32 30 -56t70 -24v-60h-460v60q40 0 70 22.5t30 57.5v420q-32 40 -160 40q-115 0 -197.5 -75t-82.5 -185q0 -82 49 -157.5t131 -122.5l-240 -120q-95 79 -147.5 184.5t-52.5 215.5q0 203 200 320h-340v80h580q124 0 260 -80v280h-858v100h1326
v-100z" />
    <glyph glyph-name="uni0915_uni094D_uni0937.akhn" horiz-adv-x="1460" 
d="M1530 940h-208v-800q0 -32 30 -56t70 -24v-60h-460v60q40 0 70 22.5t30 57.5v380h-520q-96 -35 -158 -100t-62 -140q0 -72 48 -126t112 -54q47 0 90.5 27t69.5 73v140h280q-20 -34 -20 -120v-140q0 -137 -103.5 -233.5t-246.5 -96.5l-10 70q41 0 70.5 40t29.5 100v140
q-27 -73 -103.5 -116.5t-176.5 -43.5q-125 0 -212.5 87.5t-87.5 212.5q0 113 90.5 204.5t229.5 115.5q-111 20 -185.5 91.5t-74.5 158.5q0 111 104 190.5t256 79.5q153 0 256.5 -78t103.5 -192q0 -124 -150 -210h370v340h-120v100h588v-100zM482 1000q-42 0 -71 -60.5
t-29 -139.5q0 -71 29.5 -125.5t70.5 -54.5q42 0 71 52t29 128q0 85 -28.5 142.5t-71.5 57.5z" />
    <glyph glyph-name="uni091C_uni094D_uni091E.akhn" horiz-adv-x="1430" 
d="M1500 940h-208v-800q0 -32 30 -56t70 -24v-60h-460v60q40 0 70 22.5t30 57.5v540q-91 0 -270 40q-178 40 -270 40q-68 0 -114 -35.5t-46 -84.5t48 -84.5t112 -35.5h140q111 0 195.5 -61.5t84.5 -158.5q0 -109 -120.5 -174.5t-269.5 -65.5q29 -42 74.5 -69t87.5 -27
q41 0 68 16l40 -40q-68 -120 -200 -120q-66 0 -136 38t-124 102q-98 118 -300 190l40 70q114 -80 340 -80q93 0 166.5 47t73.5 123q0 56 -44.5 93t-105.5 37h-110q-131 0 -225.5 59.5t-94.5 140.5q0 99 98 159.5t222 60.5q108 0 320 -40t320 -40v160h-1038v100h1506v-100z
" />
    <glyph glyph-name="uni0915_uni094D.half" horiz-adv-x="1194" 
d="M1264 940h-290v-140q103 60 260 60v-100q-192 0 -260 -40v-580q0 -32 30 -56t70 -24v-60h-460v60q40 0 70 22.5t30 57.5v80q-100 -100 -270 -100q-161 0 -275.5 107t-114.5 263q0 153 117.5 261.5t282.5 108.5q157 0 260 -60v140h-720v100h1270v-100zM714 280v440
q-68 40 -140 40q-108 0 -184 -75.5t-76 -184.5q0 -108 76 -184t184 -76q72 0 140 40z" />
    <glyph glyph-name="uni0916_uni094D.half" horiz-adv-x="1494" 
d="M1564 940h-1130q119 -35 189.5 -118t70.5 -190q0 -119 -86 -203.5t-224 -108.5q233 -220 350 -220q115 0 184 84q-164 108 -164 290q0 151 115 253.5t275 102.5t275 -102.5t115 -253.5t-115.5 -252.5t-274.5 -101.5q-100 0 -182 40q-113 -184 -334 -184
q-121 0 -200.5 44.5t-139.5 113.5q-146 167 -274 186v80q35 -6 88 -6q154 0 243 72t89 194q0 105 -55 182.5t-149 97.5h-236v100h1570v-100zM1224 730q-97 0 -163.5 -73.5t-66.5 -176.5q0 -102 68 -176t162 -74q95 0 162.5 72.5t67.5 177.5q0 106 -66 178t-164 72z" />
    <glyph glyph-name="uni0917_uni094D.half" horiz-adv-x="868" 
d="M938 940h-500q157 -29 268.5 -122.5t111.5 -217.5q0 -167 -129.5 -283.5t-310.5 -116.5q-131 0 -235.5 66.5t-104.5 173.5q0 104 83.5 172t196.5 68q184 0 240 -80q0 139 -93 239.5t-227 100.5h-244v100h944v-100zM418 600q-51 0 -85.5 -48t-34.5 -112t35.5 -112
t84.5 -48t84.5 46t35.5 114q0 69 -34 114.5t-86 45.5z" />
    <glyph glyph-name="uni0918_uni094D.half" horiz-adv-x="756" 
d="M826 940h-332q-51 0 -85.5 -41.5t-34.5 -98.5q0 -61 41.5 -105.5t98.5 -44.5h80v-80h-80q-81 0 -140.5 -52.5t-59.5 -123.5t56.5 -122.5t133.5 -51.5q80 0 156.5 41.5t133.5 118.5v-100q-71 -85 -183 -132.5t-237 -47.5q-127 0 -223.5 73.5t-96.5 186.5q0 91 67.5 161.5
t172.5 88.5q-76 14 -128 66t-52 114q0 105 122 150h-242v100h832v-100z" />
    <glyph glyph-name="uni0919_uni094D.half" horiz-adv-x="1298" 
d="M1368 940h-444v-220h-300q-60 0 -100 -29.5t-40 -70.5q0 -33 42.5 -56.5t97.5 -23.5h160q99 0 169.5 -63t70.5 -157q0 -133 -128.5 -226.5t-311.5 -93.5q-190 0 -347.5 135t-212.5 345l70 20q45 -166 162.5 -273t257.5 -107q102 0 176 53t74 127q0 68 -57.5 114
t-142.5 46h-120q-91 0 -155.5 47.5t-64.5 112.5q0 74 69 127t171 53h200v140h-670v100h1374v-100zM1164 474q-44 0 -77 33t-33 77q0 47 32 79.5t78 32.5q48 0 80 -32t32 -80q0 -46 -32.5 -78t-79.5 -32zM1117 -430h-260l-310 310l-50 -70h-160l120 160h260z" />
    <glyph glyph-name="uni091A_uni094D.half" horiz-adv-x="822" 
d="M892 940h-898v100h898v-100zM862 280q-71 -85 -174.5 -132.5t-215.5 -47.5q-153 0 -261.5 91.5t-108.5 218.5q0 100 80 180t200 104v6h-360v80h700v-80h-88q-120 0 -196 -76t-76 -184q0 -94 70.5 -157t169.5 -63q70 0 138.5 41t121.5 119v-100z" />
    <glyph glyph-name="uni091B_uni094D.half" horiz-adv-x="1358" 
d="M1428 940h-1434v100h1434v-100zM300 520q-93 8 -156.5 60.5t-63.5 119.5q0 74 81 127t199 53q116 0 230 -66l-20 -64q-54 30 -100 30q-56 0 -93 -29t-37 -71q0 -56 42 -98t98 -42h60v-80h-60q-67 0 -113.5 -53.5t-46.5 -126.5q0 -81 92 -140.5t218 -59.5q123 0 225 59
t149 161q-137 12 -230.5 98.5t-93.5 201.5q0 111 90.5 190.5t219.5 79.5q130 0 220 -96t90 -234q0 -234 -195 -387t-455 -153q-243 0 -416.5 88.5t-173.5 211.5q0 81 69.5 141.5t170.5 78.5zM1040 580q0 220 -50 220t-50 -220q0 -75 22 -130.5t58 -69.5q20 74 20 200z" />
    <glyph glyph-name="uni091C_uni094D.half" horiz-adv-x="938" 
d="M1008 940h-1014v100h1014v-100zM982 640h-300v-6q200 -80 200 -284q0 -121 -103.5 -205.5t-246.5 -84.5q-201 0 -345.5 187.5t-144.5 452.5h60q18 -199 118.5 -334.5t231.5 -135.5q73 0 121.5 58t48.5 142q0 86 -60.5 148t-145.5 62h-54v80h620v-80z" />
    <glyph glyph-name="uni091D_uni094D.half" horiz-adv-x="982" 
d="M1052 940h-304v-208h-260q-69 0 -114.5 -28.5t-45.5 -79.5q0 -43 36 -68.5t88 -25.5q31 0 90 5q60 5 86 5q154 0 200 -80h194v-80h-178q0 -119 -86.5 -188.5t-237.5 -69.5h-88q36 -42 100.5 -80t107.5 -38q44 0 96 28l30 -40q-119 -108 -240 -108q-134 0 -256 126
q-107 112 -149.5 153t-82.5 47v60h286q20 -37 58 -88q84 0 145 40.5t61 107.5q0 60 -45 95t-115 35h-160q-78 0 -139 52.5t-61 127.5q0 76 59 125t141 49h220v126h-494v100h1058v-100z" />
    <glyph glyph-name="uni091E_uni094D.half" horiz-adv-x="840" 
d="M912 940h-918v100h918v-100zM926 460h-300q-22 -121 -118.5 -200.5t-221.5 -79.5q-74 0 -144 32t-116 88l30 40q68 -40 110 -40q81 0 140.5 58.5t59.5 141.5q0 84 -58 142t-142 58q-62 0 -110 -40l-30 40q100 120 260 120q127 0 222.5 -78.5t117.5 -201.5h300v-80z" />
    <glyph glyph-name="uni091F_uni094D.half" horiz-adv-x="946" 
d="M1016 940h-182v-220h-220q-125 0 -212.5 -87.5t-87.5 -212.5t87.5 -212.5t212.5 -87.5q150 0 280 60l30 -50q-161 -130 -370 -130q-207 0 -353.5 117.5t-146.5 282.5t128.5 282.5t311.5 117.5h80v140h-580v100h1022v-100zM1074 -430h-260l-310 310l-50 -70h-160l120 160
h260z" />
    <glyph glyph-name="uni0920_uni094D.half" horiz-adv-x="1104" 
d="M1174 940h-262v-180h-160q131 -36 215.5 -135t84.5 -225q0 -165 -146.5 -282.5t-353.5 -117.5t-353.5 117.5t-146.5 282.5q0 167 145.5 283.5t354.5 116.5h100v140h-658v100h1180v-100zM552 720q-106 0 -173 -97t-67 -223t67 -223t173 -97t173 97t67 223t-67 223t-173 97
zM1077 -430h-260l-310 310l-50 -70h-160l120 160h260z" />
    <glyph glyph-name="uni0921_uni094D.half" horiz-adv-x="1072" 
d="M1142 940h-218v-220h-320q-51 0 -85.5 -29.5t-34.5 -70.5q0 -33 42.5 -56.5t97.5 -23.5h160q99 0 169.5 -63t70.5 -157q0 -142 -138 -231t-312 -89q-186 0 -340 132t-210 338l70 30q45 -166 164.5 -273t265.5 -107q98 0 169 53t71 127q0 68 -57.5 114t-142.5 46h-120
q-91 0 -155.5 53.5t-64.5 126.5q0 67 80.5 113.5t199.5 46.5h160v140h-670v100h1148v-100zM1095 -430h-260l-310 310l-50 -70h-160l120 160h260z" />
    <glyph glyph-name="uni0922_uni094D.half" horiz-adv-x="1216" 
d="M1286 940h-274v-220h-280q-189 0 -304.5 -90.5t-115.5 -239.5q0 -156 124 -243t316 -87q-81 38 -130.5 107t-49.5 143q0 113 87.5 191.5t212.5 78.5q123 0 211.5 -81t88.5 -199q0 -125 -110.5 -212.5t-301.5 -87.5h-108q-271 0 -435.5 109.5t-164.5 290.5
q0 182 154.5 291t415.5 109h130v140h-758v100h1292v-100zM872 494q-26 0 -45 -59t-19 -135q0 -75 19.5 -134.5t44.5 -59.5t44.5 59.5t19.5 134.5t-19 134.5t-45 59.5zM1198 -430h-260l-310 310l-50 -70h-160l120 160h260z" />
    <glyph glyph-name="uni0923_uni094D.half" horiz-adv-x="908" 
d="M978 940h-154v-440q0 -144 -109.5 -242t-260.5 -98t-260.5 98t-109.5 242v440h-90v100h984v-100zM564 400v540h-220v-540q0 -65 32 -112.5t78 -47.5t78 47.5t32 112.5z" />
    <glyph glyph-name="uni0924_uni094D.half" horiz-adv-x="800" 
d="M870 940h-876v100h876v-100zM830 650q-79 70 -250 70q-105 0 -177.5 -79.5t-72.5 -190.5q0 -97 46 -186t124 -144l-240 -120q-200 167 -200 420q0 165 140.5 282.5t339.5 117.5q176 0 290 -70v-100z" />
    <glyph glyph-name="uni0925_uni094D.half" horiz-adv-x="882" 
d="M922 410q-41 -149 -163 -239.5t-277 -90.5q-181 0 -310.5 138.5t-129.5 331.5q90 -50 170 -50q151 0 250 80q-133 0 -236.5 73t-103.5 187q0 104 99 177t241 73t241 -72.5t99 -177.5q0 -165 -146.5 -282.5t-353.5 -117.5q16 -84 96.5 -142t183.5 -58q101 0 189.5 71.5
t130.5 188.5zM502 640q40 70 40 200q0 78 -22.5 129t-57.5 51q-34 0 -57 -54.5t-23 -125.5q0 -79 23.5 -139.5t56.5 -60.5h40z" />
    <glyph glyph-name="uni0926_uni094D.half" horiz-adv-x="1004" 
d="M1074 940h-184v-220h-280q-125 0 -212.5 -80.5t-87.5 -195.5q0 -116 88.5 -195t211.5 -79q63 0 100 20q6 34 6 66q0 63 -26 134h260q0 -184 -82.5 -327.5t-217.5 -192.5l-42 60q67 51 102 180q-108 -40 -220 -40q-180 0 -310 108t-130 256q0 151 128.5 258.5t311.5 107.5
h140v140h-636v100h1080v-100zM842 -452h-260l-310 310l-50 -70h-160l120 160h260z" />
    <glyph glyph-name="uni0927_uni094D.half" horiz-adv-x="880" 
d="M920 380q-65 -139 -190.5 -219.5t-269.5 -80.5q-164 0 -282 85.5t-118 204.5q0 97 71.5 173.5t178.5 96.5q-90 16 -150 88t-60 162q0 103 96 176.5t234 73.5q129 0 219.5 -69.5t90.5 -170.5q0 -59 -41.5 -99.5t-98.5 -40.5q-56 0 -98 42t-42 98q0 33 32.5 66.5t87.5 53.5
q-22 20 -80 20q-67 0 -113.5 -53.5t-46.5 -126.5q0 -80 48 -140t112 -60h60v-80h-60q-75 0 -127.5 -59.5t-52.5 -140.5q0 -72 60 -126t140 -54q122 0 220.5 65t139.5 175z" />
    <glyph glyph-name="uni0928_uni094D.half" horiz-adv-x="930" 
d="M1000 940h-1006v100h1006v-100zM970 520q-64 54 -270 90q110 -64 110 -230q0 -141 -110.5 -240.5t-269.5 -99.5q-157 0 -268.5 100.5t-111.5 239.5t111.5 239.5t268.5 100.5q330 0 540 -120v-80zM430 660q-65 0 -112.5 -77t-47.5 -183q0 -121 47 -210.5t113 -89.5
t113 86.5t47 213.5q0 110 -46.5 185t-113.5 75z" />
    <glyph glyph-name="uni0929_uni094D.half" horiz-adv-x="930" 
d="M1000 940h-1006v100h1006v-100zM970 520q-64 54 -270 90q110 -64 110 -190q0 -125 -110.5 -212.5t-269.5 -87.5q-157 0 -268.5 88.5t-111.5 211.5t111.5 211.5t268.5 88.5q330 0 540 -120v-80zM430 660q-66 0 -113 -71t-47 -169q0 -99 47.5 -169.5t112.5 -70.5
q66 0 113 69t47 171t-46.5 171t-113.5 69zM430 -182q-44 0 -77 33t-33 77q0 46 32 78t78 32q48 0 79 -31t31 -79q0 -46 -31.5 -78t-78.5 -32z" />
    <glyph glyph-name="uni092A_uni094D.half" horiz-adv-x="726" 
d="M796 940h-450v-440q0 -92 64 -156t156 -64q64 0 118.5 43t81.5 117v-140q-109 -160 -320 -160q-148 0 -254 106t-106 254v440h-92v100h802v-100z" />
    <glyph glyph-name="uni092B_uni094D.half" horiz-adv-x="1028" 
d="M1098 940h-270v-200q97 80 240 80v-110q-197 0 -240 -50v-520q0 -32 30 -56t70 -24v-60h-460v60q40 0 70 22.5t30 57.5v70q-73 -50 -190 -50q-119 0 -204.5 94.5t-85.5 225.5v460h-94v100h1104v-100zM568 380v560h-220v-560q0 -49 32.5 -84.5t77.5 -35.5t77.5 35.5
t32.5 84.5z" />
    <glyph glyph-name="uni092C_uni094D.half" horiz-adv-x="792" 
d="M862 940h-868v100h868v-100zM452 120q-164 0 -282 106t-118 254q0 151 119.5 255.5t290.5 104.5q155 0 262.5 -104.5t107.5 -255.5t-111.5 -255.5t-268.5 -104.5zM412 680l336 -296q14 37 14 88q0 104 -66 176t-164 72q-72 0 -120 -40zM724 336l-352 304
q-60 -60 -60 -160q0 -96 68.5 -167t175.5 -71q109 0 168 94z" />
    <glyph glyph-name="uni092D_uni094D.half" horiz-adv-x="752" 
d="M792 400h-140v-140q0 -103 -76.5 -171.5t-183.5 -68.5q-113 0 -196.5 68t-83.5 172q0 101 70 170.5t170 69.5h40v60h-40q-120 0 -210 67.5t-90 172.5t90 172.5t210 67.5t210 -67.5t90 -172.5v-300h140v-100zM392 620v200q0 71 -14.5 115.5t-35.5 44.5q-50 0 -50 -180
q0 -73 18 -126.5t42 -53.5h40zM392 260v140h-42q-37 0 -62.5 -41.5t-25.5 -98.5q0 -140 72 -140q27 0 42.5 45.5t15.5 94.5z" />
    <glyph glyph-name="uni092E_uni094D.half" horiz-adv-x="842" 
d="M912 940h-230v-400h200v-100h-200v-180q0 -113 -96.5 -186.5t-223.5 -73.5t-223.5 73.5t-96.5 186.5q0 120 95.5 200t224.5 80h60v400h-428v100h918v-100zM422 260v180h-38q-82 0 -82 -180t60 -180t60 180z" />
    <glyph glyph-name="uni092F_uni094D.half" horiz-adv-x="796" 
d="M866 940h-350q160 -58 160 -160q0 -93 -110.5 -156.5t-269.5 -63.5q0 -131 79.5 -225.5t190.5 -94.5q95 0 168.5 46.5t101.5 135.5v-122q-43 -94 -135.5 -147t-204.5 -53q-189 0 -324.5 158.5t-135.5 381.5q56 -20 140 -20q92 0 166 50.5t74 129.5q0 90 -140 140h-282
v100h872v-100z" />
    <glyph glyph-name="glyph206" horiz-adv-x="536" 
d="M606 940h-208v-778q0 -102 100 -102v-60h-460v60q100 0 100 102v778h-144v100h612v-100zM1938 1060h-260q-145 173 -385.5 266.5t-534.5 93.5q-173 0 -296.5 -64.5t-123.5 -155.5q0 -70 60 -140h-260q-80 99 -80 160q0 128 191.5 204t508.5 76q411 0 733 -112.5
t447 -327.5z" />
    <glyph glyph-name="glyph207" horiz-adv-x="536" 
d="M606 940h-208v-778q0 -102 100 -102v-60h-460v60q100 0 100 102v778h-144v100h612v-100zM1938 1060h-260q-145 173 -385.5 266.5t-534.5 93.5q-173 0 -296.5 -64.5t-123.5 -155.5q0 -70 60 -140h-260q-80 99 -80 160q0 128 191.5 204t508.5 76q411 0 733 -112.5
t447 -327.5zM1974 1276q-45 0 -77.5 33.5t-32.5 78.5q0 47 32 78.5t78 31.5q48 0 79 -31t31 -79q0 -47 -32 -79.5t-78 -32.5z" />
    <glyph glyph-name="uni0932_uni094D.half" horiz-adv-x="940" 
d="M1010 940h-1016v100h1016v-100zM980 700q-86 0 -143 -73t-57 -167h-60q0 101 -58.5 170.5t-141.5 69.5q-86 0 -143 -78.5t-57 -201.5q0 -122 64.5 -209t165.5 -87q76 0 150 66l40 -50q-57 -66 -136.5 -103t-163.5 -37q-156 0 -268 124t-112 296q0 165 110.5 282.5
t269.5 117.5q102 0 183.5 -45.5t126.5 -144.5l10 2q67 148 220 148v-80z" />
    <glyph glyph-name="uni0933_uni094D.half" horiz-adv-x="1260" 
d="M1330 940h-1336v100h1336v-100zM674 96q-116 -96 -244 -96q-153 0 -261.5 117.5t-108.5 282.5q0 167 107.5 283.5t262.5 116.5q141 0 244 -102q116 102 260 102q162 0 264 -115.5t102 -284.5q0 -165 -108.5 -282.5t-261.5 -117.5q-140 0 -256 96zM722 152q62 -42 122 -42
q84 0 136 82t52 212q0 288 -110 288q-54 0 -86 -75t-32 -201q0 -165 -82 -264zM620 644q-54 44 -102 44q-90 0 -145 -85.5t-55 -210.5q0 -290 114 -290q48 0 76 73.5t28 194.5q0 155 84 274z" />
    <glyph glyph-name="uni0934_uni094D.half" horiz-adv-x="1260" 
d="M1330 940h-1336v100h1336v-100zM674 96q-116 -96 -244 -96q-153 0 -261.5 117.5t-108.5 282.5q0 167 107.5 283.5t262.5 116.5q141 0 244 -102q116 102 260 102q162 0 264 -115.5t102 -284.5q0 -165 -108.5 -282.5t-261.5 -117.5q-140 0 -256 96zM722 152q62 -42 122 -42
q84 0 136 82t52 212q0 288 -110 288q-54 0 -86 -75t-32 -201q0 -165 -82 -264zM620 644q-54 44 -102 44q-90 0 -145 -85.5t-55 -210.5q0 -290 114 -290q48 0 76 73.5t28 194.5q0 155 84 274zM677 -256q-45 0 -77.5 33.5t-32.5 78.5q0 46 32 78t78 32q49 0 80.5 -31t31.5 -79
q0 -46 -32.5 -79t-79.5 -33z" />
    <glyph glyph-name="uni0935_uni094D.half" horiz-adv-x="792" 
d="M862 940h-868v100h868v-100zM442 120q-161 0 -275.5 105.5t-114.5 254.5q0 151 113.5 255.5t276.5 104.5t276.5 -104.5t113.5 -255.5q0 -149 -114.5 -254.5t-275.5 -105.5zM532 720q-94 0 -157 -70.5t-63 -169.5t63 -169.5t157 -70.5t157 70.5t63 169.5t-63 169.5
t-157 70.5z" />
    <glyph glyph-name="uni0936_uni094D.half" horiz-adv-x="1000" 
d="M372 220h-10q91 -113 156.5 -164.5t137.5 -51.5q59 0 118 34l26 -56q-160 -88 -288 -88q-150 0 -254 140q-139 188 -206 206v60h300q48 -40 114 -40q73 0 119.5 59.5t46.5 140.5q-63 -40 -146 -40q-183 0 -298.5 84.5t-115.5 235.5q0 145 116 232.5t314 87.5t314 -130
t116 -350q0 -175 -117.5 -297.5t-282.5 -122.5q-92 0 -160 60zM502 1000q-76 0 -123 -80.5t-47 -179.5q0 -93 47 -166.5t123 -73.5t123 73.5t47 166.5q0 99 -47 179.5t-123 80.5z" />
    <glyph glyph-name="uni0937_uni094D.half" horiz-adv-x="786" 
d="M856 940h-470l440 -440v-160q-54 -93 -157 -146.5t-223 -53.5q-148 0 -254 106t-106 254v440h-92v100h862v-100zM786 420l-440 440v-420q0 -72 54 -126t126 -54q76 0 147.5 43.5t112.5 116.5z" />
    <glyph glyph-name="uni0938_uni094D.half" horiz-adv-x="1032" 
d="M1102 940h-668q149 -38 233.5 -121.5t84.5 -198.5q0 -120 -96 -202t-258 -106q55 -66 115.5 -114t98.5 -48q79 0 120 50l60 -40q-136 -160 -280 -160q-134 0 -270 160q-119 141 -230 180l22 68q77 -26 168 -26q129 0 209.5 72.5t80.5 191.5q0 128 -96 211t-232 83h-170
v100h1108v-100zM1052 410q-56 -32 -120 -32q-84 0 -160 42l20 100q60 -34 140 -34q61 0 120 34v-110z" />
    <glyph glyph-name="uni0939_uni094D.half" horiz-adv-x="930" 
d="M1000 940h-150v-180h-300q-41 0 -70.5 -18t-29.5 -42q0 -32 30 -56t70 -24h70q139 0 234.5 -58t95.5 -142h-260q0 52 -45.5 86t-114.5 34q-94 0 -157 -70.5t-63 -169.5q0 -144 94 -232t246 -88q189 0 320 60l-60 -140h-350q-230 0 -370 110t-140 290q0 100 77 182.5
t203 117.5q-61 16 -100.5 50.5t-39.5 69.5q0 50 62.5 85t157.5 35h180v100h-596v100h1006v-100z" />
    <glyph glyph-name="uni0958_uni094D.half" horiz-adv-x="1194" 
d="M1264 940h-290v-140q103 60 260 60v-100q-192 0 -260 -40v-580q0 -32 30 -56t70 -24v-60h-460v60q40 0 70 22.5t30 57.5v80q-100 -100 -270 -100q-161 0 -275.5 107t-114.5 263q0 153 117.5 261.5t282.5 108.5q157 0 260 -60v140h-720v100h1270v-100zM714 280v440
q-68 40 -140 40q-108 0 -184 -75.5t-76 -184.5q0 -108 76 -184t184 -76q72 0 140 40zM432 -310q-45 0 -77.5 33.5t-32.5 78.5q0 47 32 78.5t78 31.5q48 0 79 -31t31 -79q0 -47 -32 -79.5t-78 -32.5z" />
    <glyph glyph-name="uni0959_uni094D.half" horiz-adv-x="1494" 
d="M1564 940h-1130q119 -35 189.5 -118t70.5 -190q0 -119 -86 -203.5t-224 -108.5q233 -220 350 -220q115 0 184 84q-164 108 -164 290q0 151 115 253.5t275 102.5t275 -102.5t115 -253.5t-115.5 -252.5t-274.5 -101.5q-100 0 -182 40q-113 -184 -334 -184
q-121 0 -200.5 44.5t-139.5 113.5q-146 167 -274 186v80q35 -6 88 -6q154 0 243 72t89 194q0 105 -55 182.5t-149 97.5h-236v100h1570v-100zM1224 730q-97 0 -163.5 -73.5t-66.5 -176.5q0 -102 68 -176t162 -74q95 0 162.5 72.5t67.5 177.5q0 106 -66 178t-164 72zM151 -171
q-45 0 -77.5 33.5t-32.5 78.5q0 46 32 78t78 32q49 0 80.5 -31t31.5 -79q0 -46 -32.5 -79t-79.5 -33z" />
    <glyph glyph-name="uni095A_uni094D.half" horiz-adv-x="868" 
d="M938 940h-500q157 -29 268.5 -122.5t111.5 -217.5q0 -167 -129.5 -283.5t-310.5 -116.5q-131 0 -235.5 66.5t-104.5 173.5q0 104 83.5 172t196.5 68q184 0 240 -80q0 139 -93 239.5t-227 100.5h-244v100h944v-100zM418 600q-51 0 -85.5 -48t-34.5 -112t35.5 -112
t84.5 -48t84.5 46t35.5 114q0 69 -34 114.5t-86 45.5zM399 -141q-45 0 -77.5 33.5t-32.5 78.5q0 47 32 78.5t78 31.5q48 0 79 -31t31 -79q0 -47 -32 -79.5t-78 -32.5z" />
    <glyph glyph-name="uni095B_uni094D.half" horiz-adv-x="934" 
d="M1004 940h-1010v100h1010v-100zM974 640h-300q92 -31 146 -96t54 -144q0 -117 -104.5 -198.5t-255.5 -81.5q-181 0 -319.5 167.5t-160.5 412.5h60q34 -195 130.5 -322.5t209.5 -127.5q73 0 126.5 56.5t53.5 137.5q0 84 -58 140t-142 56h-60v80h620v-80zM534 -182
q-45 0 -78.5 32.5t-33.5 77.5q0 47 33 79.5t79 32.5q48 0 79 -31.5t31 -80.5q0 -46 -31.5 -78t-78.5 -32z" />
    <glyph glyph-name="uni095E_uni094D.half" horiz-adv-x="1028" 
d="M1098 940h-270v-200q97 80 240 80v-110q-197 0 -240 -50v-520q0 -32 30 -56t70 -24v-60h-460v60q40 0 70 22.5t30 57.5v70q-73 -50 -190 -50q-119 0 -204.5 94.5t-85.5 225.5v460h-94v100h1104v-100zM568 380v560h-220v-560q0 -49 32.5 -84.5t77.5 -35.5t77.5 35.5
t32.5 84.5zM352 -310q-45 0 -77.5 33.5t-32.5 78.5q0 47 32 78.5t78 31.5q48 0 79 -31t31 -79q0 -47 -32 -79.5t-78 -32.5z" />
    <glyph glyph-name="glyph221" horiz-adv-x="718" 
d="M868 330q-326 12 -490 94q-69 -44 -164.5 -74t-155.5 -30v100q105 0 210 60q-210 123 -210 320q0 129 91 214.5t229 85.5q137 0 228.5 -81.5t91.5 -218.5q0 -211 -210 -320q122 -60 380 -60v-90zM444 792q0 228 -64 228q-68 0 -68 -228q0 -171 66 -246q66 73 66 246z" />
    <glyph glyph-name="uni0924_uni094D_uni0930.rkrf_uni094D.half" horiz-adv-x="798" 
d="M868 940h-874v100h874v-100zM838 450l-690 -400l-50 70l400 240q-164 320 -320 320q-59 0 -130 -50l-30 50q62 74 142 117t158 43q116 0 231 -89t209 -251l80 50v-100z" />
    <glyph glyph-name="uni0924_uni094D.half_uni0924_uni094D.half.pres" horiz-adv-x="804" 
d="M874 940h-880v100h880v-100zM954 540q-100 120 -260 120q-115 0 -197.5 -75t-82.5 -185q0 -82 49 -157.5t131 -122.5l-240 -120q-95 79 -147.5 184.5t-52.5 215.5q0 86 43 162t117 118h-300v100h580q239 0 360 -140v-100z" />
    <glyph glyph-name="uni0915_uni094D_uni0937.akhn_uni094D.half" horiz-adv-x="1022" 
d="M1062 520h-500q-117 -32 -178.5 -96.5t-61.5 -143.5q0 -75 45 -127.5t115 -52.5q97 0 160 86v154h280q-20 -34 -20 -120v-140q0 -137 -103.5 -233.5t-246.5 -96.5l-10 70q41 0 70.5 40t29.5 100v126q-96 -146 -280 -146q-125 0 -212.5 87.5t-87.5 212.5q0 113 90.5 204.5
t229.5 115.5q-107 19 -183.5 85.5t-76.5 154.5q0 108 105.5 184t254.5 76q151 0 255.5 -75.5t104.5 -184.5q0 -114 -150 -200h370v-80zM482 1000q-42 0 -71 -60.5t-29 -139.5t30 -139.5t70 -60.5q42 0 71 57.5t29 142.5t-28.5 142.5t-71.5 57.5zM1092 940h-240v100h240v-100
z" />
    <glyph glyph-name="uni091C_uni094D_uni091E.akhn_uni094D.half" horiz-adv-x="992" 
d="M1062 940h-1068v100h1068v-100zM1032 680q-91 0 -270 40q-178 40 -270 40q-65 0 -112.5 -32t-47.5 -78q0 -55 58.5 -92.5t169.5 -37.5h50q138 0 220 -64t82 -156q0 -109 -120.5 -174.5t-269.5 -65.5q30 -44 77.5 -71t88.5 -27q33 0 64 18l40 -40q-81 -120 -206 -120
q-78 0 -134.5 36.5t-115.5 101.5q-112 123 -304 192l40 70q175 -84 310 -84q120 0 195 60t75 144q0 120 -150 120h-170q-107 0 -183.5 53.5t-76.5 126.5q0 99 98 159.5t222 60.5q108 0 320 -40t320 -40v-100z" />
    <glyph glyph-name="glyph226" horiz-adv-x="536" 
d="M606 940h-208v-778q0 -102 100 -102v-60h-460v60q100 0 100 102v778h-144v100h612v-100zM1346 1060h-260q-59 164 -190 262t-290 98q-111 0 -190.5 -64.5t-79.5 -155.5q0 -70 60 -140h-260q-60 70 -60 140q0 138 170 219t370 81q258 0 457.5 -120t272.5 -320zM1423 1248
q-45 0 -77.5 33.5t-32.5 78.5q0 47 32 78.5t78 31.5q48 0 79 -31t31 -79q0 -47 -32 -79.5t-78 -32.5z" />
    <glyph glyph-name="glyph227" horiz-adv-x="536" 
d="M606 940h-208v-778q0 -102 100 -102v-60h-460v60q100 0 100 102v778h-144v100h612v-100zM1558 1410h-140q-54 0 -91 -38.5t-37 -93.5q0 -19 7.5 -47t84.5 -171h-254q-59 165 -200.5 262.5t-319.5 97.5q-111 0 -190.5 -64.5t-79.5 -155.5q0 -70 60 -140h-260
q-60 70 -60 140q0 138 170 219t370 81q264 0 462 -108q93 98 258 98h220v-80z" />
    <glyph glyph-name="glyph228" horiz-adv-x="536" 
d="M606 940h-208v-778q0 -102 100 -102v-60h-460v60q100 0 100 102v778h-144v100h612v-100zM1558 1410h-140q-54 0 -91 -38.5t-37 -93.5q0 -19 7.5 -47t84.5 -171h-254q-59 165 -200.5 262.5t-319.5 97.5q-111 0 -190.5 -64.5t-79.5 -155.5q0 -70 60 -140h-260
q-60 70 -60 140q0 138 170 219t370 81q264 0 462 -108q93 98 258 98h220v-80zM1520 1122q-45 0 -77.5 33.5t-32.5 78.5q0 47 32 78.5t78 31.5q48 0 79 -31t31 -79q0 -47 -32 -79.5t-78 -32.5z" />
    <glyph glyph-name="glyph229" horiz-adv-x="536" 
d="M606 940h-208v-778q0 -102 100 -102v-60h-460v60q100 0 100 102v778h-144v100h612v-100zM1018 1060h-260q-12 146 -92.5 243t-187.5 97q-67 0 -113.5 -47.5t-46.5 -112.5q0 -51 22 -100.5t58 -79.5h-260q-80 99 -80 180q0 108 105.5 184t254.5 76q240 0 412 -126
t188 -314z" />
    <glyph glyph-name="glyph230" horiz-adv-x="536" 
d="M606 940h-208v-778q0 -102 100 -102v-60h-460v60q100 0 100 102v778h-144v100h612v-100zM1018 1060h-260q-12 146 -92.5 243t-187.5 97q-67 0 -113.5 -47.5t-46.5 -112.5q0 -51 22 -100.5t58 -79.5h-260q-80 99 -80 180q0 108 105.5 184t254.5 76q240 0 412 -126
t188 -314zM1133 1247q-45 0 -77.5 33.5t-32.5 78.5q0 47 32 78.5t78 31.5q48 0 79 -31t31 -79q0 -47 -32 -79.5t-78 -32.5z" />
    <glyph glyph-name="glyph231" horiz-adv-x="536" 
d="M606 940h-208v-778q0 -102 100 -102v-60h-460v60q100 0 100 102v778h-144v100h612v-100zM1218 1410h-130q-56 0 -93 -39t-37 -101q0 -35 23 -96q29 -80 37 -114h-260q-20 159 -98.5 249.5t-181.5 90.5q-67 0 -113.5 -47.5t-46.5 -112.5q0 -51 22 -100.5t58 -79.5h-260
q-80 99 -80 180q0 108 105.5 184t254.5 76q194 0 350 -88q88 78 230 78h220v-80z" />
    <glyph glyph-name="glyph232" horiz-adv-x="536" 
d="M606 940h-208v-778q0 -102 100 -102v-60h-460v60q100 0 100 102v778h-144v100h612v-100zM1218 1410h-130q-56 0 -93 -39t-37 -101q0 -35 23 -96q29 -80 37 -114h-260q-20 159 -98.5 249.5t-181.5 90.5q-67 0 -113.5 -47.5t-46.5 -112.5q0 -51 22 -100.5t58 -79.5h-260
q-80 99 -80 180q0 108 105.5 184t254.5 76q194 0 350 -88q88 78 230 78h220v-80zM1174 1111q-45 0 -77.5 33.5t-32.5 78.5q0 47 32 78.5t78 31.5q48 0 79 -31t31 -79q0 -47 -32 -79.5t-78 -32.5z" />
    <glyph glyph-name="uni0940_uni0902.abvs" horiz-adv-x="536" 
d="M606 940h-208v-778q0 -102 100 -102v-60h-460v60q100 0 100 102v778h-144v100h612v-100zM398 1060h-260q0 131 -75.5 235.5t-184.5 104.5q-67 0 -113.5 -41.5t-46.5 -98.5q0 -130 80 -200h-260q-80 99 -80 180q0 108 105.5 184t254.5 76q242 0 411 -134.5t169 -305.5z
M496 1241q-45 0 -77.5 33.5t-32.5 78.5q0 47 32 78.5t78 31.5q48 0 79 -31t31 -79q0 -47 -32 -79.5t-78 -32.5z" />
    <glyph glyph-name="uni0940_uni0930_uni094D.rphf.abvs" horiz-adv-x="536" 
d="M606 940h-208v-778q0 -102 100 -102v-60h-460v60q100 0 100 102v778h-144v100h612v-100zM658 1410h-136q-124 0 -124 -126v-224h-260q-3 137 -78 238.5t-182 101.5q-67 0 -113.5 -41.5t-46.5 -98.5q0 -130 80 -200h-260q-80 99 -80 180q0 108 105.5 184t254.5 76
q207 0 356 -114q84 104 264 104h220v-80z" />
    <glyph glyph-name="glyph235" horiz-adv-x="536" 
d="M606 940h-208v-778q0 -102 100 -102v-60h-460v60q100 0 100 102v778h-144v100h612v-100zM658 1410h-136q-124 0 -124 -126v-224h-260q-3 137 -78 238.5t-182 101.5q-67 0 -113.5 -41.5t-46.5 -98.5q0 -130 80 -200h-260q-80 99 -80 180q0 108 105.5 184t254.5 76
q207 0 356 -114q84 104 264 104h220v-80zM588 1114q-45 0 -77.5 33.5t-32.5 78.5q0 47 32 78.5t78 31.5q48 0 79 -31t31 -79q0 -47 -32 -79.5t-78 -32.5z" />
    <glyph glyph-name="glyph236" horiz-adv-x="536" 
d="M606 940h-208v-778q0 -102 100 -102v-60h-460v60q100 0 100 102v778h-144v100h612v-100zM398 1060h-260q0 140 -165.5 250t-404.5 110q-127 0 -218.5 -62t-91.5 -148q0 -80 80 -150h-260q-80 99 -80 150q0 120 159.5 205t390.5 85q350 0 595.5 -130.5t254.5 -309.5z" />
    <glyph glyph-name="glyph237" horiz-adv-x="536" 
d="M606 940h-208v-778q0 -102 100 -102v-60h-460v60q100 0 100 102v778h-144v100h612v-100zM398 1060h-260q0 140 -165.5 250t-404.5 110q-127 0 -218.5 -62t-91.5 -148q0 -80 80 -150h-260q-80 99 -80 150q0 120 159.5 205t390.5 85q350 0 595.5 -130.5t254.5 -309.5z
M511 1235q-45 0 -77.5 33.5t-32.5 78.5q0 47 32 78.5t78 31.5q48 0 79 -31t31 -79q0 -47 -32 -79.5t-78 -32.5z" />
    <glyph glyph-name="glyph238" horiz-adv-x="536" 
d="M606 940h-208v-778q0 -102 100 -102v-60h-460v60q100 0 100 102v778h-144v100h612v-100zM578 1410h-134q-54 0 -90 -36t-36 -90q0 -19 6.5 -38t43.5 -94q26 -58 30 -92h-260q0 140 -165.5 250t-404.5 110q-127 0 -218.5 -62t-91.5 -148q0 -80 80 -150h-260
q-80 99 -80 150q0 120 159.5 205t390.5 85q336 0 576 -122q73 112 234 112h220v-80z" />
    <glyph glyph-name="glyph239" horiz-adv-x="536" 
d="M606 940h-208v-778q0 -102 100 -102v-60h-460v60q100 0 100 102v778h-144v100h612v-100zM578 1410h-134q-54 0 -90 -36t-36 -90q0 -19 6.5 -38t43.5 -94q26 -58 30 -92h-260q0 140 -165.5 250t-404.5 110q-127 0 -218.5 -62t-91.5 -148q0 -80 80 -150h-260
q-80 99 -80 150q0 120 159.5 205t390.5 85q336 0 576 -122q73 112 234 112h220v-80zM574 1111q-45 0 -77.5 33.5t-32.5 78.5q0 47 32 78.5t78 31.5q48 0 79 -31t31 -79q0 -47 -32 -79.5t-78 -32.5z" />
    <glyph glyph-name="glyph240" horiz-adv-x="0" 
d="M-988 -240h190q14 -78 125.5 -129t264.5 -51q282 0 282 146q0 104 -68 104q-70 0 -74 -130h-200q34 188 282 188q133 0 214.5 -48t81.5 -116q0 -98 -151.5 -161t-366.5 -63q-209 0 -394.5 69.5t-185.5 190.5z" />
    <glyph glyph-name="glyph241" horiz-adv-x="0" 
d="M332 -500h-220q0 130 -86 221t-214 91q-92 0 -146 -36.5t-54 -99.5q0 -34 16.5 -65t43.5 -31q60 0 60 116h160q0 -81 -74 -138.5t-186 -57.5q-85 0 -142.5 54.5t-57.5 131.5q0 89 94 146.5t248 57.5q224 0 375 -107.5t183 -282.5z" />
    <glyph glyph-name="glyph242" horiz-adv-x="0" 
d="M-908 -240h180q14 -78 105.5 -129t214.5 -51q98 0 169 41.5t71 98.5q0 45 -25.5 77.5t-64.5 32.5q-41 0 -65.5 -39.5t-24.5 -90.5h-200q8 84 91.5 142t198.5 58q123 0 206.5 -52.5t83.5 -127.5q0 -104 -166.5 -162t-353.5 -58q-173 0 -296.5 76t-123.5 184z" />
    <glyph glyph-name="glyph243" horiz-adv-x="0" 
d="M352 -500h-240q-25 140 -128.5 230t-241.5 90q-55 0 -92.5 -40.5t-37.5 -99.5q0 -41 18 -70.5t42 -29.5t42 35.5t18 84.5h160q0 -82 -77 -141t-183 -59q-96 0 -159 60.5t-63 134.5q0 78 94 141.5t228 63.5q211 0 381.5 -108t238.5 -292z" />
    <glyph glyph-name="glyph244" horiz-adv-x="0" 
d="M-158 -500h-312v30q31 0 56.5 13t25.5 33v38q-64 -60 -224 -60q-99 0 -170.5 60.5t-71.5 145.5q0 83 71.5 143.5t170.5 60.5q144 0 224 -76v176h148v-488q0 -20 25.5 -33t56.5 -13v-30zM-388 -332v184q-45 34 -112 34q-72 0 -121 -37t-49 -89q0 -50 48 -88t112 -38
q69 0 122 34z" />
    <glyph glyph-name="glyph245" horiz-adv-x="1264" 
d="M1334 940h-208v-800q0 -32 30 -56t70 -24v-60h-460v60q40 0 70 22.5t30 57.5v200q-37 -102 -135.5 -161t-224.5 -59q-165 0 -282.5 100.5t-117.5 239.5q80 0 140 35t60 85q0 52 -57.5 86t-142.5 34h-112v80h262q129 0 219.5 -50t90.5 -120q0 -71 -58.5 -120.5
t-141.5 -49.5q0 -81 70.5 -140.5t169.5 -59.5q109 0 184.5 76t75.5 184v440h-872v100h1340v-100z" />
    <glyph glyph-name="uni0931_uni094D.half" horiz-adv-x="570" 
d="M640 940h-646v100h646v-100zM610 520h-260q-110 0 -201.5 48.5t-138.5 131.5h260q57 -100 260 -100h80v-80z" />
    <glyph glyph-name="glyph247" horiz-adv-x="1472" 
d="M1542 940h-388v-120q117 -30 188.5 -130.5t71.5 -229.5q0 -157 -100.5 -268.5t-233.5 -111.5q-123 0 -206 120l50 50q31 -50 80 -50q68 0 109 74.5t41 165.5q0 110 -52.5 185t-127.5 75q-83 0 -136.5 -72.5t-53.5 -167.5h-70q-11 121 -67.5 180.5t-132.5 59.5
q-82 0 -141 -77t-59 -183q0 -95 53.5 -167.5t136.5 -72.5q69 0 100 50l50 -50q-78 -120 -254 -120q-151 0 -247.5 111.5t-96.5 266.5q0 149 105.5 255.5t252.5 106.5q115 0 206 -53t124 -157l10 -2q66 186 200 212v120h-960v100h1548v-100z" />
    <glyph glyph-name="uni0915_uni094D_uni0930.rkrf" horiz-adv-x="1706" 
d="M1776 940h-784v-140q103 60 260 60q166 0 283 -102.5t117 -257.5t-107.5 -265.5t-282.5 -110.5q-117 0 -212 60l14 64q32 -18 84 -18q110 0 177 73.5t67 188.5q0 114 -68 191t-172 77q-92 0 -160 -40v-580q0 -32 30 -56t70 -24v-60h-460v60q40 0 70 22.5t30 57.5v76
q-354 -236 -670 -266v140q225 0 380 56q-171 12 -270.5 113t-99.5 241q0 156 116.5 258t283.5 102q157 0 260 -60v140h-738v100h1782v-100zM732 280v440q-68 40 -140 40q-108 0 -184 -75.5t-76 -184.5q0 -108 76 -184t184 -76q67 0 140 40z" />
    <glyph glyph-name="uni0916_uni094D_uni0930.rkrf" horiz-adv-x="1792" 
d="M1862 940h-208v-800q0 -32 30 -56t70 -24v-60h-460v60q40 0 70 22.5t30 57.5v80q-100 -100 -260 -100q-38 0 -90 12q-229 -160 -442 -246t-378 -86v140q226 0 396 62v10q-122 0 -193.5 25.5t-168.5 122.5q-100 101 -148 126.5t-96 33.5v80q59 -10 108 -10
q145 0 228.5 74.5t83.5 195.5q0 99 -63 178.5t-167 101.5h-210v100h1868v-100zM1394 760v180h-960q117 -39 187.5 -122.5t70.5 -187.5q0 -121 -88.5 -202.5t-223.5 -95.5q206 -232 374 -232q139 0 210 60q-94 43 -152 132t-58 188q0 143 110.5 246.5t269.5 103.5
q161 0 260 -70zM1394 280v400q-56 50 -140 50q-101 0 -170.5 -72.5t-69.5 -177.5q0 -103 70.5 -176.5t169.5 -73.5q81 0 140 50z" />
    <glyph glyph-name="uni0917_uni094D_uni0930.rkrf" horiz-adv-x="1406" 
d="M1476 940h-208v-800q0 -32 30 -56t70 -24v-60h-460v60q40 0 70 22.5t30 57.5v122q-415 -278 -790 -312v140q477 41 790 244v606h-570q157 -29 268.5 -122.5t111.5 -217.5q0 -167 -129.5 -283.5t-310.5 -116.5q-131 0 -235.5 66.5t-104.5 173.5t104.5 173.5t235.5 66.5
q125 0 180 -80q0 139 -93 239.5t-227 100.5h-244v100h1482v-100zM418 600q-51 0 -85.5 -48t-34.5 -112t35.5 -112t84.5 -48t84.5 46t35.5 114q0 69 -34 114.5t-86 45.5z" />
    <glyph glyph-name="uni091C_uni094D_uni0930.rkrf" horiz-adv-x="1376" 
d="M1446 940h-208v-800q0 -32 30 -56t70 -24v-60h-460v60q40 0 70 22.5t30 57.5v110q-424 -285 -800 -320v140q427 0 800 250v390h-300v-10q79 -25 124.5 -84.5t45.5 -135.5q0 -113 -104 -191.5t-246 -78.5q-189 0 -324.5 164.5t-135.5 395.5h60q14 -165 115.5 -277.5
t234.5 -112.5q71 0 120.5 50t49.5 120q0 68 -57.5 114t-142.5 46h-60v80h620v150h-984v100h1452v-100z" />
    <glyph glyph-name="uni091D_uni094D_uni0930.rkrf" horiz-adv-x="1542" 
d="M1612 940h-208v-800q0 -32 30 -56t70 -24v-60h-460v60q40 0 70 22.5t30 57.5v100q-151 -107 -290 -120v140q174 16 290 60v60h-300q0 -119 -86.5 -188.5t-237.5 -69.5h-88q36 -42 100.5 -80t107.5 -38q44 0 96 28l30 -40q-119 -108 -240 -108q-134 0 -256 126
q-107 112 -149.5 153t-82.5 47v60h286q20 -37 58 -88q84 0 145 40.5t61 107.5q0 60 -45 95t-115 35h-160q-78 0 -139 52.5t-61 127.5q0 76 59 125t141 49h220v126h-494v100h1618v-100zM1144 460v480h-396v-208h-260q-69 0 -114.5 -28.5t-45.5 -79.5q0 -43 36 -68.5t88 -25.5
q31 0 90 5q60 5 86 5q154 0 200 -80h316z" />
    <glyph glyph-name="uni0924_uni094D_uni0930.rkrf" horiz-adv-x="1236" 
d="M1306 940h-208v-800q0 -32 30 -56t70 -24v-60h-460v60q40 0 70 22.5t30 57.5v310l-690 -400l-50 70l400 240q-164 320 -320 320q-59 0 -130 -50l-30 50q62 74 142 117t158 43q116 0 231 -89t209 -251l80 50v390h-844v100h1312v-100z" />
    <glyph glyph-name="uni0926_uni094D_uni0930.rkrf" horiz-adv-x="1006" 
d="M1074 940h-184v-220h-280q-125 0 -212.5 -80.5t-87.5 -195.5q0 -116 88.5 -195t211.5 -79q63 0 100 20q6 34 6 66q0 63 -26 134h260q0 -184 -82.5 -327.5t-217.5 -192.5l-42 60q67 51 102 180q-94 -35 -193 -39l-365 -227l-80 150l283 93q-126 34 -215.5 128.5
t-89.5 218.5q0 151 128.5 258.5t311.5 107.5h140v140h-636v100h1080v-100z" />
    <glyph glyph-name="uni092A_uni094D_uni0930.rkrf" horiz-adv-x="1218" 
d="M1288 940h-208v-800q0 -32 30 -56t70 -24v-60h-460v60q40 0 70 22.5t30 57.5v182q-341 -362 -770 -402v140q293 0 520 142q-205 6 -337.5 118.5t-132.5 269.5v350h-106v100h1294v-100zM820 440v500h-460v-428q0 -104 64 -168t156 -64q105 0 240 160z" />
    <glyph glyph-name="uni092B_uni094D_uni0930.rkrf" horiz-adv-x="1522" 
d="M1592 940h-722v-200q69 80 240 80q151 0 255.5 -99.5t104.5 -240.5q0 -151 -105.5 -255.5t-254.5 -104.5q-110 0 -180 60v80q38 -20 70 -20q97 0 163.5 63.5t66.5 156.5q0 101 -66.5 170.5t-163.5 69.5q-98 0 -130 -40v-520q0 -32 30 -56t70 -24v-60h-460v60
q40 0 70 22.5t30 57.5v158q-342 -277 -570 -298v140q318 31 446 154q-38 -4 -66 -4q-52 0 -127 36.5t-119 110.5t-44 163v340h-136v100h1598v-100zM610 430v510h-220v-440q0 -48 36 -84t84 -36q71 0 100 50z" />
    <glyph glyph-name="uni092C_uni094D_uni0930.rkrf" horiz-adv-x="1164" 
d="M1234 940h-208v-800q0 -32 30 -56t70 -24v-60h-460v60q40 0 70 22.5t30 57.5v84q-349 -284 -710 -316v140q198 7 396 88q-175 7 -280.5 102.5t-105.5 241.5q0 155 118 257.5t282 102.5q190 0 300 -120v220h-772v100h1240v-100zM766 380v260q-79 80 -180 80
q-112 0 -160 -40zM726 300l-360 320q-40 -40 -40 -140q0 -103 76.5 -171.5t183.5 -68.5q80 0 140 60z" />
    <glyph glyph-name="uni092D_uni094D_uni0930.rkrf" horiz-adv-x="1284" 
d="M1354 940h-208v-800q0 -32 30 -56t70 -24v-60h-460v60q40 0 70 22.5t30 57.5v80q-414 -267 -770 -300v140q396 0 770 230v110h-240v-40q0 -93 -73 -156.5t-187 -63.5q-118 0 -189 55.5t-71 140.5q0 75 69 119.5t163 44.5h28v60h-18q-146 0 -234 70t-88 170
q0 105 90 172.5t210 67.5t210 -67.5t90 -172.5v-300h240v440h-100v100h568v-100zM386 620v200q0 140 -50 140t-50 -160q0 -180 82 -180h18zM386 320v80h-42q-98 0 -98 -80q0 -43 23.5 -71.5t56.5 -28.5q60 0 60 100z" />
    <glyph glyph-name="uni092E_uni094D_uni0930.rkrf" horiz-adv-x="1208" 
d="M1278 940h-208v-800q0 -32 30 -56t70 -24v-60h-460v60q40 0 70 22.5t30 57.5v80q-414 -267 -770 -300v140q396 0 770 230v150h-200v-60q0 -99 -98 -159.5t-222 -60.5q-98 0 -167 51.5t-69 136.5q0 84 70.5 138t165.5 54h60v400h-356v100h1284v-100zM810 540v400h-200
v-400h200zM350 340v100h-40q-36 0 -58 -29t-22 -71q0 -43 17.5 -71.5t42.5 -28.5q24 0 42 28.5t18 71.5z" />
    <glyph glyph-name="uni0935_uni094D_uni0930.rkrf" horiz-adv-x="1164" 
d="M1234 940h-208v-800q0 -32 30 -56t70 -24v-60h-460v60q40 0 70 22.5t30 57.5v82q-346 -282 -710 -314v140q198 7 396 88q-175 7 -280.5 102.5t-105.5 241.5q0 155 118 257.5t282 102.5q190 0 300 -120v220h-772v100h1240v-100zM766 320v320q-79 80 -180 80
q-107 0 -183.5 -68.5t-76.5 -171.5t71.5 -171.5t182.5 -68.5q105 0 186 80z" />
    <glyph glyph-name="uni0938_uni094D_uni0930.rkrf" horiz-adv-x="1570" 
d="M1640 940h-208v-800q0 -32 30 -56t70 -24v-60h-460v60q40 0 70 22.5t30 57.5v156q-152 -118 -330 -136l-40 140q216 18 370 78v112q-102 58 -206 58q-114 0 -194 -48l20 140q56 32 128 32q128 0 252 -72v340h-760q153 -41 246.5 -128.5t93.5 -191.5q0 -112 -97 -203
t-243 -117q58 -70 112 -110t88 -40q76 0 120 50l60 -40q-136 -160 -280 -160q-66 0 -130.5 36t-139.5 124q-122 143 -230 180l22 70q94 -30 178 -30q115 0 197.5 75t82.5 185q0 128 -101.5 214t-238.5 86h-158v100h1646v-100z" />
    <glyph glyph-name="uni0939_uni094D_uni0930.rkrf" horiz-adv-x="1006" 
d="M1076 940h-228v-160h-300q-44 0 -72 -23.5t-28 -56.5q0 -32 30 -56t70 -24h70q137 0 233.5 -81.5t96.5 -198.5q0 -98 -91.5 -159t-208.5 -61t-180 50l40 50q28 -15 55 -15q44 0 84.5 36.5t40.5 98.5h-200v60h200q0 68 -46 114t-114 46q-96 0 -158 -77t-62 -183
q0 -134 100.5 -227t239.5 -93q189 0 320 60l-60 -140h-260q-247 0 -423.5 117.5t-176.5 282.5q0 107 78.5 192.5t201.5 107.5q-57 9 -98.5 42.5t-41.5 77.5q0 50 62.5 85t157.5 35h180v100h-594v100h1082v-100z" />
    <glyph glyph-name="glyph263" horiz-adv-x="1256" 
d="M1326 940h-208v-800q0 -32 30 -56t70 -24v-60h-460v60q40 0 70 22.5t30 57.5v170q-288 0 -480 110q-214 -100 -320 -100v100q103 0 210 58q-210 123 -210 322q0 129 91 214.5t229 85.5q137 0 228.5 -81.5t91.5 -218.5q0 -211 -210 -320q132 -90 370 -90v550h-80v100h548
v-100zM444 792q0 228 -64 228q-68 0 -68 -228q0 -171 66 -246q66 73 66 246z" />
    <glyph glyph-name="glyph264" horiz-adv-x="1628" 
d="M1698 940h-764v-170q116 40 240 40q168 0 294 -46t126 -134q0 -138 -394 -162q354 -35 354 -168q0 -73 -99.5 -117.5t-268.5 -44.5q-120 0 -242 52l20 50q88 -32 130 -32q180 0 180 102q0 117 -290 140v40q330 22 330 144q0 49 -68.5 77.5t-141.5 28.5q-90 0 -170 -30
v-570q0 -41 42 -70.5t98 -29.5v-40h-540v40q56 0 98 29t42 71v30q-152 -70 -300 -70q-141 0 -230.5 53.5t-89.5 136.5q0 64 71 114t189 66q-117 7 -183.5 54.5t-66.5 103.5q0 80 85 131t225 51q183 0 300 -50v180h-680v100h1704v-100zM674 550v150q-82 38 -172 38
q-83 0 -135.5 -35.5t-52.5 -92.5q0 -45 51 -80.5t129 -35.5q83 0 180 56zM674 410v80l-100 -40zM674 230v130q-103 60 -200 60q-71 0 -125.5 -38t-54.5 -92q0 -50 51.5 -85t128.5 -35q94 0 200 60z" />
    <glyph glyph-name="uni0915_uni094D.half_uni0924.pres" horiz-adv-x="1848" 
d="M1918 940h-784v-140q103 60 260 60q168 0 284 -104t116 -256q0 -159 -117.5 -269.5t-282.5 -110.5q-101 0 -200 70l20 70q36 -20 60 -20q109 0 184.5 76t75.5 184q0 109 -75.5 184.5t-184.5 75.5q-84 0 -140 -40v-580q0 -32 30 -56t70 -24v-60h-460v60q40 0 70 22.5
t30 57.5v420q-31 37 -83.5 63.5t-96.5 26.5q-115 0 -197.5 -75t-82.5 -185q0 -82 49 -157.5t131 -122.5l-240 -120q-95 79 -147.5 184.5t-52.5 215.5q0 86 43 162t117 118h-300v100h580q178 0 280 -100v270h-880v100h1924v-100z" />
    <glyph glyph-name="glyph266" horiz-adv-x="1518" 
d="M1588 940h-710v-114q96 50 234 50q152 0 256 -86t104 -210q0 -129 -105.5 -219.5t-254.5 -90.5q-86 0 -180 58l18 56q28 -14 54 -14q97 0 165.5 61.5t68.5 148.5q0 90 -68 152t-166 62q-66 0 -126 -32v-576q73 44 166 44q131 0 223.5 -85.5t92.5 -206.5
q0 -127 -90.5 -218.5t-217.5 -91.5q-48 0 -97.5 25.5t-82.5 70.5l46 42q27 -42 72 -42q56 0 95 56t39 140q0 90 -46.5 151t-115.5 61q-71 0 -120.5 -56.5t-49.5 -137.5h-64q0 82 -52 138t-130 56q-73 0 -126.5 -62.5t-53.5 -149.5q0 -81 50.5 -138.5t121.5 -57.5q63 0 90 42
l46 -42q-65 -96 -244 -96q-120 0 -208 92t-88 218q0 119 95.5 205.5t228.5 86.5q107 0 184 -44v166q-109 -82 -234 -82q-148 0 -254 92t-106 218q0 121 104.5 208.5t255.5 87.5q138 0 234 -50v114h-648v100h1594v-100zM642 402v360q-60 32 -126 32q-97 0 -165.5 -63.5
t-68.5 -150.5q0 -85 69.5 -147.5t164.5 -62.5q66 0 126 32z" />
    <glyph glyph-name="glyph267" horiz-adv-x="1602" 
d="M1672 940h-738v-170q68 40 220 40q168 0 284 -96t116 -234q0 -137 -124 -233.5t-296 -96.5q-122 0 -190 40l20 60q60 -20 106 -20q83 0 153.5 71t70.5 179q0 109 -66.5 184.5t-163.5 75.5q-73 0 -130 -30v-570q0 -41 42 -70.5t98 -29.5v-40h-540v40q56 0 98 29t42 71v30
q-152 -70 -310 -70q-127 0 -218.5 56t-91.5 134q0 62 74 111t186 59v10q-102 0 -176 47.5t-74 112.5q0 74 87 127t213 53q240 0 310 -50v180h-680v100h1678v-100zM674 550v150q-67 40 -200 40q-65 0 -112.5 -38.5t-47.5 -91.5q0 -49 48 -84.5t112 -35.5q94 0 200 60z
M674 410v80l-100 -40zM674 230v130q-103 60 -200 60q-73 0 -126.5 -38t-53.5 -92q0 -49 54 -84.5t126 -35.5q94 0 200 60z" />
    <glyph glyph-name="glyph268" horiz-adv-x="2046" 
d="M2116 940h-208v-800q0 -32 30 -56t70 -24v-60h-460v60q40 0 70 22.5t30 57.5v380q-246 0 -470 -60q129 0 219.5 -75.5t90.5 -184.5q0 -125 -110.5 -212.5t-269.5 -87.5q-157 0 -268.5 82t-111.5 198q0 190 249.5 305t670.5 115v340h-1210q157 -29 268.5 -122.5
t111.5 -217.5q0 -167 -129.5 -283.5t-310.5 -116.5q-131 0 -235.5 66.5t-104.5 173.5t104.5 173.5t235.5 66.5q125 0 180 -80q0 139 -93 239.5t-227 100.5h-244v100h2122v-100zM418 600q-51 0 -85.5 -48t-34.5 -112t35.5 -112t84.5 -48t84.5 46t35.5 114q0 69 -34 114.5
t-86 45.5zM1108 400q-66 0 -113 -65t-47 -155q0 -91 47.5 -155.5t112.5 -64.5q66 0 113 63t47 157t-46.5 157t-113.5 63z" />
    <glyph glyph-name="glyph269" horiz-adv-x="1258" 
d="M1328 940h-474v-150h-344q-138 0 -138 -72q0 -34 40.5 -56t99.5 -22h202q136 0 211 -44t75 -112q0 -156 -304 -182v-90q58 40 168 40q107 0 190.5 -57t83.5 -147t-83.5 -147t-190.5 -57q-69 0 -144 36v44q40 -12 80 -12q58 0 98 39t40 97q0 60 -35 105t-89 45
q-53 0 -118 -30v-324q0 -23 21.5 -41.5t50.5 -18.5v-24h-344v24q31 0 51.5 17.5t20.5 42.5v40q-67 -40 -168 -40q-117 0 -200.5 60t-83.5 144t83.5 144t200.5 60q100 0 168 -60v110q-290 26 -478 178l44 58q177 -148 446 -148q254 0 254 90q0 34 -44.5 57t-115.5 23h-184
q-127 0 -206.5 45t-79.5 111q0 64 70.5 104t189.5 40h230v80h-628v100h1334v-100zM496 -62v220q-47 26 -104 26q-61 0 -104.5 -40.5t-43.5 -95.5t37.5 -95.5t90.5 -40.5q62 0 124 26zM1156 594q-44 0 -77 33t-33 77q0 47 32 78.5t78 31.5q49 0 80.5 -31t31.5 -79
q0 -46 -32.5 -78t-79.5 -32z" />
    <glyph glyph-name="glyph270" horiz-adv-x="1258" 
d="M1328 940h-474v-150h-344q-138 0 -138 -72q0 -34 40.5 -56t99.5 -22h202q136 0 211 -44t75 -112q0 -53 -42 -94v-506q0 -23 19.5 -41.5t46.5 -18.5v-24h-324v24q25 0 41.5 17.5t16.5 42.5v40q-44 -40 -120 -40q-82 0 -136 42q-71 -126 -176 -126q-56 0 -111 37t-87 95
q-37 67 -90 84l20 44q32 -12 42 -12q45 0 78.5 42t33.5 106q0 120 -62 200q-72 36 -132 84l44 58q177 -148 446 -148q254 0 254 90q0 34 -44.5 57t-115.5 23h-184q-127 0 -206.5 45t-79.5 111q0 64 70.5 104t189.5 40h230v80h-628v100h1334v-100zM758 236v74
q-78 -12 -176 -12q-136 0 -272 38q64 -46 84 -83t20 -77q0 -76 -73 -124t-165 -48l80 -96q12 -15 40.5 -27.5t57.5 -12.5q69 0 122 96q-48 48 -48 116q0 77 59.5 131.5t140.5 54.5q96 0 130 -30zM758 -22v204q-44 26 -60 26q-41 0 -69.5 -38t-28.5 -90t30 -90t68 -38
q32 0 60 26zM1156 594q-44 0 -77 33t-33 77q0 47 32 78.5t78 31.5q49 0 80.5 -31t31.5 -79q0 -46 -32.5 -78t-79.5 -32z" />
    <glyph glyph-name="glyph271" horiz-adv-x="1258" 
d="M1328 940h-474v-150h-344q-138 0 -138 -72q0 -34 40.5 -56t99.5 -22h202q136 0 211 -44t75 -112q0 -104 -144 -152v-418q0 -23 21.5 -41.5t50.5 -18.5v-24h-346v24q31 0 51.5 17.5t20.5 42.5v386q-40 -2 -72 -2q-77 0 -162 14q156 -116 156 -228q0 -95 -88.5 -160.5
t-215.5 -65.5q-101 0 -173.5 45.5t-72.5 108.5q0 66 72 105t160 39q80 0 120 -52q5 22 5 44q0 105 -115 202q-150 50 -250 130l44 58q177 -148 446 -148q254 0 254 90q0 34 -44.5 57t-115.5 23h-184q-127 0 -206.5 45t-79.5 111q0 64 70.5 104t189.5 40h230v80h-628v100
h1334v-100zM258 112q-30 0 -51 -30t-21 -70t21.5 -70t50.5 -30q28 0 49 28t21 72q0 45 -20 72.5t-50 27.5zM1156 594q-44 0 -77 33t-33 77q0 47 32 78.5t78 31.5q49 0 80.5 -31t31.5 -79q0 -46 -32.5 -78t-79.5 -32z" />
    <glyph glyph-name="glyph272" horiz-adv-x="1258" 
d="M1328 940h-474v-150h-344q-138 0 -138 -72q0 -34 40.5 -56t99.5 -22h202q136 0 211 -44t75 -112q0 -123 -202 -166v-474q0 -23 21.5 -41.5t50.5 -18.5v-24h-344v24q31 0 51.5 17.5t20.5 42.5v32q-98 -68 -206 -68q-104 0 -195 38.5t-91 105.5q0 45 63.5 84t150.5 60
q-87 6 -150.5 41.5t-63.5 78.5q0 85 224 114q-186 48 -312 150l44 58q177 -148 446 -148q254 0 254 90q0 34 -44.5 57t-115.5 23h-184q-127 0 -206.5 45t-79.5 111q0 64 70.5 104t189.5 40h230v80h-628v100h1334v-100zM598 -78v376q-85 0 -136 8q-124 -35 -124 -100
q0 -36 41.5 -62t98.5 -26v-44q-60 0 -100 -29t-40 -69q0 -39 37.5 -63.5t86.5 -24.5q84 0 136 34zM1156 594q-44 0 -77 33t-33 77q0 47 32 78.5t78 31.5q49 0 80.5 -31t31.5 -79q0 -46 -32.5 -78t-79.5 -32z" />
    <glyph glyph-name="uni0919_uni094D_uni092E.cjct" horiz-adv-x="1258" 
d="M1328 940h-474v-150h-344q-138 0 -138 -72q0 -34 40.5 -56t99.5 -22h202q136 0 211 -44t75 -112q0 -78 -86 -126v-460q0 -26 22 -48t50 -22v-34h-348v34q29 0 50.5 20.5t21.5 49.5v180h-166v-56q0 -72 -74 -120t-190 -48q-95 0 -164.5 44t-69.5 106q0 66 62.5 108
t141.5 42h92v174q-195 48 -324 152l44 58q177 -148 446 -148q254 0 254 90q0 34 -44.5 57t-115.5 23h-184q-127 0 -206.5 45t-79.5 111q0 64 70.5 104t189.5 40h230v80h-628v100h1334v-100zM710 154v152q-81 -8 -128 -8h-38v-144h166zM342 -10v88q-144 0 -144 -82
q0 -35 22.5 -58.5t49.5 -23.5q72 0 72 76zM1156 594q-44 0 -77 33t-33 77q0 47 32 78.5t78 31.5q49 0 80.5 -31t31.5 -79q0 -46 -32.5 -78t-79.5 -32z" />
    <glyph glyph-name="glyph274" horiz-adv-x="1258" 
d="M1328 940h-474v-150h-344q-138 0 -138 -72q0 -34 40.5 -56t99.5 -22h202q136 0 211 -44t75 -112q0 -89 -108 -138v-542q0 -23 21.5 -41.5t50.5 -18.5v-24h-346v24q31 0 51.5 17.5t20.5 42.5v248h-332q-57 0 -95.5 -41.5t-38.5 -98.5q0 -51 35.5 -87.5t82.5 -36.5
q20 0 35 21t15 55v72h204q-14 -37 -14 -72v-84q0 -70 -78 -119t-184 -49v36q29 0 50.5 20.5t21.5 51.5v40q-38 -30 -108 -30q-100 0 -180 51t-80 133q0 71 60.5 119.5t157.5 70.5q-80 11 -127 50.5t-47 81.5q0 93 170 122q-125 46 -220 122l44 58q177 -148 446 -148
q254 0 254 90q0 34 -44.5 57t-115.5 23h-184q-127 0 -206.5 45t-79.5 111q0 64 70.5 104t189.5 40h230v80h-628v100h1334v-100zM308 322q-24 0 -42 -28.5t-18 -69.5q0 -33 17 -60.5t43 -27.5t43 27.5t17 60.5q0 41 -17.5 69.5t-42.5 28.5zM690 116v186q-50 -4 -108 -4
q-29 0 -78 4q44 -30 44 -78q0 -67 -118 -108h260zM1156 594q-44 0 -77 33t-33 77q0 47 32 78.5t78 31.5q49 0 80.5 -31t31.5 -79q0 -46 -32.5 -78t-79.5 -32z" />
    <glyph glyph-name="glyph275" horiz-adv-x="1982" 
d="M2052 940h-208v-800q0 -32 30 -56t70 -24v-60h-460v60q40 0 70 22.5t30 57.5v140q-71 -85 -174.5 -132.5t-215.5 -47.5q-115 0 -202.5 50.5t-132.5 126.5q-70 -83 -173 -130t-214 -47q-153 0 -261.5 91.5t-108.5 218.5q0 100 80 180t200 104v6h-360v80h700v-80h-88
q-120 0 -196 -76t-76 -184q0 -92 70 -156t174 -64q122 0 227 121q-9 33 -9 69q0 101 80 180.5t200 103.5v6h-360v80h700v-80h-90q-118 0 -194 -76t-76 -184q0 -94 70.5 -157t169.5 -63q70 0 138.5 41t121.5 119v560h-1590v100h2058v-100z" />
    <glyph glyph-name="glyph276" horiz-adv-x="1106" 
d="M1176 940h-292v-36q77 -18 124.5 -74.5t47.5 -129.5q0 -138 -67.5 -244t-174.5 -146v-466q0 -19 26.5 -34.5t63.5 -15.5v-34h-376v34q36 0 63 15.5t27 34.5v102q-87 -86 -248 -86q-107 0 -183.5 55.5t-76.5 132.5q0 78 75 133t185 55q161 0 248 -86v130q-46 -4 -66 -4
q-223 0 -358.5 58.5t-135.5 153.5q0 61 61.5 107.5t148.5 52.5q-69 6 -120.5 44.5t-51.5 95.5q0 56 72 96t200 40q61 0 126 -18l-18 -56q-32 12 -72 12q-42 0 -72 -27.5t-30 -68.5q0 -42 37 -69t85 -27h34v-64h-34q-51 0 -85.5 -31.5t-34.5 -74.5q0 -67 72.5 -116.5
t173.5 -49.5q107 0 192.5 62t119.5 164h-80q-89 0 -152.5 52.5t-63.5 123.5q0 58 39 104.5t103 63.5v36h-714v100h1182v-100zM862 622q18 35 18 96t-20.5 100.5t-49.5 39.5q-30 0 -49 -31.5t-19 -72.5q0 -53 22.5 -92.5t53.5 -39.5h44zM618 -14v124q-50 38 -134 38
q-64 0 -106 -29t-42 -71q0 -41 44 -70.5t104 -29.5q75 0 134 38z" />
    <glyph glyph-name="glyph277" horiz-adv-x="2106" 
d="M2176 940h-208v-800q0 -32 30 -56t70 -24v-60h-460v60q40 0 70 22.5t30 57.5v500h-390q92 -31 146 -110t54 -180q0 -127 -100.5 -218.5t-239.5 -91.5q-101 0 -192 48t-144 128q-46 -82 -134 -129t-190 -47q-179 0 -317.5 187.5t-162.5 462.5l60 10q36 -201 134.5 -350.5
t225.5 -149.5q65 0 112.5 58t47.5 142q0 101 -58.5 170.5t-141.5 69.5h-60v80h1350v220h-1714v100h2182v-100zM678 640q92 -31 146 -110t54 -180q0 -26 -8 -60q82 -90 208 -90q73 0 126.5 58.5t53.5 141.5q0 101 -58.5 170.5t-141.5 69.5h-380z" />
    <glyph glyph-name="glyph278" horiz-adv-x="1374" 
d="M1444 940h-208v-800q0 -32 30 -56t70 -24v-60h-460v60q40 0 70 22.5t30 57.5v126q-191 -216 -420 -216q-127 0 -218.5 66t-91.5 160q0 36 20 74l-230 -70l-20 80l820 220l20 -70l-310 -90q-90 -43 -90 -110q0 -57 56.5 -98.5t133.5 -41.5q76 0 164 50t166 136v404h-260
q-15 -104 -109 -162t-231 -58q-188 0 -280 124l64 36q67 -80 156 -80q73 0 126.5 52.5t53.5 127.5q0 76 -46 128t-114 52q-92 0 -172 -70l-62 46q92 104 274 104q132 0 231 -56t109 -154h260v90h-158v100h626v-100z" />
    <glyph glyph-name="glyph279" horiz-adv-x="1224" 
d="M1294 940h-206v-800q0 -40 30 -70t70 -30v-40h-420v40q41 0 70.5 28.5t29.5 71.5v290l-260 -40q150 -85 150 -240q0 -97 -86 -163.5t-204 -66.5q-171 0 -293 132.5t-137 317.5l100 20q12 -146 88 -248t172 -102q53 0 91.5 47.5t38.5 112.5q0 103 -100 160l-70 -10l-30 80
l540 80v250h-156q-14 -105 -107 -162.5t-229 -57.5q-188 0 -280 124l64 36q67 -80 156 -80q73 0 126.5 52.5t53.5 127.5q0 76 -46 128t-114 52q-92 0 -172 -70l-62 46q92 104 274 104q130 0 230 -56.5t110 -155.5h152v92h-128v100h554v-100z" />
    <glyph glyph-name="uni091F_uni094D_uni091F.cjct" horiz-adv-x="900" 
d="M970 940h-174v-160q-54 20 -230 20q-114 0 -192 -53t-78 -127q0 -73 80 -126.5t190 -53.5q129 0 250 100l40 -70q-30 -26 -60 -36v-260q-54 30 -228 30q-93 0 -162.5 -52t-69.5 -132q0 -70 67.5 -120t162.5 -50q120 0 250 110l40 -70q-166 -140 -350 -140
q-185 0 -317.5 79.5t-132.5 190.5q0 104 116 177t284 73h100v90q-22 -2 -48 -2q-187 0 -319.5 77.5t-132.5 184.5q0 100 117.5 170t282.5 70h100v80h-562v100h976v-100z" />
    <glyph glyph-name="uni091F_uni094D_uni0920.cjct" horiz-adv-x="920" 
d="M990 940h-190v-160q-54 20 -220 20q-118 0 -199 -53t-81 -127q0 -85 86.5 -137.5t193.5 -52.5q142 0 250 90l50 -60q-131 -110 -300 -110v-80q125 -23 202.5 -86.5t77.5 -143.5q0 -109 -116.5 -184.5t-283.5 -75.5q-165 0 -282.5 76t-117.5 184q0 81 79.5 149.5
t200.5 90.5v80q-121 22 -200.5 92.5t-79.5 157.5q0 104 116 177t284 73h100v80h-566v100h996v-100zM460 240q-67 0 -113.5 -60t-46.5 -140t48 -140t112 -60q65 0 112.5 58t47.5 142q0 85 -46 142.5t-114 57.5z" />
    <glyph glyph-name="glyph282" horiz-adv-x="2222" 
d="M2292 940h-208v-800q0 -32 30 -56t70 -24v-60h-460v60q40 0 70 22.5t30 57.5v220q-65 -113 -177.5 -176.5t-242.5 -63.5q-180 0 -310 124t-130 296q52 -4 112 -4q84 0 137 27t53 65q0 39 -51.5 65.5t-130.5 26.5h-450q-141 0 -230.5 -84t-89.5 -216q0 -127 93 -216.5
t239 -89.5q125 0 248 66l30 -50q-159 -130 -370 -130q-207 0 -353.5 117.5t-146.5 282.5q0 171 127.5 285.5t312.5 114.5h80v140h-580v100h2298v-100zM1824 500v440h-990v-140h380q141 0 225.5 -42.5t84.5 -117.5q0 -65 -77.5 -102.5t-222.5 -37.5q0 -95 82.5 -162.5
t197.5 -67.5q104 0 193 63.5t127 166.5z" />
    <glyph glyph-name="glyph283" horiz-adv-x="920" 
d="M990 940h-190v-178h-272q-96 0 -161 -47t-65 -115q0 -67 76 -114.5t180 -47.5q186 0 294 80l50 -62q-48 -38 -138 -70v-542q0 -19 26.5 -34.5t63.5 -15.5v-34h-346v34q36 0 63 15.5t27 34.5v82q-87 -86 -248 -86q-110 0 -190 74t-80 174q0 93 78.5 160.5t191.5 67.5
q161 0 248 -86v130q-46 -4 -84 -4q-167 0 -311.5 66.5t-144.5 179.5q0 96 111.5 164t268.5 68h156v106h-600v100h996v-100zM598 -14v204q-50 38 -124 38q-80 0 -134 -41.5t-54 -98.5t52.5 -98.5t125.5 -41.5q75 0 134 38z" />
    <glyph glyph-name="uni0920_uni094D_uni0920.cjct" horiz-adv-x="924" 
d="M994 940h-254v-100h-110q106 -39 168 -104t62 -136q0 -54 -33 -105.5t-87 -84.5v-150h-110q101 -18 165.5 -85.5t64.5 -154.5q0 -109 -116.5 -184.5t-283.5 -75.5q-165 0 -282.5 76t-117.5 184t117.5 184t282.5 76h40v50h-40q-164 0 -282 79.5t-118 190.5
q0 108 117.5 184t282.5 76h40v80h-506v100h1000v-100zM460 800q-67 0 -113.5 -60t-46.5 -140t48 -140t112 -60q65 0 112.5 58t47.5 142q0 85 -46 142.5t-114 57.5zM460 220q-67 0 -113.5 -60t-46.5 -140t48 -140t112 -60q65 0 112.5 58t47.5 142q0 85 -46 142.5t-114 57.5z
" />
    <glyph glyph-name="glyph285" horiz-adv-x="2390" 
d="M2460 940h-208v-800q0 -32 30 -56t70 -24v-60h-460v60q40 0 70 22.5t30 57.5v240q-42 -120 -150.5 -190t-239.5 -70q-177 0 -303.5 123.5t-126.5 296.5q83 0 141.5 32t58.5 78q0 47 -58.5 78.5t-141.5 31.5h-420q131 -36 215.5 -135t84.5 -225q0 -165 -146.5 -282.5
t-353.5 -117.5t-353.5 117.5t-146.5 282.5q0 167 145.5 283.5t354.5 116.5h100v140h-658v100h2466v-100zM1992 500v440h-1080v-100h410q129 0 219.5 -56t90.5 -134q0 -55 -58.5 -92.5t-141.5 -37.5q0 -115 75 -197.5t185 -82.5q91 0 174.5 70.5t125.5 189.5zM552 720
q-106 0 -173 -97t-67 -223t67 -223t173 -97t173 97t67 223t-67 223t-173 97z" />
    <glyph glyph-name="glyph286" horiz-adv-x="880" 
d="M950 940h-204v-140h-240q-51 0 -90.5 -24.5t-39.5 -65.5q0 -38 32 -64t94 -26h98q93 0 159.5 -36.5t66.5 -103.5q0 -82 -106 -131t-274 -49q-70 0 -70 -50q0 -20 21.5 -35t44.5 -15h156q91 0 159.5 -37.5t68.5 -102.5q0 -82 -106 -131t-274 -49q-207 0 -420 180l40 50
q167 -136 360 -136q71 0 115.5 24.5t44.5 61.5q0 35 -33.5 57.5t-100.5 22.5h-106q-89 0 -142.5 43t-53.5 97t48 80q-122 60 -172 120l40 40q148 -120 380 -120q56 0 98 23t42 57q0 35 -33.5 57.5t-86.5 22.5h-108q-96 0 -154 45t-58 111q0 62 56 103t144 41h160v80h-512
v100h956v-100z" />
    <glyph glyph-name="glyph287" horiz-adv-x="944" 
d="M1014 940h-222v-150h-280q-53 0 -91.5 -21.5t-38.5 -58.5q0 -70 148 -70h132q111 0 180.5 -45.5t69.5 -114.5q0 -36 -34 -74t-86 -54v-160h-230q-119 0 -204.5 -56t-85.5 -136t60 -140t144 -60q36 0 46 6q-90 53 -90 124q0 60 75.5 95t164.5 35q94 0 157 -40.5t63 -99.5
q0 -76 -114 -128t-306 -52q-181 0 -310.5 76t-129.5 184q0 104 128 177t312 73h80v60q-46 -4 -80 -4q-125 0 -241 45.5t-199 128.5l50 50q164 -140 390 -140q69 0 124.5 24t55.5 66q0 80 -122 80h-108q-122 0 -196 45.5t-74 108.5q0 64 73.5 110t176.5 46h150v70h-558v100
h1020v-100zM732 -80q0 35 -16.5 62.5t-43.5 27.5q-19 0 -34.5 -27t-15.5 -63q0 -51 40 -100q70 19 70 100z" />
    <glyph glyph-name="glyph288" horiz-adv-x="2352" 
d="M2422 940h-208v-800q0 -32 30 -56t70 -24v-60h-460v60q40 0 70 22.5t30 57.5v250q-45 -124 -151.5 -197t-238.5 -73q-185 0 -317.5 123.5t-132.5 296.5q112 0 196 29t84 71q0 36 -57 58t-143 22h-560q-160 0 -160 -86q0 -40 42.5 -67t111.5 -27h118q117 0 192.5 -59
t75.5 -161q0 -136 -125.5 -228t-324.5 -92q-182 0 -333.5 135t-206.5 345l80 20q41 -156 151 -258t249 -102q112 0 181 44.5t69 115.5q0 160 -196 160h-66q-122 0 -200 51.5t-78 128.5q0 69 74.5 114.5t197.5 45.5h168v140h-660v100h2428v-100zM1954 500v440h-1040v-140h430
q145 0 227.5 -44t82.5 -116q0 -66 -89.5 -113t-210.5 -47q0 -105 90 -172.5t210 -67.5q91 0 174.5 70.5t125.5 189.5z" />
    <glyph glyph-name="glyph289" horiz-adv-x="908" 
d="M978 940h-192v-200q-83 40 -240 40q-106 0 -178 -54t-72 -134q0 -92 61 -152t159 -60q38 0 44 2q-94 47 -94 134q0 62 59.5 103t130.5 41q75 0 127.5 -45t52.5 -115q0 -60 -50 -98v-240q-104 38 -240 38q-109 0 -179.5 -56t-70.5 -144q0 -86 61 -143t139 -57q31 0 52 6
q-80 47 -80 130q0 62 58 103t130 41q73 0 126.5 -38.5t53.5 -101.5q0 -85 -99 -142.5t-261 -57.5q-157 0 -288.5 71t-131.5 189t131.5 189t288.5 71h80v60h-80q-156 0 -288 74.5t-132 195.5q0 122 122.5 196t277.5 74h100v80h-562v100h984v-100zM718 510q0 33 -18 57.5
t-44 24.5q-30 0 -51 -25.5t-21 -64.5q0 -58 44 -102q90 27 90 110zM718 -64q0 33 -18 57.5t-44 24.5q-30 0 -51 -25.5t-21 -64.5q0 -58 44 -102q90 26 90 110z" />
    <glyph glyph-name="glyph290" horiz-adv-x="2510" 
d="M2580 940h-208v-800q0 -32 30 -56t70 -24v-60h-460v60q40 0 70 22.5t30 57.5v220q-65 -114 -169.5 -177t-220.5 -63q-185 0 -317.5 123.5t-132.5 296.5q96 0 188 27t92 73q0 38 -61 59t-139 21h-620q-189 0 -304.5 -82t-115.5 -218q0 -169 122 -264.5t318 -95.5
q-81 38 -130.5 107t-49.5 143q0 113 87.5 191.5t212.5 78.5q123 0 211.5 -81t88.5 -199q0 -125 -110.5 -212.5t-269.5 -87.5h-140q-271 0 -435.5 109.5t-164.5 290.5q0 182 162.5 291t437.5 109h100v140h-758v100h2586v-100zM2112 500v440h-1100v-140h490q117 0 213.5 -42.5
t96.5 -117.5q0 -73 -89 -116.5t-191 -43.5q0 -104 83.5 -172t196.5 -68q91 0 174.5 70.5t125.5 189.5zM852 480q-60 0 -60 -200q0 -89 18.5 -144.5t41.5 -55.5q60 0 60 200t-60 200z" />
    <glyph glyph-name="uni0926_uni094D_uni0917.cjct" horiz-adv-x="1050" 
d="M1120 940h-210v-220h-280q-153 0 -241.5 -75.5t-88.5 -206.5q0 -118 83 -193t207 -75q97 0 180 70q-16 88 -80 180h240q60 -102 60 -210q0 -93 -50 -176t-140 -134h-130q110 95 110 260q-103 -86 -236 -86q-92 0 -152 16q72 -90 72 -164q0 -89 -56.5 -144.5t-149.5 -55.5
q-79 0 -130.5 36.5t-51.5 101.5q0 51 49 84.5t113 33.5q22 0 46 -4q10 18 10 42q0 45 -32 90q-212 121 -212 330q0 156 128.5 258t333.5 102h178v140h-696v100h1126v-100z" />
    <glyph glyph-name="uni0926_uni094D_uni0918.cjct" horiz-adv-x="1376" 
d="M1446 940h-196v-220h-290q-150 0 -247 -76t-97 -216q0 -139 91.5 -223.5t212.5 -84.5q88 0 170 70q0 147 -70 230h240q50 -87 50 -220q0 -181 -180 -310l-130 10q78 79 90 230q-85 -100 -240 -100q-20 0 -42 8q16 -44 16 -86q0 -119 -78.5 -204.5t-187.5 -85.5
q-94 0 -153.5 78.5t-59.5 175.5q0 30 5 60q-89 -106 -198 -106q-56 0 -90 52t-34 118q0 121 103.5 213.5t256.5 108.5q-8 34 -8 78q0 149 128.5 254.5t311.5 105.5h200v140h-1026v100h1452v-100zM722 48q-107 20 -194 86t-126 158q-89 -18 -148.5 -76.5t-59.5 -129.5
q0 -33 19.5 -57.5t48.5 -24.5q23 0 46 13.5t36 36.5l30 52l114 -20q-50 -51 -50 -126q0 -59 39.5 -101.5t94.5 -42.5q67 0 112.5 50t45.5 120q0 32 -8 62z" />
    <glyph glyph-name="uni0926_uni094D_uni0926.cjct" horiz-adv-x="1036" 
d="M1106 940h-220v-180h-338q-142 0 -142 -86q0 -38 37.5 -66t96.5 -28h166v-80h-180q-95 0 -157.5 -53t-62.5 -127q0 -88 64.5 -149t155.5 -61q153 0 250 80q0 49 -20 140h230q6 -35 6 -74q0 -125 -69.5 -236.5t-186.5 -179.5l-60 60q89 80 106 212q-135 -112 -296 -112
q-207 0 -323.5 86.5t-116.5 223.5q0 94 68.5 163.5t171.5 86.5q-62 16 -101 57.5t-39 82.5q0 59 62 99.5t158 40.5h260v100h-632v100h1112v-100z" />
    <glyph glyph-name="uni0926_uni094D_uni0927.cjct" horiz-adv-x="1422" 
d="M1492 940h-188v-220h-280q-134 0 -217 -83t-83 -223q0 -139 78.5 -222.5t213.5 -83.5q49 0 108 32q6 36 6 66q0 62 -26 134h260q6 -32 6 -64q0 -119 -74 -229t-192 -177l-70 40q36 30 80 150q-115 -42 -205 -42q-21 0 -33 4q0 -90 -42.5 -191t-122 -163t-175.5 -62
t-165 61t-69 151q0 69 36 130q-78 -64 -158 -64q-84 0 -134 52.5t-50 139.5q0 105 80 192.5t168 87.5q98 0 98 -82q0 -34 -19.5 -57t-48.5 -23q-52 0 -52 46q0 5 -3 18t-1 20q-76 -26 -76 -124q0 -60 43 -103t103 -43q90 0 166 102l48 -44q-62 -66 -62 -128q0 -73 45 -115.5
t119 -42.5q94 0 146.5 83t59.5 159q-148 13 -247 128.5t-99 269.5q0 164 131 272t309 108h140v140h-1050v100h1498v-100z" />
    <glyph glyph-name="uni0926_uni094D_uni0928.cjct" horiz-adv-x="1036" 
d="M1106 940h-184v-220h-280q-128 0 -214 -85t-86 -215q0 -124 80.5 -212t219.5 -88q56 0 100 20q6 34 6 66q0 63 -26 134h260q0 -184 -82.5 -327.5t-217.5 -192.5l-48 58q88 69 108 182l-476 -114q26 -61 26 -110q0 -85 -49 -146.5t-125 -61.5q-87 0 -148.5 58.5
t-61.5 141.5q0 59 38.5 108.5t99.5 71.5l288 62q-105 28 -178.5 124.5t-73.5 225.5q0 157 128.5 268.5t335.5 111.5h116v140h-668v100h1112v-100zM185 -233q0 63 -35.5 124.5t-76.5 61.5q-46 0 -46 -78q0 -66 39.5 -124t75.5 -58q43 0 43 74z" />
    <glyph glyph-name="uni0926_uni094D_uni092C.cjct" horiz-adv-x="1380" 
d="M1450 940h-184v-220h-280q-125 0 -212.5 -87.5t-87.5 -212.5t87.5 -212.5t212.5 -87.5q63 0 100 20q6 34 6 58q0 68 -26 142h260q4 -22 4 -60q0 -113 -73 -219.5t-201 -180.5l-80 40q74 66 100 140q-82 -40 -210 -40q-71 0 -156 38q0 -149 -98.5 -257.5t-241.5 -108.5
q-141 0 -238.5 98t-97.5 256q0 141 100 229.5t270 88.5q54 0 70 -4q0 217 114.5 328.5t277.5 111.5h140v140h-1012v100h1456v-100zM654 76q-130 77 -172 232q-227 0 -282 -150l448 -98zM640 6l-456 96q-6 -24 -6 -34q0 -95 63.5 -156.5t176.5 -61.5q77 0 140.5 43.5
t81.5 112.5z" />
    <glyph glyph-name="uni0926_uni094D_uni092D.cjct" horiz-adv-x="1472" 
d="M1542 940h-210v-220h-280q-140 0 -240 -88t-100 -212q0 -125 87.5 -212.5t212.5 -87.5q108 0 190 70q-24 136 -90 230h240q60 -104 60 -210q0 -207 -180 -310h-140q110 93 110 210q-90 -90 -290 -90l-152 -138q38 -46 38 -116q0 -68 -56 -114t-128 -46q-51 0 -89.5 35.5
t-38.5 84.5q0 20 8.5 39.5t19.5 31.5t80 71l-70 74q-32 -55 -99.5 -90.5t-136.5 -35.5q-106 0 -182 67.5t-76 168.5t75.5 167.5t182.5 66.5q125 0 208 -94l206 -234l94 88q-142 37 -233 140t-91 234q0 164 131 272t309 108h200v140h-1118v100h1548v-100zM218 190
q-22 0 -22 -40q0 -34 26 -93t65.5 -99t62.5 -40q24 0 24 44q0 63 -62 145.5t-94 82.5z" />
    <glyph glyph-name="uni0926_uni094D_uni092E.cjct" horiz-adv-x="1428" 
d="M1498 940h-208v-800q0 -32 30 -56t70 -24v-60h-460v60q40 0 70 22.5t30 57.5v120h-240v-38q0 -86 -84.5 -144t-215.5 -58q-135 0 -217.5 59.5t-82.5 140.5q0 67 54 103.5t138 36.5h148v120h-260q-93 0 -166.5 47t-73.5 123t73.5 123t166.5 47h260v120h-536v100h1504v-100
zM1030 360v580h-240v-200h-376q-50 0 -87 -25t-37 -65q0 -39 36.5 -64.5t83.5 -25.5h120q0 24 18 42t42 18h200q25 0 42.5 -22.5t17.5 -57.5q0 -24 -18 -42t-42 -18v-120h240zM530 180v80q-34 0 -57 -23t-23 -57q0 -33 14 -56.5t26 -23.5q14 0 27 24t13 56z" />
    <glyph glyph-name="uni0926_uni094D_uni092F.cjct" horiz-adv-x="1384" 
d="M1454 940h-208v-800q0 -32 30 -56t70 -24v-60h-460v60q40 0 70 22.5t30 57.5v190q-107 -126 -244.5 -198t-275.5 -72q-172 0 -296 85.5t-124 204.5q0 78 64 136t156 74q-58 10 -99 49t-41 91q0 58 63 99t157 41h220v100h-572v100h1460v-100zM986 440v500h-160v-180h-320
q-52 0 -86 -23t-34 -57q0 -40 36 -70t84 -30h200v-80h-200q-94 0 -157 -47t-63 -113q0 -65 64.5 -112.5t155.5 -47.5q152 0 280 68.5t200 191.5z" />
    <glyph glyph-name="uni0926_uni094D_uni0935.cjct" horiz-adv-x="1396" 
d="M1466 940h-188v-220h-280q-124 0 -212 -87.5t-88 -212.5q0 -129 83.5 -224.5t216.5 -95.5q52 0 100 30q4 31 4 64q0 74 -24 146h260q6 -33 6 -66q0 -121 -73 -232t-193 -182l-60 60q29 25 70 140q-72 -42 -186 -42q-104 0 -180 50q0 -153 -100.5 -265.5t-247.5 -112.5
q-142 0 -242 101t-100 243q0 143 97.5 244.5t240.5 101.5q71 0 126 -20v60q0 160 111 270t271 110h140v140h-1024v100h1472v-100zM676 92q-128 74 -170 226q-13 2 -76 2q-92 0 -151 -63t-59 -155q0 -102 66.5 -173t153.5 -71q97 0 166.5 68.5t69.5 165.5z" />
    <glyph glyph-name="glyph301" horiz-adv-x="1286" 
d="M1356 940h-208v-800q0 -32 30 -56t70 -24v-60h-460v60q40 0 70 22.5t30 57.5v110l-436 -104q29 -63 29 -122q0 -87 -48 -142t-120 -55q-74 0 -137 64.5t-63 140.5q0 52 34 102.5t95 73.5l646 146v172l-466 120q-9 -98 -69.5 -163t-132.5 -65q-76 -1 -124 59.5t-48 139.5
q0 92 57.5 142t128.5 51q19 0 38 -4l616 -172v306h-894v100h1362v-100zM308 650q0 45 -15 74t-42 29q-33 0 -60 -54.5t-27 -111.5q0 -48 16 -75.5t41 -27.5q30 0 58.5 52.5t28.5 113.5zM385 -31q0 63 -35.5 124.5t-76.5 61.5q-46 0 -46 -78q0 -66 39.5 -124t75.5 -58
q43 0 43 74z" />
    <glyph glyph-name="uni092A_uni094D.half_uni0924.pres" horiz-adv-x="1242" 
d="M1312 940h-208v-800q0 -32 30 -56t70 -24v-60h-460v60q40 0 70 22.5t30 57.5v150q-105 90 -240 90q-111 0 -190.5 -64.5t-79.5 -155.5q0 -52 35 -106t95 -94l-200 -160q-93 65 -146.5 156.5t-53.5 183.5q0 113 90.5 204.5t229.5 115.5q-107 0 -183.5 85.5t-76.5 204.5
v190h-130v100h1318v-100zM844 380v560h-460v-200q0 -103 59.5 -181.5t150.5 -78.5q149 0 250 -100z" />
    <glyph glyph-name="glyph303" horiz-adv-x="1298" 
d="M1368 940h-278v-694q85 -33 137.5 -107t52.5 -161q0 -127 -90.5 -218.5t-217.5 -91.5q-48 0 -97.5 25.5t-82.5 70.5l46 42q27 -42 72 -42q56 0 95 56t39 140q0 90 -46.5 151t-115.5 61q-71 0 -120.5 -56.5t-49.5 -137.5h-64q0 82 -52 138t-130 56q-73 0 -126.5 -62.5
t-53.5 -149.5q0 -81 50.5 -138.5t121.5 -57.5q63 0 90 42l46 -42q-65 -96 -244 -96q-120 0 -208 92t-88 218q0 119 95.5 205.5t228.5 86.5q104 0 188.5 -46t109.5 -126h8q39 99 146 144v252q-112 -172 -360 -172q-149 0 -254.5 90.5t-105.5 217.5v310h-116v100h1374v-100z
M830 578v362h-460v-310q0 -77 64.5 -132.5t155.5 -55.5q52 0 116 35t124 101z" />
    <glyph glyph-name="glyph304" horiz-adv-x="1474" 
d="M1544 940h-710v-158q62 62 240 62q151 0 255.5 -75.5t104.5 -184.5q0 -117 -104.5 -198.5t-255.5 -81.5q-113 0 -180 46v62q33 -14 70 -14q97 0 163.5 49.5t66.5 120.5q0 77 -66.5 130.5t-163.5 53.5q-100 0 -130 -30v-484q65 32 144 32q131 0 223.5 -85.5t92.5 -206.5
q0 -127 -90.5 -218.5t-217.5 -91.5q-48 0 -97.5 25.5t-82.5 70.5l46 42q27 -42 72 -42q56 0 95 56t39 140q0 90 -46.5 151t-115.5 61q-71 0 -120.5 -56.5t-49.5 -137.5h-64q0 82 -52 138t-130 56q-73 0 -126.5 -62.5t-53.5 -149.5q0 -81 50.5 -138.5t121.5 -57.5q63 0 90 42
l46 -42q-65 -96 -244 -96q-120 0 -208 92t-88 218q0 119 95.5 205.5t228.5 86.5q104 0 182 -42v184q-55 -38 -190 -38q-119 0 -204.5 70.5t-85.5 169.5v326h-100v100h1550v-100zM574 558v382h-220v-386q0 -41 33 -68.5t77 -27.5q45 0 77.5 29.5t32.5 70.5z" />
    <glyph glyph-name="glyph305" horiz-adv-x="1508" 
d="M1578 940h-404v-132q117 -25 188.5 -102.5t71.5 -177.5q0 -153 -142 -248q142 -87 142 -222q0 -125 -100.5 -214.5t-239.5 -89.5q-120 0 -200 96l50 40q31 -40 90 -40q58 0 99 55t41 137q0 88 -52 148t-128 60q-80 0 -135 -56t-55 -136h-70q0 81 -58.5 136.5t-141.5 55.5
t-141.5 -61.5t-58.5 -146.5q0 -80 55 -136t135 -56q61 0 100 40l50 -40q-86 -96 -252 -96q-153 0 -250.5 84.5t-97.5 203.5q0 76 38.5 140t105.5 92q-144 85 -144 238q0 125 104 214.5t280 89.5q225 0 306 -168h10q61 138 200 160v132h-980v100h1584v-100zM804 528h-70
q0 82 -58.5 137t-141.5 55t-141.5 -61.5t-58.5 -146.5q0 -52 27 -97.5t71 -70.5q22 2 46 2q106 0 185.5 -48t108.5 -130q36 82 109.5 130t162.5 48q18 0 56 -4q74 60 74 170q0 88 -52 148t-128 60q-80 0 -135 -56t-55 -136z" />
    <glyph glyph-name="uni0936_uni094D.half_uni091A.pres" horiz-adv-x="1562" 
d="M1632 940h-208v-800q0 -32 30 -56t70 -24v-60h-460v60q40 0 70 22.5t30 57.5v40q-162 -160 -380 -160q-131 0 -235.5 66.5t-104.5 173.5l-370 -170l-40 90l700 290l40 -80q-60 -25 -60 -90q0 -59 60 -94.5t140 -35.5q140 0 250 110v180q-448 8 -710 130
q-237 -110 -420 -110v110q223 0 310 50q-210 95 -210 270q0 113 91 191.5t229 78.5q144 0 232 -78t88 -192q0 -173 -210 -270q142 -82 600 -90v390h-140l2 100h606v-100zM536 910q0 192 -82 192q-78 0 -78 -196q0 -126 78 -218q82 97 82 222z" />
    <glyph glyph-name="uni0936_uni094D.half_uni0928.pres" horiz-adv-x="1966" 
d="M2036 940h-208v-800q0 -32 30 -56t70 -24v-60h-460v60q40 0 70 22.5t30 57.5v380q-106 50 -240 50q-90 0 -182 -24v-6q106 -20 184 -98t78 -182q0 -125 -110.5 -212.5t-269.5 -87.5q-157 0 -268.5 88.5t-111.5 211.5q0 30 10 60q-154 28 -280 100q-214 -100 -320 -100
v100q103 0 210 58q-210 123 -210 322q0 129 91 214.5t229 85.5q137 0 228.5 -81.5t91.5 -218.5q0 -211 -210 -320q66 -46 214 -70q83 113 245 175.5t375 62.5q146 0 246 -48v340h-826v100h1294v-100zM444 782q0 228 -64 228q-68 0 -68 -228q0 -171 66 -246q66 73 66 246z
M1028 480q-67 0 -113.5 -60t-46.5 -140q0 -99 47.5 -169.5t112.5 -70.5q66 0 113 69t47 171q0 85 -46 142.5t-114 57.5z" />
    <glyph glyph-name="uni0936_uni094D.half_uni0932.pres" horiz-adv-x="2106" 
d="M2176 940h-388v-130q116 -30 188 -127.5t72 -222.5q0 -157 -100.5 -268.5t-239.5 -111.5q-54 0 -108 33t-92 87l50 50q31 -50 80 -50q68 0 109 74.5t41 165.5q0 110 -52.5 185t-127.5 75q-83 0 -136.5 -72.5t-53.5 -167.5h-70q0 101 -58.5 170.5t-141.5 69.5
q-82 0 -141 -77t-59 -183q0 -95 53.5 -167.5t136.5 -72.5q69 0 100 50l50 -50q-68 -120 -270 -120q-127 0 -220.5 92.5t-105.5 215.5q-205 10 -314 72q-214 -100 -320 -100v100q110 0 210 58q-210 123 -210 322q0 129 91 214.5t229 85.5q137 0 228.5 -81.5t91.5 -218.5
q0 -211 -210 -320q102 -42 202 -42q12 141 115.5 241.5t242.5 100.5q123 0 214 -58.5t116 -151.5h10q66 173 200 200v130h-794v100h1382v-100zM444 822q0 228 -64 228q-68 0 -68 -228q0 -171 66 -246q66 73 66 246z" />
    <glyph glyph-name="uni0936_uni094D.half_uni0935.pres" horiz-adv-x="1806" 
d="M1876 940h-208v-800q0 -32 30 -56t70 -24v-60h-460v60q40 0 70 22.5t30 57.5v100q-51 -51 -131 -80.5t-169 -29.5q-134 0 -242 70t-150 188q-212 0 -338 72q-214 -100 -320 -100v100q110 0 210 58q-210 123 -210 322q0 129 91 214.5t229 85.5q137 0 228.5 -81.5
t91.5 -218.5q0 -211 -210 -320q97 -40 220 -40q0 149 116.5 254.5t283.5 105.5q201 0 300 -120v220h-668v100h1136v-100zM444 822q0 228 -64 228q-68 0 -68 -228q0 -171 66 -246q66 73 66 246zM1408 320v320q-79 80 -180 80q-107 0 -183.5 -68.5t-76.5 -171.5t76.5 -171.5
t183.5 -68.5q98 0 180 80z" />
    <glyph glyph-name="uni0937_uni094D.half_uni091F.pres" horiz-adv-x="1740" 
d="M1810 940h-184v-220h-188q-144 0 -238 -88t-94 -212q0 -125 87.5 -212.5t212.5 -87.5q168 0 280 80l30 -70q-161 -130 -370 -130q-189 0 -331 101.5t-165 258.5q-164 -220 -404 -220q-148 0 -254 106t-106 254v440h-92v100h1816v-100zM1366 800v140h-1020l508 -462
q31 141 152 231.5t296 90.5h64zM790 416l-444 404v-360q0 -83 55.5 -138.5t144.5 -55.5q152 0 244 150z" />
    <glyph glyph-name="uni0937_uni094D.half_uni0920.pres" horiz-adv-x="1898" 
d="M1968 940h-262v-180h-160q131 -36 215.5 -135t84.5 -225q0 -165 -146.5 -282.5t-353.5 -117.5q-174 0 -311 87.5t-177 224.5q-70 -78 -182.5 -125t-229.5 -47q-158 0 -259 102.5t-101 257.5v440h-92v100h1974v-100zM1446 800v140h-1100l508 -464q33 143 170 233.5
t334 90.5h88zM816 390l-470 430v-370q0 -74 54 -132t126 -58q84 0 168 37.5t122 92.5zM1346 720q-106 0 -173 -97t-67 -223t67 -223t173 -97t173 97t67 223t-67 223t-173 97z" />
    <glyph glyph-name="uni0939_uni094D.half_uni0923.pres" horiz-adv-x="1190" 
d="M1260 940h-354v-184h-368q-68 0 -110 -26.5t-42 -67.5q0 -49 60 -102q74 20 170 20q199 0 339.5 -70t140.5 -170v-236q0 -26 18 -48t40 -22v-34h-324v34q23 0 41.5 21.5t18.5 48.5v278q0 87 -82 110v-256q0 -72 -58 -120t-136 -48q-76 0 -135 48.5t-59 119.5v246
q-154 -70 -154 -262q0 -134 106 -232t254 -98q50 0 160 40l-60 -110h-100q-223 0 -401.5 107.5t-178.5 282.5q0 112 92 202.5t228 127.5q-180 43 -180 140q0 69 78.5 114.5t201.5 45.5h180v100h-652v100h1266v-100zM654 224v284q-10 4 -40 4t-40 -4v-284q0 -82 40 -82t40 82
z" />
    <glyph glyph-name="uni0939_uni094D.half_uni0928.pres" horiz-adv-x="1182" 
d="M1252 940h-346v-184h-380q-61 0 -103.5 -27.5t-42.5 -64.5q0 -51 66 -104q74 20 170 20q171 0 320.5 -64.5t149.5 -175.5v-236q0 -24 18 -42t42 -18v-44h-334v44q24 0 42 18t18 42v86q-62 128 -154 128q54 -37 54 -106t-56.5 -116.5t-137.5 -47.5q-79 0 -136.5 48.5
t-57.5 115.5q0 71 58.5 122.5t141.5 51.5q181 0 288 -74v24q0 73 -77 123.5t-189 50.5q-147 0 -233.5 -85t-86.5 -215q0 -134 100.5 -227t239.5 -93q50 0 160 40l-60 -110h-100q-223 0 -401.5 107.5t-178.5 282.5q0 107 81.5 197t238.5 131q-182 41 -182 152q0 64 76.5 107
t185.5 43h200v100h-652v100h1258v-100zM588 342q-28 0 -49 -39.5t-21 -90.5q0 -45 16 -87.5t44 -42.5t44 42.5t16 87.5q0 58 -15 94t-35 36z" />
    <glyph glyph-name="uni0939_uni094D.half_uni092E.pres" horiz-adv-x="1544" 
d="M1614 940h-208v-800q0 -32 30 -56t70 -24v-60h-460v60q40 0 70 22.5t30 57.5v160h-140q0 -92 -68 -157t-162 -65q-96 0 -151 48t-55 118q0 64 51 110t125 46q0 72 -47.5 115t-124.5 43q-107 0 -187.5 -75.5t-80.5 -182.5q0 -141 92.5 -230.5t247.5 -89.5q50 0 160 40
l-60 -100h-100q-269 0 -434.5 111.5t-165.5 268.5q0 104 78 188t208 108q-146 22 -146 124q0 50 62.5 85t157.5 35h220v100h-632v100h1620v-100zM1146 400v540h-260v-182h-340q-45 0 -72.5 -19.5t-27.5 -42.5q0 -74 126 -74q173 0 285 -58.5t141 -163.5h148zM756 220v120
q-41 0 -66.5 -28t-25.5 -70q0 -28 17 -49t35 -21q40 0 40 48z" />
    <glyph glyph-name="uni0939_uni094D.half_uni092F.pres" horiz-adv-x="1586" 
d="M1656 940h-208v-800q0 -32 30 -56t70 -24v-60h-460v60q40 0 70 22.5t30 57.5v110q-61 -72 -140.5 -111t-159.5 -39q-140 0 -239 87t-121 213h60q47 0 83.5 22t36.5 58q0 38 -39 59t-91 21q-116 0 -193 -73t-77 -187q0 -137 100.5 -233.5t239.5 -96.5q71 0 160 50
l-60 -120h-100q-254 0 -427 112t-173 288q0 115 80 196.5t200 103.5q-61 10 -100.5 45.5t-39.5 74.5q0 49 61 84.5t159 35.5h220v100h-634v100h1662v-100zM1188 390v550h-300v-182h-340q-100 0 -100 -58q0 -60 100 -60h170q130 0 210 -46t80 -114q0 -48 -59.5 -84
t-160.5 -36q0 -68 47 -114t113 -46q78 0 143.5 52.5t96.5 137.5z" />
    <glyph glyph-name="uni0939_uni094D.half_uni0932.pres" horiz-adv-x="1148" 
d="M1218 940h-330v-188h-352q-68 0 -114 -28t-46 -66q0 -52 62 -98q74 20 160 20q186 0 318 -70t132 -188v-228q0 -23 19.5 -41.5t46.5 -18.5v-34h-324v34q24 0 42 18t18 42v238q-49 -4 -79.5 -49.5t-30.5 -104.5h-44q0 57 -27.5 95.5t-68.5 38.5q-39 0 -68.5 -36.5
t-29.5 -85.5q0 -50 34 -88t78 -38q48 0 64 16l18 -28q-51 -60 -132 -60q-92 0 -159 58.5t-67 145.5q0 86 64.5 145t153.5 59q117 0 162 -92q27 71 132 80q-9 53 -86 82.5t-166 29.5q-143 0 -246.5 -88.5t-103.5 -211.5q0 -126 106 -218t254 -92q50 0 160 40l-60 -110h-100
q-246 0 -405 109.5t-159 272.5q0 119 83.5 210t220.5 128q-160 43 -160 150q0 64 73.5 107t182.5 43h184v100h-634v100h1224v-100z" />
    <glyph glyph-name="uni0939_uni094D.half_uni0935.pres" horiz-adv-x="1160" 
d="M1230 940h-324v-190h-360q-64 0 -107 -23.5t-43 -56.5q0 -62 80 -90q107 20 192 20q172 0 285 -75t113 -185v-296q0 -40 60 -40v-44h-304v44q24 0 42 18t18 42v32q-72 -76 -192 -76q-107 0 -183.5 55.5t-76.5 132.5q0 91 77.5 149.5t182.5 58.5q112 0 192 -66
q-8 80 -79.5 132t-184.5 52q-150 0 -251 -94t-101 -238q0 -136 104 -224t256 -88q76 0 160 40l-60 -110h-100q-258 0 -419 109t-161 265q0 117 85.5 211.5t234.5 134.5q-74 14 -127 55t-53 95q0 65 79 107.5t193 42.5h228v100h-692v100h1236v-100zM886 146v144
q-50 48 -136 48q-59 0 -100.5 -35.5t-41.5 -90.5q0 -50 40.5 -87t101.5 -37q78 0 136 58z" />
    <glyph glyph-name="uni0938_uni094D.half_uni0924_uni094D_uni0930.rkrf.pres" horiz-adv-x="2010" 
d="M2080 940h-208v-800q0 -32 30 -56t70 -24v-60h-460v60q40 0 70 22.5t30 57.5v310l-690 -400l-50 70l400 240q-164 320 -320 320q-59 0 -130 -50l-30 50q62 74 142 117t158 43q116 0 231 -89t209 -251l80 50v390h-1170q134 -35 222 -125.5t88 -204.5t-99 -199.5
t-241 -110.5q41 -72 96.5 -116t103.5 -44q68 0 120 60l60 -40q-53 -77 -127.5 -118.5t-152.5 -41.5q-82 0 -163 50t-137 130q-93 131 -200 160l20 62q81 -22 176 -22q126 0 205 71t79 189q0 134 -95.5 217t-264.5 83h-138v100h2086v-100zM1092 380q-68 -40 -180 -40
q-130 0 -200 40l40 80q70 -40 160 -40q93 0 160 40z" />
    <glyph glyph-name="glyph319" horiz-adv-x="1608" 
d="M1678 940h-1684v100h1684v-100zM1758 640h-440q92 -31 146 -110t54 -180q0 -127 -100.5 -218.5t-239.5 -91.5q-101 0 -192 48t-144 128q-46 -82 -134 -129t-190 -47q-179 0 -317.5 187.5t-162.5 462.5l60 10q36 -201 134.5 -350.5t225.5 -149.5q65 0 112.5 58t47.5 142
q0 101 -58.5 170.5t-141.5 69.5h-60v80h1400v-80zM678 640q92 -31 146 -110t54 -180q0 -26 -8 -60q82 -90 208 -90q73 0 126.5 58.5t53.5 141.5q0 101 -58.5 170.5t-141.5 69.5h-380z" />
    <glyph glyph-name="uni0926_uni0943.blws" horiz-adv-x="942" 
d="M1012 940h-234v-180h-252q-118 0 -118 -84q0 -42 33.5 -69t84.5 -27h182v-80h-172q-94 0 -161 -49.5t-67 -130.5q0 -88 64.5 -149t155.5 -61q112 0 202.5 45.5t137.5 124.5l60 -40q-79 -113 -195.5 -176.5t-244.5 -63.5q-191 0 -315.5 78.5t-124.5 221.5q0 96 69 169
t171 91q-140 35 -140 140q0 61 62.5 100.5t163.5 39.5h144v100h-524v100h1018v-100z" />
    <glyph glyph-name="uni0930_uni0941.blws" horiz-adv-x="1340" 
d="M1410 940h-1010q158 -31 254 -117.5t96 -208.5t-96 -203t-248 -101q130 -190 214 -190q53 0 100 50l40 -40q-92 -134 -248 -134q-123 0 -246 148q-96 117 -140.5 148.5t-115.5 47.5l28 64q68 -24 140 -24q133 0 222.5 71t89.5 189q0 134 -101.5 217t-250.5 83h-144v100
h1416v-100zM778 222l34 58q39 -26 86 -26q53 0 92.5 51.5t39.5 124.5q0 75 -34.5 122.5t-85.5 47.5q-55 0 -104 -52l-40 60q28 38 89.5 65t114.5 27q142 0 231 -77.5t89 -192.5q0 -118 -91.5 -194t-228.5 -76q-118 0 -192 62z" />
    <glyph glyph-name="uni0930_uni0942.blws" horiz-adv-x="1488" 
d="M1558 940h-1158q158 -31 254 -117.5t96 -208.5t-96 -203t-248 -101q130 -190 214 -190q53 0 100 50l40 -40q-92 -134 -248 -134q-123 0 -246 148q-96 117 -140.5 148.5t-115.5 47.5l28 64q68 -24 140 -24q133 0 222.5 71t89.5 189q0 134 -101.5 217t-250.5 83h-144v100
h1564v-100zM1314 0l-80 20q80 136 80 220q0 102 -52.5 171t-127.5 69q-51 0 -85.5 -35.5t-34.5 -84.5q0 -48 36 -84t84 -36l30 -50q-53 -50 -190 -50q-91 0 -155.5 73.5t-64.5 176.5q0 113 93.5 191.5t226.5 78.5q152 0 256 -110t104 -270q0 -135 -120 -280z" />
    <glyph glyph-name="uni0939_uni0943.blws" horiz-adv-x="1016" 
d="M1086 940h-198v-180h-336q-116 0 -116 -68q0 -30 31 -51t81 -21h182q114 0 186 -35.5t72 -86.5q0 -89 -182 -116q-178 -26 -178 -92q0 -70 120 -70h120v-60h-180q-101 0 -170.5 37t-69.5 83q0 72 140 100t140 100q0 34 -38 57t-102 23q-115 0 -197.5 -75t-82.5 -185
q0 -131 95.5 -225.5t244.5 -94.5q210 0 320 40l-60 -120h-260q-258 0 -429 116t-171 284q0 107 78.5 192.5t201.5 107.5q-140 21 -140 120q0 54 56 87t144 33h240v100h-634v100h1092v-100z" />
    <glyph glyph-name="glyph324" horiz-adv-x="0" 
d="M-282 254l-446 -124q21 -44 21 -86q0 -67 -43.5 -112.5t-108.5 -45.5q-61 0 -105.5 39t-44.5 107q0 52 34 102.5t95 73.5l592 162zM-858 88q-16 0 -33 -16t-16 -40q-1 -23 15.5 -41t38.5 -17q17 0 30 12t13 37q0 26 -16 45.5t-32 19.5z" />
    <glyph glyph-name="uni0918_uni094D_uni0930.rkrf" horiz-adv-x="1210" 
d="M1280 940h-208v-800q0 -32 30 -56t70 -24v-60h-460v60q40 0 70 22.5t30 57.5v102q-423 -273 -760 -304v140q175 7 316 54q-136 7 -216 71t-80 161q0 87 67.5 157.5t172.5 88.5q-76 14 -128 66t-52 114q0 103 120 150h-258v100h1286v-100zM812 380v560h-300
q-51 0 -85.5 -41.5t-34.5 -98.5q0 -61 41.5 -105.5t98.5 -44.5h80v-80h-80q-81 0 -140.5 -52.5t-59.5 -123.5t55.5 -121.5t142.5 -50.5q77 0 151.5 41t130.5 117z" />
    <glyph glyph-name="uni091A_uni094D_uni0930.rkrf" horiz-adv-x="1268" 
d="M1338 940h-208v-800q0 -32 30 -56t70 -24v-60h-460v60q40 0 70 22.5t30 57.5v106q-438 -292 -810 -326v140q178 16 332 54q-122 28 -202 112t-80 188q0 101 78 179t202 101v6h-360v80h700v-80h-90q-118 0 -194 -76t-76 -184q0 -94 70.5 -157t169.5 -63q70 0 138.5 41
t121.5 119v560h-876v100h1344v-100z" />
    <glyph glyph-name="uni0925_uni094D_uni0930.rkrf" horiz-adv-x="1326" 
d="M1396 940h-208v-800q0 -32 30 -56t70 -24v-60h-460v60q40 0 70 22.5t30 57.5v112q-436 -295 -850 -332v140q156 14 296 46q-142 42 -234 166.5t-92 277.5q73 -30 182 -30q155 0 238 60q-133 0 -236.5 73t-103.5 187q0 107 104.5 173.5t235.5 66.5t235.5 -66.5
t104.5 -173.5q0 -155 -143 -265.5t-357 -114.5q17 -99 106 -159.5t204 -60.5q214 0 310 184v516h-80v100h548v-100zM548 840q0 69 -22.5 114.5t-57.5 45.5q-34 0 -57 -48.5t-23 -111.5q0 -71 24 -125.5t76 -54.5h20q40 68 40 180z" />
    <glyph glyph-name="uni0927_uni094D_uni0930.rkrf" horiz-adv-x="1326" 
d="M1396 940h-208v-800q0 -32 30 -56t70 -24v-60h-460v60q40 0 70 22.5t30 57.5v150q-400 -327 -870 -370v140q128 0 316 40q-306 58 -306 270q0 97 71.5 173.5t178.5 96.5q-90 16 -150 88t-60 162q0 103 96 176.5t234 73.5q129 0 219.5 -69.5t90.5 -170.5
q0 -59 -41.5 -99.5t-98.5 -40.5t-98.5 38.5t-41.5 91.5q0 48 34.5 84t85.5 46q-22 20 -80 20q-67 0 -113.5 -53.5t-46.5 -126.5q0 -80 48 -140t112 -60h60v-80h-50q-79 0 -134.5 -56.5t-55.5 -133.5q0 -82 54 -136t146 -54q132 0 241 82.5t159 217.5v440h-60v100h528v-100z
" />
    <glyph glyph-name="uni0928_uni094D_uni0930.rkrf" horiz-adv-x="1360" 
d="M1430 940h-208v-800q0 -32 30 -56t70 -24v-60h-460v60q40 0 70 22.5t30 57.5v126q-438 -292 -810 -326v140q490 45 810 256v184q-100 85 -240 110q80 -46 80 -160q0 -112 -112 -191t-268 -79t-268 79.5t-112 190.5q0 112 110 191t270 79q292 0 540 -140v340h-968v100
h1436v-100zM422 660q-65 0 -112.5 -56.5t-47.5 -133.5t47.5 -133.5t112.5 -56.5q67 0 113.5 55.5t46.5 134.5t-46.5 134.5t-113.5 55.5z" />
    <glyph glyph-name="uni0932_uni094D_uni0930.rkrf" horiz-adv-x="1378" 
d="M1448 940h-208v-800q0 -32 30 -56t70 -24v-60h-460v60q40 0 70 22.5t30 57.5v102q-250 -162 -360 -162v140q174 0 360 100v380q-86 0 -143 -73t-57 -167h-60q0 97 -56.5 168.5t-143.5 71.5q-90 0 -146 -84.5t-56 -205.5q0 -159 50.5 -244t131.5 -92l-12 -68
q-206 0 -317 117t-111 297q0 165 110.5 282.5t269.5 117.5q224 0 312 -190h6q65 150 222 150v160h-986v100h1454v-100z" />
    <glyph glyph-name="glyph331" horiz-adv-x="1258" 
d="M1328 940h-474v-150h-344q-138 0 -138 -72q0 -34 40.5 -56t99.5 -22h202q136 0 211 -44t75 -112q0 -174 -370 -186v-86q58 40 168 40l-30 -54q-72 0 -138 -30v-324q0 -23 21.5 -41.5t50.5 -18.5v-24h-284v24q31 0 51.5 17.5t20.5 42.5v40q-67 -40 -168 -40
q-116 0 -200 57.5t-84 136.5q0 87 82 150.5t202 63.5q100 0 168 -60v110q-286 28 -472 178l44 58q177 -148 446 -148q254 0 254 90q0 34 -44.5 57t-115.5 23h-184q-127 0 -206.5 45t-79.5 111q0 64 70.5 104t189.5 40h230v80h-628v100h1334v-100zM490 -62v220
q-47 26 -104 26q-61 0 -104.5 -40.5t-43.5 -95.5t37.5 -95.5t90.5 -40.5q62 0 124 26zM1156 594q-44 0 -77 33t-33 77q0 47 32 78.5t78 31.5q49 0 80.5 -31t31.5 -79q0 -46 -32.5 -78t-79.5 -32z" />
    <glyph glyph-name="uni094B_uni0902.abvs" horiz-adv-x="536" 
d="M606 940h-208v-778q0 -102 100 -102v-60h-460v60q100 0 100 102v778h-144v100h612v-100zM440 1060h-240q-56 0 -120 60l-280 260q-43 40 -120 40h-100v80h280q73 0 140 -60l290 -260q67 -60 110 -60h40v-60zM376 1248q-45 0 -77.5 33.5t-32.5 78.5q0 47 32 78.5t78 31.5
q48 0 79 -31t31 -79q0 -47 -32 -79.5t-78 -32.5z" />
    <glyph glyph-name="uni094B_uni0930_uni094D.rphf.abvs" horiz-adv-x="536" 
d="M606 940h-208v-778q0 -102 100 -102v-60h-460v60q100 0 100 102v778h-144v100h612v-100zM533 1410h-50q-71 0 -114.5 -41.5t-43.5 -108.5q0 -52 32 -93t82 -47v-60h-246q-56 0 -120 60l-280 260q-43 40 -140 40h-80v80h280q73 0 140 -60l118 -106q24 69 103.5 112.5
t188.5 43.5h130v-80z" />
    <glyph glyph-name="uni094B_uni0930_uni094D.rphf.abvs_uni0902.abvs" horiz-adv-x="536" 
d="M606 940h-208v-778q0 -102 100 -102v-60h-460v60q100 0 100 102v778h-144v100h612v-100zM531 1410h-62q-67 0 -112.5 -42t-45.5 -108q0 -55 37 -97.5t89 -42.5v-60h-246q-56 0 -120 60l-280 260q-43 40 -140 40h-80v80h280q73 0 140 -60l118 -106q24 69 103.5 112.5
t188.5 43.5h130v-80zM501 1160q-40 0 -70 30t-30 70q0 41 28.5 70.5t71.5 29.5q44 0 72 -28t28 -72q0 -43 -29.5 -71.5t-70.5 -28.5z" />
    <glyph glyph-name="uni094C_uni0902.abvs" horiz-adv-x="536" 
d="M606 940h-208v-778q0 -102 100 -102v-60h-460v60q100 0 100 102v778h-144v100h612v-100zM540 1138h-202q-56 0 -102 50l-188 204q-46 50 -106 50h-102v58h266q66 0 112 -52l192 -216q34 -38 90 -38h40v-56zM260 1060h-228q-39 0 -110 52l-270 198q-52 38 -102 38h-70v56
h244q75 0 132 -44l264 -204q49 -38 100 -38h40v-58zM554 1264q-44 0 -77 33t-33 77q0 47 32 79.5t78 32.5q48 0 80 -32t32 -80q0 -46 -32.5 -78t-79.5 -32z" />
    <glyph glyph-name="uni094C_uni0930_uni094D.rphf.abvs" horiz-adv-x="536" 
d="M606 940h-208v-778q0 -102 100 -102v-60h-460v60q100 0 100 102v778h-144v100h612v-100zM666 1414h-100q-60 0 -103 -43.5t-43 -108.5q0 -60 35 -102t91 -44v-56h-180q-70 0 -120 56l-240 270q-50 56 -120 56h-100v58h272q57 0 108 -58l76 -86q28 59 94.5 96.5
t149.5 37.5h180v-76zM206 1060h-220q-42 0 -120 56l-270 194q-53 38 -108 38h-62v56h246q72 0 134 -48l260 -202q49 -38 102 -38h38v-56z" />
    <glyph glyph-name="uni094C_uni0930_uni094D.rphf.abvs_uni0902.abvs" horiz-adv-x="536" 
d="M606 940h-208v-778q0 -102 100 -102v-60h-460v60q100 0 100 102v778h-144v100h612v-100zM663 1414h-100q-60 0 -103 -43.5t-43 -108.5q0 -60 35 -102t91 -44v-56h-180q-70 0 -120 56l-240 270q-50 56 -120 56h-100v58h272q57 0 108 -58l76 -86q28 59 94.5 96.5
t149.5 37.5h180v-76zM203 1060h-220q-42 0 -120 56l-270 194q-53 38 -108 38h-62v56h246q72 0 134 -48l260 -202q49 -38 102 -38h38v-56zM607 1158q-40 0 -70 30t-30 70q0 41 28.5 70.5t71.5 29.5q44 0 72 -28t28 -72q0 -43 -29.5 -71.5t-70.5 -28.5z" />
    <glyph glyph-name="uni091E_uni094D_uni0930.rkrf" horiz-adv-x="1204" 
d="M1274 940h-208v-800q0 -32 30 -56t70 -24v-60h-460v60q40 0 70 22.5t30 57.5v80q-414 -267 -770 -300v140q467 41 770 230v170h-180q-22 -121 -118.5 -200.5t-221.5 -79.5q-74 0 -144 32t-116 88l30 40q68 -40 110 -40q81 0 140.5 58.5t59.5 141.5q0 84 -58 142t-142 58
q-62 0 -110 -40l-30 40q100 120 260 120q127 0 222.5 -78.5t117.5 -201.5h180v400h-812v100h1280v-100z" />
    <glyph glyph-name="uni0923_uni094D_uni0930.rkrf" horiz-adv-x="1462" 
d="M1532 940h-208v-800q0 -32 30 -56t70 -24v-60h-460v60q40 0 70 22.5t30 57.5v186q-438 -292 -810 -326v140q490 45 810 256v544h-240v-320q0 -144 -109.5 -242t-260.5 -98t-260.5 98t-109.5 242v320h-90v100h1538v-100zM564 520v420h-220v-420q0 -65 32 -112.5t78 -47.5
t78 47.5t32 112.5z" />
    <glyph glyph-name="uni092F_uni094D_uni0930.rkrf" horiz-adv-x="1234" 
d="M1304 940h-208v-800q0 -32 30 -56t70 -24v-60h-460v60q40 0 70 22.5t30 57.5v146q-373 -289 -810 -326v140q106 0 332 48q-143 46 -232.5 183t-89.5 309q54 -20 170 -20q84 0 147 47t63 113q0 67 -61 113.5t-149 46.5h-212v100h1310v-100zM836 430v510h-320
q160 -58 160 -160q0 -93 -110.5 -156.5t-269.5 -63.5q0 -127 73.5 -223.5t186.5 -96.5q94 0 170.5 51t109.5 139z" />
    <glyph glyph-name="uni0937_uni094D_uni0930.rkrf" horiz-adv-x="1204" 
d="M1274 940h-208v-800q0 -32 30 -56t70 -24v-60h-460v60q40 0 70 22.5t30 57.5v130q-333 -313 -770 -350v140q319 0 504 90q-186 0 -320 112t-134 268v410h-92v100h1280v-100zM806 540v400h-460zM806 420l-460 400v-360q0 -80 62.5 -140t157.5 -60q67 0 132.5 43t107.5 117
z" />
    <glyph glyph-name="uni0915_uni094D_uni0937.akhn_uni094D_uni0930.rkrf" horiz-adv-x="1540" 
d="M1610 940h-208v-800q0 -32 30 -56t70 -24v-60h-460v60q40 0 70 22.5t30 57.5v86q-110 -60 -170 -66v140q86 8 170 30v190h-600q-96 -35 -158 -100t-62 -140q0 -72 48 -126t112 -54q47 0 90.5 27t69.5 73v140h280q-20 -34 -20 -120v-140q0 -137 -103.5 -233.5
t-246.5 -96.5l-10 70q41 0 70.5 40t29.5 100v140q-27 -73 -103.5 -116.5t-176.5 -43.5q-125 0 -212.5 87.5t-87.5 212.5q0 113 90.5 204.5t229.5 115.5q-111 20 -185.5 91.5t-74.5 158.5q0 111 104 190.5t256 79.5q153 0 256.5 -78t103.5 -192q0 -124 -150 -210h450v340
h-120v100h588v-100zM482 1000q-42 0 -71 -60.5t-29 -139.5q0 -71 29.5 -125.5t70.5 -54.5q42 0 71 52t29 128q0 85 -28.5 142.5t-71.5 57.5z" />
    <glyph glyph-name="uni091C_uni094D_uni091E.akhn_uni094D_uni0930.rkrf" horiz-adv-x="1630" 
d="M1700 940h-208v-800q0 -32 30 -56t70 -24v-60h-460v60q40 0 70 22.5t30 57.5v98q-198 -180 -370 -198v100q233 23 370 192v348q-124 0 -370 40q-245 40 -370 40q-68 0 -114 -35.5t-46 -84.5q0 -50 46 -85t120 -35h134q121 0 200.5 -65t79.5 -155q0 -109 -120.5 -174.5
t-269.5 -65.5q29 -42 74.5 -69t87.5 -27q41 0 68 16l40 -40q-68 -120 -200 -120q-142 0 -260 140q-98 118 -300 190l40 70q114 -80 340 -80q242 0 242 160q0 57 -47 98.5t-115 41.5h-100q-138 0 -229 56.5t-91 143.5q0 99 98 159.5t222 60.5q141 0 420 -40t420 -40v160
h-1238v100h1706v-100z" />
    <glyph glyph-name="uni0918_uni093C.nukt" horiz-adv-x="1192" 
d="M1262 940h-208v-800q0 -32 30 -56t70 -24v-60h-460v60q40 0 70 22.5t30 57.5v140q-71 -85 -183 -132.5t-237 -47.5q-127 0 -223.5 73.5t-96.5 186.5q0 91 67.5 161.5t172.5 88.5q-76 14 -128 66t-52 114q0 104 120 150h-240v100h1268v-100zM794 380v560h-300
q-51 0 -85.5 -41.5t-34.5 -98.5q0 -61 41.5 -105.5t98.5 -44.5h80v-80h-80q-81 0 -140.5 -52.5t-59.5 -123.5t56.5 -122.5t133.5 -51.5q80 0 156.5 41.5t133.5 118.5zM432 -310q-45 0 -77.5 33.5t-32.5 78.5q0 47 32 78.5t78 31.5q48 0 79 -31t31 -79q0 -47 -32 -79.5
t-78 -32.5z" />
    <glyph glyph-name="uni0919_uni093C.nukt" horiz-adv-x="1298" 
d="M1368 940h-444v-220h-300q-60 0 -100 -29.5t-40 -70.5q0 -33 42.5 -56.5t97.5 -23.5h160q99 0 169.5 -63t70.5 -157q0 -133 -128.5 -226.5t-311.5 -93.5q-190 0 -347.5 135t-212.5 345l70 20q45 -166 162.5 -273t257.5 -107q102 0 176 53t74 127q0 68 -57.5 114
t-142.5 46h-120q-91 0 -155.5 47.5t-64.5 112.5q0 74 69 127t171 53h200v140h-670v100h1374v-100zM1164 474q-44 0 -77 33t-33 77q0 47 32 79.5t78 32.5q48 0 80 -32t32 -80q0 -46 -32.5 -78t-79.5 -32zM532 -310q-45 0 -77.5 33.5t-32.5 78.5q0 47 32 78.5t78 31.5
q48 0 79 -31t31 -79q0 -47 -32 -79.5t-78 -32.5z" />
    <glyph glyph-name="uni091A_uni093C.nukt" horiz-adv-x="1260" 
d="M1330 940h-208v-800q0 -32 30 -56t70 -24v-60h-460v60q40 0 70 22.5t30 57.5v140q-71 -85 -174.5 -132.5t-215.5 -47.5q-153 0 -261.5 91.5t-108.5 218.5q0 100 80 180t200 104v6h-360v80h700v-80h-88q-120 0 -196 -76t-76 -184q0 -94 70.5 -157t169.5 -63q70 0 138.5 41
t121.5 119v560h-868v100h1336v-100zM532 -310q-45 0 -77.5 33.5t-32.5 78.5q0 47 32 78.5t78 31.5q48 0 79 -31t31 -79q0 -47 -32 -79.5t-78 -32.5z" />
    <glyph glyph-name="uni091B_uni093C.nukt" horiz-adv-x="1360" 
d="M1430 940h-308v-100q84 -39 132 -120t48 -180q0 -236 -201.5 -388t-468.5 -152q-240 0 -405 77t-165 223q0 81 69.5 141.5t170.5 78.5q-93 8 -156.5 60.5t-63.5 119.5q0 74 81 127t199 53q116 0 230 -66l-20 -64q-54 30 -100 30q-56 0 -93 -29t-37 -71q0 -56 42 -98
t98 -42h60v-80h-60q-67 0 -113.5 -53.5t-46.5 -126.5q0 -88 86 -144t224 -56q123 0 224.5 59t149.5 161q-137 12 -230.5 98.5t-93.5 201.5q0 75 55.5 141.5t144.5 98.5v100h-888v100h1436v-100zM1042 580q0 220 -50 220t-50 -220q0 -75 22 -130.5t58 -69.5q20 74 20 200z
M632 -310q-45 0 -77.5 33.5t-32.5 78.5q0 47 32 78.5t78 31.5q48 0 79 -31t31 -79q0 -47 -32 -79.5t-78 -32.5z" />
    <glyph glyph-name="uni091D_uni093C.nukt" horiz-adv-x="1386" 
d="M1456 940h-208v-800q0 -32 30 -56t70 -24v-60h-460v60q40 0 70 22.5t30 57.5v240h-144q0 -119 -86.5 -188.5t-237.5 -69.5h-88q36 -42 100.5 -80t107.5 -38q44 0 96 28l30 -40q-119 -108 -240 -108q-134 0 -256 126q-107 112 -149.5 153t-82.5 47v60h286q20 -37 58 -88
q84 0 145 40.5t61 107.5q0 60 -45 95t-115 35h-160q-78 0 -139 52.5t-61 127.5q0 76 59 125t141 49h220v126h-494v100h1462v-100zM988 460v480h-240v-208h-260q-69 0 -114.5 -28.5t-45.5 -79.5q0 -43 36 -68.5t88 -25.5q31 0 90 5q60 5 86 5q154 0 200 -80h160zM332 -440
q-45 0 -77.5 33.5t-32.5 78.5q0 47 32 78.5t78 31.5q48 0 79 -31t31 -79q0 -47 -32 -79.5t-78 -32.5z" />
    <glyph glyph-name="uni091E_uni093C.nukt" horiz-adv-x="1204" 
d="M1274 940h-208v-800q0 -32 30 -56t70 -24v-60h-460v60q40 0 70 22.5t30 57.5v320h-180q-22 -121 -118.5 -200.5t-221.5 -79.5q-74 0 -144 32t-116 88l30 40q68 -40 110 -40q81 0 140.5 58.5t59.5 141.5q0 84 -58 142t-142 58q-62 0 -110 -40l-30 40q100 120 260 120
q127 0 222.5 -78.5t117.5 -201.5h180v400h-812v100h1280v-100zM352 -180q-45 0 -77.5 33.5t-32.5 78.5q0 47 32 78.5t78 31.5q48 0 79 -31t31 -79q0 -47 -32 -79.5t-78 -32.5z" />
    <glyph glyph-name="uni091F_uni093C.nukt" horiz-adv-x="946" 
d="M1016 940h-182v-220h-220q-125 0 -212.5 -87.5t-87.5 -212.5t87.5 -212.5t212.5 -87.5q150 0 280 60l30 -50q-161 -130 -370 -130q-207 0 -353.5 117.5t-146.5 282.5t128.5 282.5t311.5 117.5h80v140h-580v100h1022v-100zM452 -310q-45 0 -77.5 33.5t-32.5 78.5
q0 47 32 78.5t78 31.5q48 0 79 -31t31 -79q0 -47 -32 -79.5t-78 -32.5z" />
    <glyph glyph-name="uni0920_uni093C.nukt" horiz-adv-x="1104" 
d="M1174 940h-262v-180h-160q131 -36 215.5 -135t84.5 -225q0 -165 -146.5 -282.5t-353.5 -117.5t-353.5 117.5t-146.5 282.5q0 167 145.5 283.5t354.5 116.5h100v140h-658v100h1180v-100zM552 720q-106 0 -173 -97t-67 -223t67 -223t173 -97t173 97t67 223t-67 223t-173 97
zM532 -310q-45 0 -77.5 33.5t-32.5 78.5q0 47 32 78.5t78 31.5q48 0 79 -31t31 -79q0 -47 -32 -79.5t-78 -32.5z" />
    <glyph glyph-name="uni0923_uni093C.nukt" horiz-adv-x="1462" 
d="M1532 940h-208v-800q0 -32 30 -56t70 -24v-60h-460v60q40 0 70 22.5t30 57.5v800h-240v-440q0 -144 -109.5 -242t-260.5 -98t-260.5 98t-109.5 242v440h-90v100h1538v-100zM564 400v540h-220v-540q0 -65 32 -112.5t78 -47.5t78 47.5t32 112.5zM592 -310q-45 0 -77.5 33.5
t-32.5 78.5q0 47 32 78.5t78 31.5q48 0 79 -31t31 -79q0 -47 -32 -79.5t-78 -32.5z" />
    <glyph glyph-name="uni092A_uni093C.nukt" horiz-adv-x="1204" 
d="M1274 940h-208v-800q0 -32 30 -56t70 -24v-60h-460v60q40 0 70 22.5t30 57.5v180q-49 -85 -145.5 -132.5t-214.5 -47.5q-148 0 -254 106t-106 254v440h-92v100h1280v-100zM806 500v440h-460v-440q0 -91 67.5 -155.5t162.5 -64.5q97 0 163.5 63.5t66.5 156.5zM472 -310
q-45 0 -77.5 33.5t-32.5 78.5q0 47 32 78.5t78 31.5q48 0 79 -31t31 -79q0 -47 -32 -79.5t-78 -32.5z" />
    <glyph glyph-name="uni092C_uni093C.nukt" horiz-adv-x="1150" 
d="M1220 940h-208v-800q0 -32 30 -56t70 -24v-60h-460v60q40 0 70 22.5t30 57.5v100q-48 -58 -128.5 -89t-171.5 -31q-164 0 -282 106t-118 254q0 149 116.5 254.5t283.5 105.5q178 0 300 -100v200h-758v100h1226v-100zM752 380v260q-79 80 -180 80q-111 0 -160 -40z
M712 300l-360 320q-40 -54 -40 -140q0 -103 76.5 -171.5t183.5 -68.5q80 0 140 60zM442 -310q-45 0 -77.5 33.5t-32.5 78.5q0 47 32 78.5t78 31.5q48 0 79 -31t31 -79q0 -47 -32 -79.5t-78 -32.5z" />
    <glyph glyph-name="uni092D_uni093C.nukt" horiz-adv-x="1290" 
d="M1360 940h-208v-800q0 -32 30 -56t70 -24v-60h-460v60q40 0 70 22.5t30 57.5v260h-240v-140q0 -103 -76.5 -171.5t-183.5 -68.5q-133 0 -211.5 68t-78.5 172q0 106 67 173t171 67h52v60h-40q-132 0 -216 69t-84 173q0 99 86 168.5t214 69.5q120 0 210 -67.5t90 -172.5
v-300h240v440h-100v100h568v-100zM392 620v180q0 71 -14.5 115.5t-35.5 44.5q-20 0 -35 -49.5t-15 -110.5q0 -73 18 -126.5t50 -53.5h32zM392 260v140h-42q-37 0 -62.5 -41.5t-25.5 -98.5q0 -140 72 -140q27 0 42.5 45.5t15.5 94.5zM572 -310q-45 0 -77.5 33.5t-32.5 78.5
q0 47 32 78.5t78 31.5q48 0 79 -31t31 -79q0 -47 -32 -79.5t-78 -32.5z" />
    <glyph glyph-name="uni092E_uni093C.nukt" horiz-adv-x="1280" 
d="M1350 940h-208v-800q0 -32 30 -56t70 -24v-60h-460v60q40 0 70 22.5t30 57.5v300h-200v-180q0 -113 -96.5 -186.5t-223.5 -73.5q-132 0 -226 76t-94 196q0 114 90.5 191t229.5 77h60v400h-428v100h1356v-100zM882 540v400h-200v-400h200zM422 260v180h-38q-82 0 -82 -180
t60 -180t60 180zM532 -310q-45 0 -77.5 33.5t-32.5 78.5q0 47 32 78.5t78 31.5q48 0 79 -31t31 -79q0 -47 -32 -79.5t-78 -32.5z" />
    <glyph glyph-name="glyph357" horiz-adv-x="800" 
d="M100 700h600v-700h-600v700zM650 50v600h-500v-600h500z" />
    <glyph glyph-name="uni0932_uni093C.nukt" horiz-adv-x="1378" 
d="M1448 940h-208v-800q0 -32 30 -56t70 -24v-60h-460v60q40 0 70 22.5t30 57.5v560q-86 0 -143 -73t-57 -167h-60q0 101 -58.5 170.5t-141.5 69.5q-86 0 -143 -78.5t-57 -201.5q0 -122 64.5 -209t165.5 -87q76 0 150 66l40 -50q-57 -66 -136.5 -103t-163.5 -37
q-156 0 -268 124t-112 296q0 165 110.5 282.5t269.5 117.5q102 0 183.5 -45.5t126.5 -144.5l10 2q67 148 220 148v160h-986v100h1454v-100zM602 -310q-45 0 -77.5 33.5t-32.5 78.5q0 47 32 78.5t78 31.5q48 0 79 -31t31 -79q0 -47 -32 -79.5t-78 -32.5z" />
    <glyph glyph-name="glyph359" horiz-adv-x="1360" 
d="M1430 940h-370v-170q111 -41 175.5 -142t64.5 -228q0 -165 -108.5 -282.5t-261.5 -117.5q-140 0 -256 96q-116 -96 -244 -96q-153 0 -261.5 117.5t-108.5 282.5q0 167 107.5 283.5t262.5 116.5q141 0 244 -102q68 60 126 72v170h-806v100h1436v-100zM722 152
q62 -42 122 -42q84 0 136 82t52 212q0 288 -110 288q-54 0 -86 -75t-32 -201q0 -165 -82 -264zM620 644q-54 44 -102 44q-90 0 -145 -85.5t-55 -210.5q0 -290 114 -290q48 0 76 73.5t28 194.5q0 155 84 274zM612 -310q-45 0 -77.5 33.5t-32.5 78.5q0 47 32 78.5t78 31.5
q48 0 79 -31t31 -79q0 -47 -32 -79.5t-78 -32.5z" />
    <glyph glyph-name="uni0935_uni093C.nukt" horiz-adv-x="1150" 
d="M1220 940h-208v-800q0 -32 30 -56t70 -24v-60h-460v60q40 0 70 22.5t30 57.5v100q-48 -58 -128.5 -89t-171.5 -31q-164 0 -282 106t-118 254q0 149 116.5 254.5t283.5 105.5q201 0 300 -120v220h-758v100h1226v-100zM752 320v320q-79 80 -180 80q-107 0 -183.5 -68.5
t-76.5 -171.5t76.5 -171.5t183.5 -68.5q98 0 180 80zM442 -310q-45 0 -77.5 33.5t-32.5 78.5q0 47 32 78.5t78 31.5q48 0 79 -31t31 -79q0 -47 -32 -79.5t-78 -32.5z" />
    <glyph glyph-name="uni0936_uni093C.nukt" horiz-adv-x="1490" 
d="M372 220h-10q91 -113 156.5 -164.5t137.5 -51.5q59 0 118 34l26 -56q-160 -88 -288 -88q-150 0 -254 140q-139 188 -206 206v60h300q48 -40 114 -40q73 0 119.5 59.5t46.5 140.5q-63 -40 -146 -40q-183 0 -298.5 84.5t-115.5 235.5q0 145 116 232.5t314 87.5t314 -130
t116 -350q0 -175 -117.5 -297.5t-282.5 -122.5q-92 0 -160 60zM502 1000q-76 0 -123 -80.5t-47 -179.5q0 -93 47 -166.5t123 -73.5t123 73.5t47 166.5q0 99 -47 179.5t-123 80.5zM1560 940h-208v-800q0 -32 30 -56t70 -24v-60h-460v60q40 0 70 22.5t30 57.5v800h-120v100
h588v-100zM127 -220q-45 0 -77.5 33.5t-32.5 78.5q0 47 32 78.5t78 31.5q48 0 79 -31t31 -79q0 -47 -32 -79.5t-78 -32.5z" />
    <glyph glyph-name="uni0937_uni093C.nukt" horiz-adv-x="1204" 
d="M1274 940h-208v-800q0 -32 30 -56t70 -24v-60h-460v60q40 0 70 22.5t30 57.5v170q-119 -170 -330 -170q-161 0 -275.5 105.5t-114.5 254.5v440h-92v100h1280v-100zM806 540v400h-460zM806 420l-460 400v-360q0 -89 63 -144.5t157 -55.5q67 0 132.5 43t107.5 117z
M442 -310q-45 0 -77.5 33.5t-32.5 78.5q0 47 32 78.5t78 31.5q48 0 79 -31t31 -79q0 -47 -32 -79.5t-78 -32.5z" />
    <glyph glyph-name="uni0938_uni093C.nukt" horiz-adv-x="1450" 
d="M1520 940h-208v-800q0 -32 30 -56t70 -24v-60h-460v60q40 0 70 22.5t30 57.5v270q-56 -32 -120 -32q-84 0 -160 42l20 100q60 -34 140 -34q61 0 120 34v420h-618q149 -38 233.5 -121.5t84.5 -198.5q0 -120 -96 -202t-258 -106q55 -66 115.5 -114t98.5 -48q79 0 120 50
l60 -40q-136 -160 -280 -160q-134 0 -270 160q-119 141 -230 180l22 68q77 -26 168 -26q129 0 209.5 72.5t80.5 191.5q0 128 -96 211t-232 83h-170v100h1526v-100zM121 -146q-45 0 -77.5 33.5t-32.5 78.5q0 47 32 78.5t78 31.5q48 0 79 -31t31 -79q0 -47 -32 -79.5
t-78 -32.5z" />
    <glyph glyph-name="uni0939_uni093C.nukt" horiz-adv-x="1008" 
d="M1078 940h-228v-180h-300q-41 0 -70.5 -18t-29.5 -42q0 -32 30 -56t70 -24h70q139 0 234.5 -72t95.5 -178q0 -103 -88.5 -176.5t-211.5 -73.5q-107 0 -180 50l32 54q30 -18 60 -18q53 0 90.5 48t37.5 118q0 72 -46 120t-114 48q-94 0 -157 -70.5t-63 -169.5
q0 -134 100.5 -227t239.5 -93q189 0 320 60l-60 -140h-380q-216 0 -348 100t-132 264q0 109 79 195.5t201 120.5q-59 10 -99.5 47.5t-40.5 82.5q0 54 59.5 92t140.5 38h200v100h-596v100h1084v-100zM512 -410q-45 0 -77.5 33.5t-32.5 78.5q0 47 32 78.5t78 31.5q48 0 79 -31
t31 -79q0 -47 -32 -79.5t-78 -32.5z" />
    <glyph glyph-name="uni0919_uni094D_uni0930.rkrf" horiz-adv-x="1298" 
d="M1368 940h-444v-220h-300q-60 0 -100 -29.5t-40 -70.5q0 -33 42.5 -56.5t97.5 -23.5h160q99 0 169.5 -63t70.5 -157q0 -133 -128.5 -226.5t-311.5 -93.5q-190 0 -347.5 135t-212.5 345l70 20q45 -166 162.5 -273t257.5 -107q102 0 176 53t74 127q0 68 -57.5 114
t-142.5 46h-120q-91 0 -155.5 47.5t-64.5 112.5q0 74 69 127t171 53h200v140h-670v100h1374v-100zM1164 474q-44 0 -77 33t-33 77q0 47 32 79.5t78 32.5q48 0 80 -32t32 -80q0 -46 -32.5 -78t-79.5 -32zM1004 -430h-200l-230 270l-230 -270h-200l300 400h260z" />
    <glyph glyph-name="uni091B_uni094D_uni0930.rkrf" horiz-adv-x="1360" 
d="M1430 940h-308v-100q84 -39 132 -120t48 -180q0 -236 -201.5 -388t-468.5 -152q-240 0 -405 77t-165 223q0 81 69.5 141.5t170.5 78.5q-93 8 -156.5 60.5t-63.5 119.5q0 74 81 127t199 53q116 0 230 -66l-20 -64q-54 30 -100 30q-56 0 -93 -29t-37 -71q0 -56 42 -98
t98 -42h60v-80h-60q-67 0 -113.5 -53.5t-46.5 -126.5q0 -88 86 -144t224 -56q123 0 224.5 59t149.5 161q-137 12 -230.5 98.5t-93.5 201.5q0 75 55.5 141.5t144.5 98.5v100h-888v100h1436v-100zM1042 580q0 220 -50 220t-50 -220q0 -75 22 -130.5t58 -69.5q20 74 20 200z
M1056 -430h-200l-230 270l-230 -270h-200l300 400h260z" />
    <glyph glyph-name="uni091F_uni094D_uni0930.rkrf" horiz-adv-x="946" 
d="M1016 940h-182v-220h-220q-125 0 -212.5 -87.5t-87.5 -212.5t87.5 -212.5t212.5 -87.5q150 0 280 60l30 -50q-161 -130 -370 -130q-207 0 -353.5 117.5t-146.5 282.5t128.5 282.5t311.5 117.5h80v140h-580v100h1022v-100zM990 -430h-200l-230 270l-230 -270h-200l300 400
h260z" />
    <glyph glyph-name="uni0920_uni094D_uni0930.rkrf" horiz-adv-x="1104" 
d="M1174 940h-262v-180h-160q131 -36 215.5 -135t84.5 -225q0 -165 -146.5 -282.5t-353.5 -117.5t-353.5 117.5t-146.5 282.5q0 167 145.5 283.5t354.5 116.5h100v140h-658v100h1180v-100zM552 720q-106 0 -173 -97t-67 -223t67 -223t173 -97t173 97t67 223t-67 223t-173 97
zM980 -430h-200l-230 270l-230 -270h-200l300 400h260z" />
    <glyph glyph-name="uni0921_uni094D_uni0930.rkrf" horiz-adv-x="1072" 
d="M1142 940h-218v-220h-320q-51 0 -85.5 -29.5t-34.5 -70.5q0 -33 42.5 -56.5t97.5 -23.5h160q99 0 169.5 -63t70.5 -157q0 -142 -138 -231t-312 -89q-186 0 -340 132t-210 338l70 30q45 -166 164.5 -273t265.5 -107q98 0 169 53t71 127q0 68 -57.5 114t-142.5 46h-120
q-91 0 -155.5 53.5t-64.5 126.5q0 67 80.5 113.5t199.5 46.5h160v140h-670v100h1148v-100zM1000 -430h-200l-230 270l-230 -270h-200l300 400h260z" />
    <glyph glyph-name="uni0922_uni094D_uni0930.rkrf" horiz-adv-x="1216" 
d="M1286 940h-274v-220h-280q-189 0 -304.5 -90.5t-115.5 -239.5q0 -156 124 -243t316 -87q-81 38 -130.5 107t-49.5 143q0 113 87.5 191.5t212.5 78.5q123 0 211.5 -81t88.5 -199q0 -125 -110.5 -212.5t-301.5 -87.5h-108q-271 0 -435.5 109.5t-164.5 290.5
q0 182 154.5 291t415.5 109h130v140h-758v100h1292v-100zM872 494q-26 0 -45 -59t-19 -135q0 -75 19.5 -134.5t44.5 -59.5t44.5 59.5t19.5 134.5t-19 134.5t-45 59.5zM1084 -430h-200l-230 270l-230 -270h-200l300 400h260z" />
    <glyph glyph-name="uni0933_uni094D_uni0930.rkrf" horiz-adv-x="1360" 
d="M1430 940h-370v-170q111 -41 175.5 -142t64.5 -228q0 -165 -108.5 -282.5t-261.5 -117.5q-140 0 -256 96q-116 -96 -244 -96q-153 0 -261.5 117.5t-108.5 282.5q0 167 107.5 283.5t262.5 116.5q141 0 244 -102q68 60 126 72v170h-806v100h1436v-100zM722 152
q62 -42 122 -42q84 0 136 82t52 212q0 288 -110 288q-54 0 -86 -75t-32 -201q0 -165 -82 -264zM620 644q-54 44 -102 44q-90 0 -145 -85.5t-55 -210.5q0 -290 114 -290q48 0 76 73.5t28 194.5q0 155 84 274zM1364 -430h-200l-230 270l-230 -270h-200l300 400h260z" />
    <glyph glyph-name="uni0958_uni094D_uni0930.rkrf" horiz-adv-x="1706" 
d="M1776 940h-784v-140q103 60 260 60q166 0 283 -102.5t117 -257.5t-107.5 -265.5t-282.5 -110.5q-117 0 -212 60l14 64q32 -18 84 -18q110 0 177 73.5t67 188.5q0 114 -68 191t-172 77q-92 0 -160 -40v-580q0 -32 30 -56t70 -24v-60h-460v60q40 0 70 22.5t30 57.5v76
q-354 -236 -670 -266v140q225 0 380 56q-171 12 -270.5 113t-99.5 241q0 156 116.5 258t283.5 102q157 0 260 -60v140h-738v100h1782v-100zM732 280v440q-68 40 -140 40q-108 0 -184 -75.5t-76 -184.5q0 -108 76 -184t184 -76q67 0 140 40zM452 -310q-45 0 -77.5 33.5
t-32.5 78.5q0 47 32 78.5t78 31.5q48 0 79 -31t31 -79q0 -47 -32 -79.5t-78 -32.5z" />
    <glyph glyph-name="uni0959_uni094D_uni0930.rkrf" horiz-adv-x="1910" 
d="M1980 940h-208v-800q0 -32 30 -56t70 -24v-60h-460v60q40 0 70 22.5t30 57.5v76q-354 -236 -670 -266v140q225 0 380 56q-171 12 -270.5 113t-99.5 241q0 156 116.5 258t283.5 102q157 0 260 -60v140h-1078q149 -38 233.5 -121.5t84.5 -198.5q0 -120 -96 -202t-258 -106
q55 -66 115.5 -114t98.5 -48q79 0 120 50l60 -40q-136 -160 -280 -160q-134 0 -270 160q-119 141 -230 180l22 68q77 -26 168 -26q129 0 209.5 72.5t80.5 191.5q0 128 -96 211t-232 83h-170v100h1986v-100zM1512 280v440q-68 40 -140 40q-108 0 -184 -75.5t-76 -184.5
q0 -108 76 -184t184 -76q67 0 140 40zM68 -78q-44 0 -77 33t-33 77q0 47 32 78.5t78 31.5q49 0 80.5 -31t31.5 -79q0 -46 -32.5 -78t-79.5 -32z" />
    <glyph glyph-name="uni095A_uni094D_uni0930.rkrf" horiz-adv-x="1406" 
d="M1476 940h-208v-800q0 -32 30 -56t70 -24v-60h-460v60q40 0 70 22.5t30 57.5v122q-415 -278 -790 -312v140q477 41 790 244v606h-570q157 -29 268.5 -122.5t111.5 -217.5q0 -167 -129.5 -283.5t-310.5 -116.5q-131 0 -235.5 66.5t-104.5 173.5t104.5 173.5t235.5 66.5
q125 0 180 -80q0 139 -93 239.5t-227 100.5h-244v100h1482v-100zM418 600q-51 0 -85.5 -48t-34.5 -112t35.5 -112t84.5 -48t84.5 46t35.5 114q0 69 -34 114.5t-86 45.5zM532 -310q-45 0 -77.5 33.5t-32.5 78.5q0 47 32 78.5t78 31.5q48 0 79 -31t31 -79q0 -47 -32 -79.5
t-78 -32.5z" />
    <glyph glyph-name="uni0918_uni093C.nukt_uni094D_uni0930.rkrf" horiz-adv-x="1210" 
d="M1280 940h-208v-800q0 -32 30 -56t70 -24v-60h-460v60q40 0 70 22.5t30 57.5v102q-423 -273 -760 -304v140q175 7 316 54q-136 7 -216 71t-80 161q0 87 67.5 157.5t172.5 88.5q-76 14 -128 66t-52 114q0 103 120 150h-258v100h1286v-100zM812 380v560h-300
q-51 0 -85.5 -41.5t-34.5 -98.5q0 -61 41.5 -105.5t98.5 -44.5h80v-80h-80q-81 0 -140.5 -52.5t-59.5 -123.5t55.5 -121.5t142.5 -50.5q77 0 151.5 41t130.5 117zM532 -310q-45 0 -77.5 33.5t-32.5 78.5q0 47 32 78.5t78 31.5q48 0 79 -31t31 -79q0 -47 -32 -79.5t-78 -32.5
z" />
    <glyph glyph-name="uni0919_uni093C.nukt_uni094D_uni0930.rkrf" horiz-adv-x="1298" 
d="M1368 940h-444v-220h-300q-60 0 -100 -29.5t-40 -70.5q0 -33 42.5 -56.5t97.5 -23.5h160q99 0 169.5 -63t70.5 -157q0 -133 -128.5 -226.5t-311.5 -93.5q-190 0 -347.5 135t-212.5 345l70 20q45 -166 162.5 -273t257.5 -107q102 0 176 53t74 127q0 68 -57.5 114
t-142.5 46h-120q-91 0 -155.5 47.5t-64.5 112.5q0 74 69 127t171 53h200v140h-670v100h1374v-100zM1164 474q-44 0 -77 33t-33 77q0 47 32 79.5t78 32.5q48 0 80 -32t32 -80q0 -46 -32.5 -78t-79.5 -32zM1010 -760h-200l-230 270l-230 -270h-200l300 400h260zM572 -310
q-45 0 -77.5 33.5t-32.5 78.5q0 47 32 78.5t78 31.5q48 0 79 -31t31 -79q0 -47 -32 -79.5t-78 -32.5z" />
    <glyph glyph-name="uni091A_uni093C.nukt_uni094D_uni0930.rkrf" horiz-adv-x="1268" 
d="M1338 940h-208v-800q0 -32 30 -56t70 -24v-60h-460v60q40 0 70 22.5t30 57.5v106q-438 -292 -810 -326v140q178 16 332 54q-122 28 -202 112t-80 188q0 101 78 179t202 101v6h-360v80h700v-80h-90q-118 0 -194 -76t-76 -184q0 -94 70.5 -157t169.5 -63q70 0 138.5 41
t121.5 119v560h-876v100h1344v-100zM552 -310q-45 0 -77.5 33.5t-32.5 78.5q0 47 32 78.5t78 31.5q48 0 79 -31t31 -79q0 -47 -32 -79.5t-78 -32.5z" />
    <glyph glyph-name="uni091B_uni093C.nukt_uni094D_uni0930.rkrf" horiz-adv-x="1360" 
d="M1430 940h-308v-100q84 -39 132 -120t48 -180q0 -236 -201.5 -388t-468.5 -152q-240 0 -405 77t-165 223q0 81 69.5 141.5t170.5 78.5q-93 8 -156.5 60.5t-63.5 119.5q0 74 81 127t199 53q116 0 230 -66l-20 -64q-54 30 -100 30q-56 0 -93 -29t-37 -71q0 -56 42 -98
t98 -42h60v-80h-60q-67 0 -113.5 -53.5t-46.5 -126.5q0 -88 86 -144t224 -56q123 0 224.5 59t149.5 161q-137 12 -230.5 98.5t-93.5 201.5q0 75 55.5 141.5t144.5 98.5v100h-888v100h1436v-100zM1042 580q0 220 -50 220t-50 -220q0 -75 22 -130.5t58 -69.5q20 74 20 200z
M1056 -760h-200l-230 270l-230 -270h-200l300 400h260zM632 -310q-45 0 -77.5 33.5t-32.5 78.5q0 47 32 78.5t78 31.5q48 0 79 -31t31 -79q0 -47 -32 -79.5t-78 -32.5z" />
    <glyph glyph-name="uni095B_uni094D_uni0930.rkrf" horiz-adv-x="1376" 
d="M1446 940h-208v-800q0 -32 30 -56t70 -24v-60h-460v60q40 0 70 22.5t30 57.5v110q-424 -285 -800 -320v140q427 0 800 250v390h-300v-10q79 -25 124.5 -84.5t45.5 -135.5q0 -113 -104 -191.5t-246 -78.5q-189 0 -324.5 164.5t-135.5 395.5h60q14 -165 115.5 -277.5
t234.5 -112.5q71 0 120.5 50t49.5 120q0 68 -57.5 114t-142.5 46h-60v80h620v150h-984v100h1452v-100zM582 -310q-45 0 -77.5 33.5t-32.5 78.5q0 47 32 78.5t78 31.5q48 0 79 -31t31 -79q0 -47 -32 -79.5t-78 -32.5z" />
    <glyph glyph-name="uni091D_uni093C.nukt_uni094D_uni0930.rkrf" horiz-adv-x="1542" 
d="M1612 940h-208v-800q0 -32 30 -56t70 -24v-60h-460v60q40 0 70 22.5t30 57.5v100q-151 -107 -290 -120v140q174 16 290 60v60h-300q0 -119 -86.5 -188.5t-237.5 -69.5h-88q36 -42 100.5 -80t107.5 -38q44 0 96 28l30 -40q-119 -108 -240 -108q-134 0 -256 126
q-107 112 -149.5 153t-82.5 47v60h286q20 -37 58 -88q84 0 145 40.5t61 107.5q0 60 -45 95t-115 35h-160q-78 0 -139 52.5t-61 127.5q0 76 59 125t141 49h220v126h-494v100h1618v-100zM1144 460v480h-396v-208h-260q-69 0 -114.5 -28.5t-45.5 -79.5q0 -43 36 -68.5t88 -25.5
q31 0 90 5q60 5 86 5q154 0 200 -80h316zM332 -410q-45 0 -77.5 33.5t-32.5 78.5q0 47 32 78.5t78 31.5q48 0 79 -31t31 -79q0 -47 -32 -79.5t-78 -32.5z" />
    <glyph glyph-name="uni091E_uni093C.nukt_uni094D_uni0930.rkrf" horiz-adv-x="1204" 
d="M1274 940h-208v-800q0 -32 30 -56t70 -24v-60h-460v60q40 0 70 22.5t30 57.5v80q-414 -267 -770 -300v140q467 41 770 230v170h-180q-22 -121 -118.5 -200.5t-221.5 -79.5q-74 0 -144 32t-116 88l30 40q68 -40 110 -40q81 0 140.5 58.5t59.5 141.5q0 84 -58 142t-142 58
q-62 0 -110 -40l-30 40q100 120 260 120q127 0 222.5 -78.5t117.5 -201.5h180v400h-812v100h1280v-100zM472 -310q-45 0 -77.5 33.5t-32.5 78.5q0 47 32 78.5t78 31.5q48 0 79 -31t31 -79q0 -47 -32 -79.5t-78 -32.5z" />
    <glyph glyph-name="uni091F_uni093C.nukt_uni094D_uni0930.rkrf" horiz-adv-x="946" 
d="M1016 940h-182v-220h-220q-125 0 -212.5 -87.5t-87.5 -212.5t87.5 -212.5t212.5 -87.5q150 0 280 60l30 -50q-161 -130 -370 -130q-207 0 -353.5 117.5t-146.5 282.5t128.5 282.5t311.5 117.5h80v140h-580v100h1022v-100zM552 -310q-45 0 -77.5 33.5t-32.5 78.5
q0 47 32 78.5t78 31.5q48 0 79 -31t31 -79q0 -47 -32 -79.5t-78 -32.5zM990 -760h-200l-230 270l-230 -270h-200l300 400h260z" />
    <glyph glyph-name="uni0920_uni093C.nukt_uni094D_uni0930.rkrf" horiz-adv-x="1104" 
d="M1174 940h-262v-180h-160q131 -36 215.5 -135t84.5 -225q0 -165 -146.5 -282.5t-353.5 -117.5t-353.5 117.5t-146.5 282.5q0 167 145.5 283.5t354.5 116.5h100v140h-658v100h1180v-100zM552 720q-106 0 -173 -97t-67 -223t67 -223t173 -97t173 97t67 223t-67 223t-173 97
zM542 -310q-45 0 -77.5 33.5t-32.5 78.5q0 47 32 78.5t78 31.5q48 0 79 -31t31 -79q0 -47 -32 -79.5t-78 -32.5zM980 -760h-200l-230 270l-230 -270h-200l300 400h260z" />
    <glyph glyph-name="uni095C_uni094D_uni0930.rkrf" horiz-adv-x="1072" 
d="M1142 940h-218v-220h-320q-51 0 -85.5 -29.5t-34.5 -70.5q0 -33 42.5 -56.5t97.5 -23.5h160q99 0 169.5 -63t70.5 -157q0 -142 -138 -231t-312 -89q-186 0 -340 132t-210 338l70 30q45 -166 164.5 -273t265.5 -107q98 0 169 53t71 127q0 68 -57.5 114t-142.5 46h-120
q-91 0 -155.5 53.5t-64.5 126.5q0 67 80.5 113.5t199.5 46.5h160v140h-670v100h1148v-100zM990 -760h-200l-230 270l-230 -270h-200l300 400h260zM552 -310q-45 0 -77.5 33.5t-32.5 78.5q0 47 32 78.5t78 31.5q48 0 79 -31t31 -79q0 -47 -32 -79.5t-78 -32.5z" />
    <glyph glyph-name="uni095D_uni094D_uni0930.rkrf" horiz-adv-x="1216" 
d="M1286 940h-274v-220h-280q-189 0 -304.5 -90.5t-115.5 -239.5q0 -156 124 -243t316 -87q-81 38 -130.5 107t-49.5 143q0 113 87.5 191.5t212.5 78.5q123 0 211.5 -81t88.5 -199q0 -125 -110.5 -212.5t-301.5 -87.5h-108q-271 0 -435.5 109.5t-164.5 290.5
q0 182 154.5 291t415.5 109h130v140h-758v100h1292v-100zM872 494q-26 0 -45 -59t-19 -135q0 -75 19.5 -134.5t44.5 -59.5t44.5 59.5t19.5 134.5t-19 134.5t-45 59.5zM642 -310q-45 0 -77.5 33.5t-32.5 78.5q0 47 32 78.5t78 31.5q48 0 79 -31t31 -79q0 -47 -32 -79.5
t-78 -32.5zM1080 -760h-200l-230 270l-230 -270h-200l300 400h260z" />
    <glyph glyph-name="uni0923_uni093C.nukt_uni094D_uni0930.rkrf" horiz-adv-x="1462" 
d="M1532 940h-208v-800q0 -32 30 -56t70 -24v-60h-460v60q40 0 70 22.5t30 57.5v186q-438 -292 -810 -326v140q490 45 810 256v544h-240v-320q0 -144 -109.5 -242t-260.5 -98t-260.5 98t-109.5 242v320h-90v100h1538v-100zM564 520v420h-220v-420q0 -65 32 -112.5t78 -47.5
t78 47.5t32 112.5zM652 -310q-45 0 -77.5 33.5t-32.5 78.5q0 47 32 78.5t78 31.5q48 0 79 -31t31 -79q0 -47 -32 -79.5t-78 -32.5z" />
    <glyph glyph-name="uni0924_uni093C.nukt_uni094D_uni0930.rkrf" horiz-adv-x="1236" 
d="M1306 940h-208v-800q0 -32 30 -56t70 -24v-60h-460v60q40 0 70 22.5t30 57.5v310l-690 -400l-50 70l400 240q-164 320 -320 320q-59 0 -130 -50l-30 50q62 74 142 117t158 43q116 0 231 -89t209 -251l80 50v390h-844v100h1312v-100zM492 -310q-45 0 -77.5 33.5
t-32.5 78.5q0 47 32 78.5t78 31.5q48 0 79 -31t31 -79q0 -47 -32 -79.5t-78 -32.5z" />
    <glyph glyph-name="uni0925_uni093C.nukt_uni094D_uni0930.rkrf" horiz-adv-x="1326" 
d="M1396 940h-208v-800q0 -32 30 -56t70 -24v-60h-460v60q40 0 70 22.5t30 57.5v112q-436 -295 -850 -332v140q156 14 296 46q-142 42 -234 166.5t-92 277.5q73 -30 182 -30q155 0 238 60q-133 0 -236.5 73t-103.5 187q0 107 104.5 173.5t235.5 66.5t235.5 -66.5
t104.5 -173.5q0 -155 -143 -265.5t-357 -114.5q17 -99 106 -159.5t204 -60.5q214 0 310 184v516h-80v100h548v-100zM548 840q0 69 -22.5 114.5t-57.5 45.5q-34 0 -57 -48.5t-23 -111.5q0 -71 24 -125.5t76 -54.5h20q40 68 40 180zM592 -310q-45 0 -77.5 33.5t-32.5 78.5
q0 47 32 78.5t78 31.5q48 0 79 -31t31 -79q0 -47 -32 -79.5t-78 -32.5z" />
    <glyph glyph-name="uni0926_uni093C.nukt_uni094D_uni0930.rkrf" horiz-adv-x="1006" 
d="M1074 940h-184v-220h-280q-125 0 -212.5 -80.5t-87.5 -195.5q0 -116 88.5 -195t211.5 -79q63 0 100 20q6 34 6 66q0 63 -26 134h260q0 -184 -82.5 -327.5t-217.5 -192.5l-42 60q67 51 102 180q-94 -35 -193 -39l-365 -227l-80 150l283 93q-126 34 -215.5 128.5
t-89.5 218.5q0 151 128.5 258.5t311.5 107.5h140v140h-636v100h1080v-100zM432 -310q-45 0 -77.5 33.5t-32.5 78.5q0 47 32 78.5t78 31.5q48 0 79 -31t31 -79q0 -47 -32 -79.5t-78 -32.5z" />
    <glyph glyph-name="uni0927_uni093C.nukt_uni094D_uni0930.rkrf" horiz-adv-x="1326" 
d="M1396 940h-208v-800q0 -32 30 -56t70 -24v-60h-460v60q40 0 70 22.5t30 57.5v150q-400 -327 -870 -370v140q128 0 316 40q-306 58 -306 270q0 97 71.5 173.5t178.5 96.5q-90 16 -150 88t-60 162q0 103 96 176.5t234 73.5q129 0 219.5 -69.5t90.5 -170.5
q0 -59 -41.5 -99.5t-98.5 -40.5t-98.5 38.5t-41.5 91.5q0 48 34.5 84t85.5 46q-22 20 -80 20q-67 0 -113.5 -53.5t-46.5 -126.5q0 -80 48 -140t112 -60h60v-80h-50q-79 0 -134.5 -56.5t-55.5 -133.5q0 -82 54 -136t146 -54q132 0 241 82.5t159 217.5v440h-60v100h528v-100z
M602 -310q-45 0 -77.5 33.5t-32.5 78.5q0 47 32 78.5t78 31.5q48 0 79 -31t31 -79q0 -47 -32 -79.5t-78 -32.5z" />
    <glyph glyph-name="uni0929_uni094D_uni0930.rkrf" horiz-adv-x="1360" 
d="M1430 940h-208v-800q0 -32 30 -56t70 -24v-60h-460v60q40 0 70 22.5t30 57.5v126q-438 -292 -810 -326v140q490 45 810 256v184q-100 85 -240 110q80 -46 80 -160q0 -112 -112 -191t-268 -79t-268 79.5t-112 190.5q0 112 110 191t270 79q292 0 540 -140v340h-968v100
h1436v-100zM422 660q-65 0 -112.5 -56.5t-47.5 -133.5t47.5 -133.5t112.5 -56.5q67 0 113.5 55.5t46.5 134.5t-46.5 134.5t-113.5 55.5zM602 -310q-45 0 -77.5 33.5t-32.5 78.5q0 47 32 78.5t78 31.5q48 0 79 -31t31 -79q0 -47 -32 -79.5t-78 -32.5z" />
    <glyph glyph-name="uni092A_uni093C.nukt_uni094D_uni0930.rkrf" horiz-adv-x="1218" 
d="M1288 940h-208v-800q0 -32 30 -56t70 -24v-60h-460v60q40 0 70 22.5t30 57.5v182q-341 -362 -770 -402v140q293 0 520 142q-205 6 -337.5 118.5t-132.5 269.5v350h-106v100h1294v-100zM820 440v500h-460v-428q0 -104 64 -168t156 -64q105 0 240 160zM512 -310
q-45 0 -77.5 33.5t-32.5 78.5q0 47 32 78.5t78 31.5q48 0 79 -31t31 -79q0 -47 -32 -79.5t-78 -32.5z" />
    <glyph glyph-name="uni092C_uni093C.nukt_uni094D_uni0930.rkrf" horiz-adv-x="1164" 
d="M1234 940h-208v-800q0 -32 30 -56t70 -24v-60h-460v60q40 0 70 22.5t30 57.5v84q-349 -284 -710 -316v140q198 7 396 88q-175 7 -280.5 102.5t-105.5 241.5q0 155 118 257.5t282 102.5q190 0 300 -120v220h-772v100h1240v-100zM766 380v260q-79 80 -180 80
q-112 0 -160 -40zM726 300l-360 320q-40 -40 -40 -140q0 -103 76.5 -171.5t183.5 -68.5q80 0 140 60zM452 -310q-45 0 -77.5 33.5t-32.5 78.5q0 47 32 78.5t78 31.5q48 0 79 -31t31 -79q0 -47 -32 -79.5t-78 -32.5z" />
    <glyph glyph-name="uni092D_uni093C.nukt_uni094D_uni0930.rkrf" horiz-adv-x="1284" 
d="M1354 940h-208v-800q0 -32 30 -56t70 -24v-60h-460v60q40 0 70 22.5t30 57.5v80q-414 -267 -770 -300v140q396 0 770 230v110h-240v-40q0 -93 -73 -156.5t-187 -63.5q-118 0 -189 55.5t-71 140.5q0 75 69 119.5t163 44.5h28v60h-18q-146 0 -234 70t-88 170
q0 105 90 172.5t210 67.5t210 -67.5t90 -172.5v-300h240v440h-100v100h568v-100zM386 620v200q0 140 -50 140t-50 -160q0 -180 82 -180h18zM386 320v80h-42q-98 0 -98 -80q0 -43 23.5 -71.5t56.5 -28.5q60 0 60 100zM582 -310q-45 0 -77.5 33.5t-32.5 78.5q0 47 32 78.5
t78 31.5q48 0 79 -31t31 -79q0 -47 -32 -79.5t-78 -32.5z" />
    <glyph glyph-name="uni092E_uni093C.nukt_uni094D_uni0930.rkrf" horiz-adv-x="1208" 
d="M1278 940h-208v-800q0 -32 30 -56t70 -24v-60h-460v60q40 0 70 22.5t30 57.5v80q-414 -267 -770 -300v140q396 0 770 230v150h-200v-60q0 -99 -98 -159.5t-222 -60.5q-98 0 -167 51.5t-69 136.5q0 84 70.5 138t165.5 54h60v400h-356v100h1284v-100zM810 540v400h-200
v-400h200zM350 340v100h-40q-36 0 -58 -29t-22 -71q0 -43 17.5 -71.5t42.5 -28.5q24 0 42 28.5t18 71.5zM557 -310q-45 0 -77.5 33.5t-32.5 78.5q0 47 32 78.5t78 31.5q48 0 79 -31t31 -79q0 -47 -32 -79.5t-78 -32.5z" />
    <glyph glyph-name="uni095F_uni094D_uni0930.rkrf" horiz-adv-x="1234" 
d="M1304 940h-208v-800q0 -32 30 -56t70 -24v-60h-460v60q40 0 70 22.5t30 57.5v146q-373 -289 -810 -326v140q106 0 332 48q-143 46 -232.5 183t-89.5 309q54 -20 170 -20q84 0 147 47t63 113q0 67 -61 113.5t-149 46.5h-212v100h1310v-100zM836 430v510h-320
q160 -58 160 -160q0 -93 -110.5 -156.5t-269.5 -63.5q0 -127 73.5 -223.5t186.5 -96.5q94 0 170.5 51t109.5 139zM582 -310q-45 0 -77.5 33.5t-32.5 78.5q0 47 32 78.5t78 31.5q48 0 79 -31t31 -79q0 -47 -32 -79.5t-78 -32.5z" />
    <glyph glyph-name="uni0932_uni093C.nukt_uni094D_uni0930.rkrf" horiz-adv-x="1378" 
d="M1448 940h-208v-800q0 -32 30 -56t70 -24v-60h-460v60q40 0 70 22.5t30 57.5v102q-250 -162 -360 -162v140q174 0 360 100v380q-86 0 -143 -73t-57 -167h-60q0 97 -56.5 168.5t-143.5 71.5q-90 0 -146 -84.5t-56 -205.5q0 -159 50.5 -244t131.5 -92l-12 -68
q-206 0 -317 117t-111 297q0 165 110.5 282.5t269.5 117.5q224 0 312 -190h6q65 150 222 150v160h-986v100h1454v-100zM632 -310q-45 0 -77.5 33.5t-32.5 78.5q0 47 32 78.5t78 31.5q48 0 79 -31t31 -79q0 -47 -32 -79.5t-78 -32.5z" />
    <glyph glyph-name="uni0934_uni094D_uni0930.rkrf" horiz-adv-x="1360" 
d="M1430 940h-370v-170q111 -41 175.5 -142t64.5 -228q0 -165 -108.5 -282.5t-261.5 -117.5q-140 0 -256 96q-116 -96 -244 -96q-153 0 -261.5 117.5t-108.5 282.5q0 167 107.5 283.5t262.5 116.5q141 0 244 -102q68 60 126 72v170h-806v100h1436v-100zM722 152
q62 -42 122 -42q84 0 136 82t52 212q0 288 -110 288q-54 0 -86 -75t-32 -201q0 -165 -82 -264zM620 644q-54 44 -102 44q-90 0 -145 -85.5t-55 -210.5q0 -290 114 -290q48 0 76 73.5t28 194.5q0 155 84 274zM752 -310q-45 0 -77.5 33.5t-32.5 78.5q0 47 32 78.5t78 31.5
q48 0 79 -31t31 -79q0 -47 -32 -79.5t-78 -32.5zM1190 -760h-200l-230 270l-230 -270h-200l300 400h260z" />
    <glyph glyph-name="uni0935_uni093C.nukt_uni094D_uni0930.rkrf" horiz-adv-x="1164" 
d="M1234 940h-208v-800q0 -32 30 -56t70 -24v-60h-460v60q40 0 70 22.5t30 57.5v82q-346 -282 -710 -314v140q198 7 396 88q-175 7 -280.5 102.5t-105.5 241.5q0 155 118 257.5t282 102.5q190 0 300 -120v220h-772v100h1240v-100zM766 320v320q-79 80 -180 80
q-107 0 -183.5 -68.5t-76.5 -171.5t71.5 -171.5t182.5 -68.5q105 0 186 80zM442 -310q-45 0 -77.5 33.5t-32.5 78.5q0 47 32 78.5t78 31.5q48 0 79 -31t31 -79q0 -47 -32 -79.5t-78 -32.5z" />
    <glyph glyph-name="uni0936_uni093C.nukt_uni094D_uni0930.rkrf" horiz-adv-x="1260" 
d="M1330 940h-208v-800q0 -32 30 -56t70 -24v-60h-460v60q40 0 70 22.5t30 57.5v270l-676 -382l-48 90l460 254q-114 44 -218 102q-185 -96 -318 -96v92q108 0 212 54q-216 117 -216 298q0 120 91 199t229 79q137 0 228.5 -75.5t91.5 -202.5q0 -193 -218 -298
q112 -59 218 -90l164 90v416h-80v100h548v-100zM444 814q0 206 -64 206q-68 0 -68 -206q0 -158 66 -228q66 68 66 228zM46 120q-45 0 -77.5 33.5t-32.5 78.5q0 47 32 78.5t78 31.5q48 0 79 -31t31 -79q0 -47 -32 -79.5t-78 -32.5z" />
    <glyph glyph-name="uni0937_uni093C.nukt_uni094D_uni0930.rkrf" horiz-adv-x="1204" 
d="M1274 940h-208v-800q0 -32 30 -56t70 -24v-60h-460v60q40 0 70 22.5t30 57.5v130q-333 -313 -770 -350v140q319 0 504 90q-186 0 -320 112t-134 268v410h-92v100h1280v-100zM806 540v400h-460zM806 420l-460 400v-360q0 -80 62.5 -140t157.5 -60q67 0 132.5 43t107.5 117
zM442 -310q-45 0 -77.5 33.5t-32.5 78.5q0 47 32 78.5t78 31.5q48 0 79 -31t31 -79q0 -47 -32 -79.5t-78 -32.5z" />
    <glyph glyph-name="uni0938_uni093C.nukt_uni094D_uni0930.rkrf" horiz-adv-x="1570" 
d="M1640 940h-208v-800q0 -32 30 -56t70 -24v-60h-460v60q40 0 70 22.5t30 57.5v156q-152 -118 -330 -136l-40 140q216 18 370 78v112q-102 58 -206 58q-114 0 -194 -48l20 140q56 32 128 32q128 0 252 -72v340h-760q153 -41 246.5 -128.5t93.5 -191.5q0 -112 -97 -203
t-243 -117q58 -70 112 -110t88 -40q76 0 120 50l60 -40q-136 -160 -280 -160q-66 0 -130.5 36t-139.5 124q-122 143 -230 180l22 70q94 -30 178 -30q115 0 197.5 75t82.5 185q0 128 -101.5 214t-238.5 86h-158v100h1646v-100zM94 -97q-45 0 -77.5 33.5t-32.5 78.5
q0 47 32 78.5t78 31.5q48 0 79 -31t31 -79q0 -47 -32 -79.5t-78 -32.5z" />
    <glyph glyph-name="uni0939_uni093C.nukt_uni094D_uni0930.rkrf" horiz-adv-x="1006" 
d="M1076 940h-228v-160h-300q-44 0 -72 -23.5t-28 -56.5q0 -32 30 -56t70 -24h70q137 0 233.5 -81.5t96.5 -198.5q0 -98 -91.5 -159t-208.5 -61t-180 50l40 50q28 -15 55 -15q44 0 84.5 36.5t40.5 98.5h-200v60h200q0 68 -46 114t-114 46q-96 0 -158 -77t-62 -183
q0 -134 100.5 -227t239.5 -93q189 0 320 60l-60 -140h-260q-247 0 -423.5 117.5t-176.5 282.5q0 107 78.5 192.5t201.5 107.5q-57 9 -98.5 42.5t-41.5 77.5q0 50 62.5 85t157.5 35h180v100h-594v100h1082v-100zM562 -410q-45 0 -77.5 33.5t-32.5 78.5q0 47 32 78.5t78 31.5
q48 0 79 -31t31 -79q0 -47 -32 -79.5t-78 -32.5z" />
    <glyph glyph-name="uni0918_uni093C.nukt_uni094D.half" horiz-adv-x="756" 
d="M826 940h-332q-51 0 -85.5 -41.5t-34.5 -98.5q0 -61 41.5 -105.5t98.5 -44.5h80v-80h-80q-81 0 -140.5 -52.5t-59.5 -123.5t56.5 -122.5t133.5 -51.5q80 0 156.5 41.5t133.5 118.5v-100q-71 -85 -183 -132.5t-237 -47.5q-127 0 -223.5 73.5t-96.5 186.5q0 91 67.5 161.5
t172.5 88.5q-76 14 -128 66t-52 114q0 105 122 150h-242v100h832v-100zM392 -310q-45 0 -77.5 33.5t-32.5 78.5q0 47 32 78.5t78 31.5q48 0 79 -31t31 -79q0 -47 -32 -79.5t-78 -32.5z" />
    <glyph glyph-name="uni0919_uni093C.nukt_uni094D.half" horiz-adv-x="1298" 
d="M1368 940h-444v-220h-300q-60 0 -100 -29.5t-40 -70.5q0 -33 42.5 -56.5t97.5 -23.5h160q99 0 169.5 -63t70.5 -157q0 -133 -128.5 -226.5t-311.5 -93.5q-190 0 -347.5 135t-212.5 345l70 20q45 -166 162.5 -273t257.5 -107q102 0 176 53t74 127q0 68 -57.5 114
t-142.5 46h-120q-91 0 -155.5 47.5t-64.5 112.5q0 74 69 127t171 53h200v140h-670v100h1374v-100zM1164 474q-44 0 -77 33t-33 77q0 47 32 79.5t78 32.5q48 0 80 -32t32 -80q0 -46 -32.5 -78t-79.5 -32zM1102 -790h-260l-310 310l-50 -70h-160l120 160h260zM572 -310
q-45 0 -77.5 33.5t-32.5 78.5q0 47 32 78.5t78 31.5q48 0 79 -31t31 -79q0 -47 -32 -79.5t-78 -32.5z" />
    <glyph glyph-name="uni091A_uni093C.nukt_uni094D.half" horiz-adv-x="822" 
d="M892 940h-898v100h898v-100zM862 280q-71 -85 -174.5 -132.5t-215.5 -47.5q-153 0 -261.5 91.5t-108.5 218.5q0 100 80 180t200 104v6h-360v80h700v-80h-88q-120 0 -196 -76t-76 -184q0 -94 70.5 -157t169.5 -63q70 0 138.5 41t121.5 119v-100zM472 -260
q-45 0 -77.5 33.5t-32.5 78.5q0 47 32 78.5t78 31.5q48 0 79 -31t31 -79q0 -47 -32 -79.5t-78 -32.5z" />
    <glyph glyph-name="uni091B_uni093C.nukt_uni094D.half" horiz-adv-x="1358" 
d="M1428 940h-1434v100h1434v-100zM300 520q-93 8 -156.5 60.5t-63.5 119.5q0 74 81 127t199 53q116 0 230 -66l-20 -64q-54 30 -100 30q-56 0 -93 -29t-37 -71q0 -56 42 -98t98 -42h60v-80h-60q-67 0 -113.5 -53.5t-46.5 -126.5q0 -81 92 -140.5t218 -59.5q123 0 225 59
t149 161q-137 12 -230.5 98.5t-93.5 201.5q0 111 90.5 190.5t219.5 79.5q130 0 220 -96t90 -234q0 -234 -195 -387t-455 -153q-243 0 -416.5 88.5t-173.5 211.5q0 81 69.5 141.5t170.5 78.5zM1040 580q0 220 -50 220t-50 -220q0 -75 22 -130.5t58 -69.5q20 74 20 200z
M652 -310q-45 0 -77.5 33.5t-32.5 78.5q0 47 32 78.5t78 31.5q48 0 79 -31t31 -79q0 -47 -32 -79.5t-78 -32.5z" />
    <glyph glyph-name="uni091D_uni093C.nukt_uni094D.half" horiz-adv-x="982" 
d="M1052 940h-304v-208h-260q-69 0 -114.5 -28.5t-45.5 -79.5q0 -43 36 -68.5t88 -25.5q31 0 90 5q60 5 86 5q154 0 200 -80h194v-80h-178q0 -119 -86.5 -188.5t-237.5 -69.5h-88q36 -42 100.5 -80t107.5 -38q44 0 96 28l30 -40q-119 -108 -240 -108q-134 0 -256 126
q-107 112 -149.5 153t-82.5 47v60h286q20 -37 58 -88q84 0 145 40.5t61 107.5q0 60 -45 95t-115 35h-160q-78 0 -139 52.5t-61 127.5q0 76 59 125t141 49h220v126h-494v100h1058v-100zM332 -410q-45 0 -77.5 33.5t-32.5 78.5q0 47 32 78.5t78 31.5q48 0 79 -31t31 -79
q0 -47 -32 -79.5t-78 -32.5z" />
    <glyph glyph-name="uni091E_uni093C.nukt_uni094D.half" horiz-adv-x="840" 
d="M912 940h-918v100h918v-100zM926 460h-300q-22 -121 -118.5 -200.5t-221.5 -79.5q-74 0 -144 32t-116 88l30 40q68 -40 110 -40q81 0 140.5 58.5t59.5 141.5q0 84 -58 142t-142 58q-62 0 -110 -40l-30 40q100 120 260 120q127 0 222.5 -78.5t117.5 -201.5h300v-80z
M352 -220q-45 0 -77.5 33.5t-32.5 78.5q0 47 32 78.5t78 31.5q48 0 79 -31t31 -79q0 -47 -32 -79.5t-78 -32.5z" />
    <glyph glyph-name="uni091F_uni093C.nukt_uni094D.half" horiz-adv-x="946" 
d="M1016 940h-182v-220h-220q-125 0 -212.5 -87.5t-87.5 -212.5t87.5 -212.5t212.5 -87.5q150 0 280 60l30 -50q-161 -130 -370 -130q-207 0 -353.5 117.5t-146.5 282.5t128.5 282.5t311.5 117.5h80v140h-580v100h1022v-100zM552 -310q-45 0 -77.5 33.5t-32.5 78.5
q0 47 32 78.5t78 31.5q48 0 79 -31t31 -79q0 -47 -32 -79.5t-78 -32.5zM1082 -790h-260l-310 310l-50 -70h-160l120 160h260z" />
    <glyph glyph-name="uni0920_uni093C.nukt_uni094D.half" horiz-adv-x="1104" 
d="M1174 940h-262v-180h-160q131 -36 215.5 -135t84.5 -225q0 -165 -146.5 -282.5t-353.5 -117.5t-353.5 117.5t-146.5 282.5q0 167 145.5 283.5t354.5 116.5h100v140h-658v100h1180v-100zM552 720q-106 0 -173 -97t-67 -223t67 -223t173 -97t173 97t67 223t-67 223t-173 97
zM552 -310q-45 0 -77.5 33.5t-32.5 78.5q0 47 32 78.5t78 31.5q48 0 79 -31t31 -79q0 -47 -32 -79.5t-78 -32.5zM1082 -790h-260l-310 310l-50 -70h-160l120 160h260z" />
    <glyph glyph-name="uni095C_uni094D.half" horiz-adv-x="1072" 
d="M1142 940h-218v-220h-320q-51 0 -85.5 -29.5t-34.5 -70.5q0 -33 42.5 -56.5t97.5 -23.5h160q99 0 169.5 -63t70.5 -157q0 -142 -138 -231t-312 -89q-186 0 -340 132t-210 338l70 30q45 -166 164.5 -273t265.5 -107q98 0 169 53t71 127q0 68 -57.5 114t-142.5 46h-120
q-91 0 -155.5 53.5t-64.5 126.5q0 67 80.5 113.5t199.5 46.5h160v140h-670v100h1148v-100zM552 -310q-45 0 -77.5 33.5t-32.5 78.5q0 47 32 78.5t78 31.5q48 0 79 -31t31 -79q0 -47 -32 -79.5t-78 -32.5zM1082 -790h-260l-310 310l-50 -70h-160l120 160h260z" />
    <glyph glyph-name="uni095D_uni094D.half" horiz-adv-x="1216" 
d="M1286 940h-274v-220h-280q-189 0 -304.5 -90.5t-115.5 -239.5q0 -156 124 -243t316 -87q-81 38 -130.5 107t-49.5 143q0 113 87.5 191.5t212.5 78.5q123 0 211.5 -81t88.5 -199q0 -125 -110.5 -212.5t-301.5 -87.5h-108q-271 0 -435.5 109.5t-164.5 290.5
q0 182 154.5 291t415.5 109h130v140h-758v100h1292v-100zM872 494q-26 0 -45 -59t-19 -135q0 -75 19.5 -134.5t44.5 -59.5t44.5 59.5t19.5 134.5t-19 134.5t-45 59.5zM622 -310q-45 0 -77.5 33.5t-32.5 78.5q0 47 32 78.5t78 31.5q48 0 79 -31t31 -79q0 -47 -32 -79.5
t-78 -32.5zM1152 -790h-260l-310 310l-50 -70h-160l120 160h260z" />
    <glyph glyph-name="uni0923_uni093C.nukt_uni094D.half" horiz-adv-x="908" 
d="M978 940h-154v-440q0 -144 -109.5 -242t-260.5 -98t-260.5 98t-109.5 242v440h-90v100h984v-100zM564 400v540h-220v-540q0 -65 32 -112.5t78 -47.5t78 47.5t32 112.5zM442 -240q-45 0 -77.5 33.5t-32.5 78.5q0 47 32 78.5t78 31.5q48 0 79 -31t31 -79q0 -47 -32 -79.5
t-78 -32.5z" />
    <glyph glyph-name="uni0924_uni093C.nukt_uni094D.half" horiz-adv-x="800" 
d="M870 940h-876v100h876v-100zM830 650q-79 70 -250 70q-105 0 -177.5 -79.5t-72.5 -190.5q0 -97 46 -186t124 -144l-240 -120q-200 167 -200 420q0 165 140.5 282.5t339.5 117.5q176 0 290 -70v-100zM402 -310q-45 0 -77.5 33.5t-32.5 78.5q0 47 32 78.5t78 31.5
q48 0 79 -31t31 -79q0 -47 -32 -79.5t-78 -32.5z" />
    <glyph glyph-name="uni0925_uni093C.nukt_uni094D.half" horiz-adv-x="882" 
d="M922 410q-41 -149 -163 -239.5t-277 -90.5q-181 0 -310.5 138.5t-129.5 331.5q90 -50 170 -50q151 0 250 80q-133 0 -236.5 73t-103.5 187q0 104 99 177t241 73t241 -72.5t99 -177.5q0 -165 -146.5 -282.5t-353.5 -117.5q16 -84 96.5 -142t183.5 -58q101 0 189.5 71.5
t130.5 188.5zM502 640q40 70 40 200q0 78 -22.5 129t-57.5 51q-34 0 -57 -54.5t-23 -125.5q0 -79 23.5 -139.5t56.5 -60.5h40zM282 -240q-45 0 -77.5 33.5t-32.5 78.5q0 47 32 78.5t78 31.5q48 0 79 -31t31 -79q0 -47 -32 -79.5t-78 -32.5z" />
    <glyph glyph-name="uni0926_uni093C.nukt_uni094D.half" horiz-adv-x="1004" 
d="M1074 940h-184v-220h-280q-125 0 -212.5 -80.5t-87.5 -195.5q0 -116 88.5 -195t211.5 -79q63 0 100 20q6 34 6 66q0 63 -26 134h260q0 -184 -82.5 -327.5t-217.5 -192.5l-42 60q67 51 102 180q-108 -40 -220 -40q-180 0 -310 108t-130 256q0 151 128.5 258.5t311.5 107.5
h140v140h-636v100h1080v-100zM412 -310q-45 0 -77.5 33.5t-32.5 78.5q0 47 32 78.5t78 31.5q48 0 79 -31t31 -79q0 -47 -32 -79.5t-78 -32.5zM962 -790h-260l-310 310l-50 -70h-160l120 160h260z" />
    <glyph glyph-name="uni0927_uni093C.nukt_uni094D.half" horiz-adv-x="880" 
d="M920 380q-65 -139 -190.5 -219.5t-269.5 -80.5q-164 0 -282 85.5t-118 204.5q0 97 71.5 173.5t178.5 96.5q-90 16 -150 88t-60 162q0 103 96 176.5t234 73.5q129 0 219.5 -69.5t90.5 -170.5q0 -59 -41.5 -99.5t-98.5 -40.5q-56 0 -98 42t-42 98q0 33 32.5 66.5t87.5 53.5
q-22 20 -80 20q-67 0 -113.5 -53.5t-46.5 -126.5q0 -80 48 -140t112 -60h60v-80h-60q-75 0 -127.5 -59.5t-52.5 -140.5q0 -72 60 -126t140 -54q122 0 220.5 65t139.5 175zM472 -260q-45 0 -77.5 33.5t-32.5 78.5q0 47 32 78.5t78 31.5q48 0 79 -31t31 -79q0 -47 -32 -79.5
t-78 -32.5z" />
    <glyph glyph-name="uni092A_uni093C.nukt_uni094D.half" horiz-adv-x="726" 
d="M796 940h-450v-440q0 -92 64 -156t156 -64q64 0 118.5 43t81.5 117v-140q-109 -160 -320 -160q-148 0 -254 106t-106 254v440h-92v100h802v-100zM412 -240q-45 0 -77.5 33.5t-32.5 78.5q0 47 32 78.5t78 31.5q48 0 79 -31t31 -79q0 -47 -32 -79.5t-78 -32.5z" />
    <glyph glyph-name="uni092C_uni093C.nukt_uni094D.half" horiz-adv-x="792" 
d="M862 940h-868v100h868v-100zM452 120q-164 0 -282 106t-118 254q0 151 119.5 255.5t290.5 104.5q155 0 262.5 -104.5t107.5 -255.5t-111.5 -255.5t-268.5 -104.5zM412 680l336 -296q14 37 14 88q0 104 -66 176t-164 72q-72 0 -120 -40zM724 336l-352 304
q-60 -60 -60 -160q0 -96 68.5 -167t175.5 -71q109 0 168 94zM432 -260q-45 0 -77.5 33.5t-32.5 78.5q0 47 32 78.5t78 31.5q48 0 79 -31t31 -79q0 -47 -32 -79.5t-78 -32.5z" />
    <glyph glyph-name="uni092D_uni093C.nukt_uni094D.half" horiz-adv-x="752" 
d="M792 400h-140v-140q0 -103 -76.5 -171.5t-183.5 -68.5q-113 0 -196.5 68t-83.5 172q0 101 70 170.5t170 69.5h40v60h-40q-120 0 -210 67.5t-90 172.5t90 172.5t210 67.5t210 -67.5t90 -172.5v-300h140v-100zM392 620v200q0 71 -14.5 115.5t-35.5 44.5q-50 0 -50 -180
q0 -73 18 -126.5t42 -53.5h40zM392 260v140h-42q-37 0 -62.5 -41.5t-25.5 -98.5q0 -140 72 -140q27 0 42.5 45.5t15.5 94.5zM377 -310q-45 0 -77.5 33.5t-32.5 78.5q0 47 32 78.5t78 31.5q48 0 79 -31t31 -79q0 -47 -32 -79.5t-78 -32.5z" />
    <glyph glyph-name="uni092E_uni093C.nukt_uni094D.half" horiz-adv-x="842" 
d="M912 940h-230v-400h200v-100h-200v-180q0 -113 -96.5 -186.5t-223.5 -73.5t-223.5 73.5t-96.5 186.5q0 120 95.5 200t224.5 80h60v400h-428v100h918v-100zM422 260v180h-38q-82 0 -82 -180t60 -180t60 180zM361 -310q-45 0 -77.5 33.5t-32.5 78.5q0 47 32 78.5t78 31.5
q48 0 79 -31t31 -79q0 -47 -32 -79.5t-78 -32.5z" />
    <glyph glyph-name="uni095F_uni094D.half" horiz-adv-x="796" 
d="M866 940h-350q160 -58 160 -160q0 -93 -110.5 -156.5t-269.5 -63.5q0 -131 79.5 -225.5t190.5 -94.5q95 0 168.5 46.5t101.5 135.5v-122q-43 -94 -135.5 -147t-204.5 -53q-189 0 -324.5 158.5t-135.5 381.5q56 -20 140 -20q92 0 166 50.5t74 129.5q0 90 -140 140h-282
v100h872v-100zM412 -210q-45 0 -77.5 33.5t-32.5 78.5q0 47 32 78.5t78 31.5q48 0 79 -31t31 -79q0 -47 -32 -79.5t-78 -32.5z" />
    <glyph glyph-name="uni0932_uni093C.nukt_uni094D.half" horiz-adv-x="940" 
d="M1010 940h-1016v100h1016v-100zM980 700q-86 0 -143 -73t-57 -167h-60q0 101 -58.5 170.5t-141.5 69.5q-86 0 -143 -78.5t-57 -201.5q0 -122 64.5 -209t165.5 -87q76 0 150 66l40 -50q-57 -66 -136.5 -103t-163.5 -37q-156 0 -268 124t-112 296q0 165 110.5 282.5
t269.5 117.5q102 0 183.5 -45.5t126.5 -144.5l10 2q67 148 220 148v-80zM412 -310q-45 0 -77.5 33.5t-32.5 78.5q0 47 32 78.5t78 31.5q48 0 79 -31t31 -79q0 -47 -32 -79.5t-78 -32.5z" />
    <glyph glyph-name="glyph425" horiz-adv-x="800" 
d="M100 700h600v-700h-600v700zM650 50v600h-500v-600h500z" />
    <glyph glyph-name="uni0935_uni093C.nukt_uni094D.half" horiz-adv-x="792" 
d="M862 940h-868v100h868v-100zM442 120q-161 0 -275.5 105.5t-114.5 254.5q0 151 113.5 255.5t276.5 104.5t276.5 -104.5t113.5 -255.5q0 -149 -114.5 -254.5t-275.5 -105.5zM532 720q-94 0 -157 -70.5t-63 -169.5t63 -169.5t157 -70.5t157 70.5t63 169.5t-63 169.5
t-157 70.5zM432 -260q-45 0 -77.5 33.5t-32.5 78.5q0 47 32 78.5t78 31.5q48 0 79 -31t31 -79q0 -47 -32 -79.5t-78 -32.5z" />
    <glyph glyph-name="uni0936_uni093C.nukt_uni094D.half" horiz-adv-x="1000" 
d="M372 220h-10q91 -113 156.5 -164.5t137.5 -51.5q59 0 118 34l26 -56q-160 -88 -288 -88q-150 0 -254 140q-139 188 -206 206v60h300q48 -40 114 -40q73 0 119.5 59.5t46.5 140.5q-63 -40 -146 -40q-183 0 -298.5 84.5t-115.5 235.5q0 145 116 232.5t314 87.5t314 -130
t116 -350q0 -175 -117.5 -297.5t-282.5 -122.5q-92 0 -160 60zM502 1000q-76 0 -123 -80.5t-47 -179.5q0 -93 47 -166.5t123 -73.5t123 73.5t47 166.5q0 99 -47 179.5t-123 80.5zM125 -196q-45 0 -77.5 33.5t-32.5 78.5q0 47 32 78.5t78 31.5q48 0 79 -31t31 -79
q0 -47 -32 -79.5t-78 -32.5z" />
    <glyph glyph-name="uni0937_uni093C.nukt_uni094D.half" horiz-adv-x="786" 
d="M856 940h-470l440 -440v-160q-54 -93 -157 -146.5t-223 -53.5q-148 0 -254 106t-106 254v440h-92v100h862v-100zM786 420l-440 440v-420q0 -72 54 -126t126 -54q76 0 147.5 43.5t112.5 116.5zM452 -240q-45 0 -77.5 33.5t-32.5 78.5q0 47 32 78.5t78 31.5q48 0 79 -31
t31 -79q0 -47 -32 -79.5t-78 -32.5z" />
    <glyph glyph-name="uni0938_uni093C.nukt_uni094D.half" horiz-adv-x="1032" 
d="M1102 940h-668q149 -38 233.5 -121.5t84.5 -198.5q0 -120 -96 -202t-258 -106q55 -66 115.5 -114t98.5 -48q79 0 120 50l60 -40q-136 -160 -280 -160q-134 0 -270 160q-119 141 -230 180l22 68q77 -26 168 -26q129 0 209.5 72.5t80.5 191.5q0 128 -96 211t-232 83h-170
v100h1108v-100zM1052 410q-56 -32 -120 -32q-84 0 -160 42l20 100q60 -34 140 -34q61 0 120 34v-110zM121 -122q-45 0 -77.5 33.5t-32.5 78.5q0 47 32 78.5t78 31.5q48 0 79 -31t31 -79q0 -47 -32 -79.5t-78 -32.5z" />
    <glyph glyph-name="uni0939_uni093C.nukt_uni094D.half" horiz-adv-x="930" 
d="M1000 940h-150v-180h-300q-41 0 -70.5 -18t-29.5 -42q0 -32 30 -56t70 -24h70q139 0 234.5 -58t95.5 -142h-260q0 52 -45.5 86t-114.5 34q-94 0 -157 -70.5t-63 -169.5q0 -144 94 -232t246 -88q189 0 320 60l-60 -140h-350q-230 0 -370 110t-140 290q0 100 77 182.5
t203 117.5q-61 16 -100.5 50.5t-39.5 69.5q0 50 62.5 85t157.5 35h180v100h-596v100h1006v-100zM442 -410q-45 0 -77.5 33.5t-32.5 78.5q0 47 32 78.5t78 31.5q48 0 79 -31t31 -79q0 -47 -32 -79.5t-78 -32.5z" />
    <glyph glyph-name="uni0915_uni094D_uni0930.rkrf_uni094D.half" horiz-adv-x="1246" 
d="M766 320v320q-79 80 -180 80q-107 0 -183.5 -68.5t-76.5 -171.5t71.5 -171.5t182.5 -68.5q105 0 186 80zM1316 1040v-100h-290v-222q103 60 260 60v-100q-192 0 -260 -40v-498q0 -32 30 -56t70 -24v-60h-460v60q40 0 70 22.5t30 57.5v82q-346 -282 -710 -314v140
q198 7 396 88q-175 7 -280.5 102.5t-105.5 241.5q0 155 118 257.5t282 102.5q190 0 300 -120v220h-772v100h1322z" />
    <glyph glyph-name="uni0916_uni094D_uni0930.rkrf_uni094D.half" horiz-adv-x="1512" 
d="M1582 940h-1148q149 -38 233.5 -121.5t84.5 -198.5q0 -120 -96 -202t-258 -106q55 -66 115.5 -114t98.5 -48q79 0 120 50l60 -40q-136 -160 -280 -160q-134 0 -270 160q-119 141 -230 180l22 68q77 -26 168 -26q129 0 209.5 72.5t80.5 191.5q0 128 -96 211t-232 83h-170
v100h1588v-100zM1512 216q-354 -236 -670 -266v140q225 0 380 56q-171 12 -270.5 113t-99.5 241q0 156 116.5 258t283.5 102q157 0 260 -60v-80q-68 40 -140 40q-108 0 -184 -75.5t-76 -184.5q0 -108 76 -184t184 -76q67 0 140 40v-64z" />
    <glyph glyph-name="uni0917_uni094D_uni0930.rkrf_uni094D.half" horiz-adv-x="1008" 
d="M1078 940h-640q157 -29 268.5 -122.5t111.5 -217.5q0 -167 -129.5 -283.5t-310.5 -116.5q-131 0 -235.5 66.5t-104.5 173.5t104.5 173.5t235.5 66.5q125 0 180 -80q0 139 -93 239.5t-227 100.5h-244v100h1084v-100zM418 600q-51 0 -85.5 -48t-34.5 -112t35.5 -112
t84.5 -48t84.5 46t35.5 114q0 69 -34 114.5t-86 45.5zM1008 262q-415 -278 -790 -312v140q477 41 790 244v-72z" />
    <glyph glyph-name="uni0918_uni094D_uni0930.rkrf_uni094D.half" horiz-adv-x="812" 
d="M882 940h-358q-132 -41 -132 -140q0 -56 48 -98t122 -42h50v-100h-54q-100 0 -161 -46t-61 -130q0 -71 56.5 -117.5t149.5 -46.5q154 0 270 144v-122q-423 -273 -760 -304v140q175 7 316 54q-296 44 -296 248q0 82 64 146t176 94q-77 21 -128.5 70t-51.5 110
q0 43 33.5 81.5t86.5 58.5h-258v100h888v-100z" />
    <glyph glyph-name="uni0919_uni094D.half_uni0930_uni094D.blwf.vatu" horiz-adv-x="1298" 
d="M1368 940h-444v-220h-300q-60 0 -100 -29.5t-40 -70.5q0 -33 42.5 -56.5t97.5 -23.5h160q99 0 169.5 -63t70.5 -157q0 -133 -128.5 -226.5t-311.5 -93.5q-190 0 -347.5 135t-212.5 345l70 20q45 -166 162.5 -273t257.5 -107q102 0 176 53t74 127q0 68 -57.5 114
t-142.5 46h-120q-91 0 -155.5 47.5t-64.5 112.5q0 74 69 127t171 53h200v140h-670v100h1374v-100zM1164 474q-44 0 -77 33t-33 77q0 47 32 79.5t78 32.5q48 0 80 -32t32 -80q0 -46 -32.5 -78t-79.5 -32zM1103 -802h-260l-310 310l-50 -70h-160l120 160h260zM1004 -430h-200
l-230 270l-230 -270h-200l300 400h260z" />
    <glyph glyph-name="uni091A_uni094D_uni0930.rkrf_uni094D.half" horiz-adv-x="871" 
d="M940 940h-946v100h946v-100zM870 246q-432 -289 -810 -326v140q178 16 332 54q-122 28 -202 112t-80 184q0 102 77 182t203 102v6h-360v80h700v-80h-90q-118 0 -194 -76t-76 -184q0 -94 70.5 -157t169.5 -63q138 0 260 154v-128z" />
    <glyph glyph-name="uni091B_uni094D_uni0930.rkrf_uni094D.half" horiz-adv-x="1358" 
d="M1428 940h-1434v100h1434v-100zM300 520q-93 8 -156.5 60.5t-63.5 119.5q0 74 81 127t199 53q116 0 230 -66l-20 -64q-54 30 -100 30q-56 0 -93 -29t-37 -71q0 -56 42 -98t98 -42h60v-80h-60q-67 0 -113.5 -53.5t-46.5 -126.5q0 -81 92 -140.5t218 -59.5q123 0 225 59
t149 161q-137 12 -230.5 98.5t-93.5 201.5q0 111 90.5 190.5t219.5 79.5q130 0 220 -96t90 -234q0 -234 -195 -387t-455 -153q-243 0 -416.5 88.5t-173.5 211.5q0 81 69.5 141.5t170.5 78.5zM1040 580q0 220 -50 220t-50 -220q0 -75 22 -130.5t58 -69.5q20 74 20 200z
M1064 -430h-200l-230 270l-230 -270h-200l300 400h260z" />
    <glyph glyph-name="uni091C_uni094D_uni0930.rkrf_uni094D.half" horiz-adv-x="978" 
d="M1048 940h-1054v100h1054v-100zM978 710h-300v-10q79 -25 124.5 -84.5t45.5 -135.5q0 -113 -104 -191.5t-246 -78.5q-189 0 -324.5 164.5t-135.5 395.5h60q14 -165 115.5 -277.5t234.5 -112.5q71 0 120.5 50t49.5 120q0 68 -57.5 114t-142.5 46h-60v80h620v-80zM978 250
q-424 -285 -800 -320v140q427 0 800 250v-70z" />
    <glyph glyph-name="uni091D_uni094D_uni0930.rkrf_uni094D.half" horiz-adv-x="1144" 
d="M1214 940h-466v-208h-260q-69 0 -114.5 -28.5t-45.5 -79.5q0 -43 36 -68.5t88 -25.5q31 0 90 5q60 5 86 5q154 0 200 -80h316v-80h-300q0 -119 -86.5 -188.5t-237.5 -69.5h-88q36 -42 100.5 -80t107.5 -38q44 0 96 28l30 -40q-119 -108 -240 -108q-134 0 -256 126
q-107 112 -149.5 153t-82.5 47v60h286q20 -37 58 -88q84 0 145 40.5t61 107.5q0 60 -45 95t-115 35h-160q-78 0 -139 52.5t-61 127.5q0 76 59 125t141 49h220v126h-494v100h1220v-100zM1144 240q-151 -107 -290 -120v140q174 16 290 60v-80z" />
    <glyph glyph-name="uni091E_uni094D_uni0930.rkrf_uni094D.half" horiz-adv-x="807" 
d="M876 940h-882v100h882v-100zM806 460h-180q-22 -121 -118.5 -200.5t-221.5 -79.5q-74 0 -144 32t-116 88l30 40q68 -40 110 -40q81 0 140.5 58.5t59.5 141.5q0 84 -58 142t-142 58q-62 0 -110 -40l-30 40q100 120 260 120q127 0 222.5 -78.5t117.5 -201.5h180v-80z
M806 220q-414 -267 -770 -300v140q467 41 770 230v-70z" />
    <glyph glyph-name="uni091F_uni094D.half_uni0930_uni094D.blwf.vatu" horiz-adv-x="946" 
d="M1016 940h-182v-220h-220q-125 0 -212.5 -87.5t-87.5 -212.5t87.5 -212.5t212.5 -87.5q150 0 280 60l30 -50q-161 -130 -370 -130q-207 0 -353.5 117.5t-146.5 282.5t128.5 282.5t311.5 117.5h80v140h-580v100h1022v-100zM1090 -813h-260l-310 310l-50 -70h-160l120 160
h260zM990 -430h-200l-230 270l-230 -270h-200l300 400h260z" />
    </font>
</defs>
</svg>
